<?xml version="1.0" standalone="no"?>
<!DOCTYPE svg PUBLIC "-//W3C//DTD SVG 20010904//EN"
 "http://www.w3.org/TR/2001/REC-SVG-20010904/DTD/svg10.dtd">
<svg version="1.0" xmlns="http://www.w3.org/2000/svg"
 width="5000.000000pt" height="5000.000000pt" viewBox="0 0 5000.000000 5000.000000"
 preserveAspectRatio="xMidYMid meet">

<g transform="translate(0.000000,5000.000000) scale(0.100000,-0.100000)"
fill="#000000" stroke="none">
<path d="M45472 34970 c-7 -91 -23 -246 -35 -345 -21 -173 -22 -178 -28 -115
-4 36 -8 126 -9 200 l-3 135 -7 -165 c-4 -91 -13 -217 -20 -280 -12 -125 -58
-441 -63 -447 -5 -4 -17 277 -18 422 -1 61 -4 134 -7 163 -7 53 -21 13 -766
-2120 -418 -1195 -772 -2207 -788 -2249 -60 -158 -511 -852 -907 -1394 -112
-154 -323 -427 -326 -423 -2 2 42 1205 96 2673 54 1469 98 2697 98 2730 -1 41
-7 10 -20 -100 -109 -927 -379 -1810 -835 -2725 l-122 -245 -620 -930 c-658
-987 -659 -989 -1006 -1381 -195 -220 -753 -781 -764 -769 -5 6 -46 1263 -91
2795 -45 1532 -85 2830 -88 2885 l-6 100 -14 -90 c-91 -628 -333 -1514 -602
-2214 -732 -1897 -1859 -3361 -3295 -4278 -371 -237 -522 -307 -1111 -520
-360 -131 -963 -323 -1011 -323 -12 0 -14 415 -15 2898 -1 2861 -1 2895 -19
2742 -93 -785 -339 -1486 -721 -2050 -237 -350 -540 -650 -892 -881 -128 -84
-375 -214 -530 -278 -198 -82 -821 -277 -1265 -397 -836 -224 -1612 -344
-1986 -305 l-109 11 -91 74 c-256 209 -626 563 -857 821 -555 622 -929 1233
-1093 1790 -173 586 -425 2163 -538 3359 -6 72 -13 126 -14 120 -2 -5 -12
-106 -24 -224 -123 -1257 -382 -2820 -554 -3343 -147 -447 -444 -956 -843
-1442 -296 -361 -708 -774 -1070 -1071 l-101 -84 -94 -10 c-596 -63 -1760 162
-3053 589 -565 186 -940 405 -1314 766 -640 619 -1066 1613 -1160 2710 -5 58
-9 -1135 -10 -2862 0 -1630 -5 -2963 -10 -2963 -24 0 -463 133 -721 219 -316
105 -489 178 -775 325 -1634 844 -2903 2300 -3740 4291 -321 763 -578 1635
-709 2403 -28 167 -35 190 -39 152 -3 -25 -42 -1287 -87 -2805 -44 -1518 -82
-2782 -83 -2810 l-2 -49 -129 124 c-569 551 -1182 1291 -1641 1985 -863 1303
-1369 2613 -1512 3912 -9 84 -18 152 -19 150 -2 -1 24 -727 57 -1612 32 -886
59 -1671 59 -1745 1 -102 -108 -1742 -122 -1843 -2 -13 -47 41 -129 155 -547
751 -1045 1554 -1428 2303 -77 151 -110 243 -606 1661 l-524 1501 -25 164
c-28 179 -65 524 -67 616 l-1 58 -10 -40 c-6 -24 -7 -129 -4 -265 6 -201 5
-222 -9 -200 -13 24 -14 21 -15 -49 0 -77 -285 -9810 -295 -10101 -5 -154 -5
-164 11 -145 15 19 16 15 10 -66 -5 -65 -4 -88 6 -96 16 -13 548 -230 938
-383 2116 -831 4050 -1441 5140 -1621 74 -12 138 -25 142 -28 4 -3 3 -123 -2
-266 -5 -143 -7 -261 -5 -264 2 -2 195 -46 427 -97 3300 -731 6782 -1144 9368
-1110 289 4 836 9 1215 12 l690 4 6 43 c3 25 8 36 12 27 11 -26 24 -195 15
-201 -10 -7 -344 -35 -643 -54 -854 -54 -1902 -54 -2925 1 -2053 108 -4430
439 -6790 945 -535 114 -1472 336 -1483 350 -2 2 2 121 9 264 7 143 12 261 10
262 -1 2 -216 56 -477 122 -1545 388 -3013 850 -4139 1301 -85 34 -159 64
-165 66 -12 5 -20 -5097 -10 -6303 l7 -813 104 0 104 0 0 445 c0 245 1 445 3
445 25 -1 2259 -340 2267 -345 6 -4 10 -101 10 -276 l0 -269 100 0 100 0 2
258 c3 222 5 257 18 255 8 -1 92 -11 185 -23 94 -11 554 -77 1023 -147 l852
-127 0 -158 0 -158 105 0 105 0 0 140 c0 113 3 140 14 140 8 0 253 -36 546
-80 293 -44 536 -80 541 -80 5 0 9 -49 9 -110 l0 -110 105 0 105 0 0 100 0
100 1290 0 1290 0 0 -100 0 -100 105 0 105 0 0 100 0 100 1290 0 1290 0 0
-100 0 -100 105 0 105 0 0 100 0 100 1420 0 1420 0 0 -100 0 -100 105 0 105 0
0 100 0 100 1395 0 1395 0 0 -100 0 -100 120 0 120 0 0 105 0 105 1450 0 1450
-1 0 -104 0 -105 155 0 155 0 0 100 0 100 1370 0 1370 0 0 -100 0 -100 105 0
105 0 0 100 0 100 1420 0 1420 0 0 -125 0 -125 100 0 100 0 0 125 0 125 1295
0 1295 0 0 -100 0 -100 105 0 105 0 0 100 0 100 1259 0 c692 0 1273 3 1290 6
l31 7 0 -107 0 -106 105 0 105 0 0 120 c0 66 2 120 4 120 2 0 249 34 549 75
301 41 549 75 552 75 3 0 5 -54 5 -120 l0 -120 105 0 105 0 0 134 0 134 33 6
c17 3 199 28 402 56 204 28 492 69 640 90 149 22 423 60 610 85 187 25 350 47
363 50 l22 5 0 -255 0 -255 105 0 105 0 0 265 c0 203 3 267 13 270 6 3 505 73
1107 155 602 82 1110 152 1128 155 l32 6 0 -426 0 -425 105 0 105 0 0 3516 0
3516 -25 -6 c-20 -5 -25 -3 -25 12 0 17 -25 10 -201 -59 -110 -43 -338 -128
-507 -190 -588 -214 -1719 -580 -1731 -561 -8 13 -200 -42 -214 -61 -7 -9 -75
-34 -152 -56 -463 -132 -1034 -284 -1508 -401 -176 -43 -321 -80 -322 -82 -2
-2 2 -120 9 -263 7 -143 11 -262 10 -264 -12 -14 -942 -234 -1484 -350 -2353
-505 -4734 -836 -6795 -946 -1017 -54 -2067 -54 -2920 0 -299 19 -633 47 -643
54 -5 3 -6 33 -3 66 l6 60 650 -1 c358 0 963 -2 1345 -4 861 -4 1009 3 1910
85 146 13 328 26 405 29 l140 5 -165 -19 c-91 -10 -187 -19 -215 -20 -29 -2
-40 -5 -26 -7 60 -11 1401 109 2031 182 2230 259 3918 565 4850 880 182 62
540 141 551 123 5 -8 21 -7 52 1 66 16 74 14 86 -19 15 -43 23 -37 17 13 -12
94 -18 567 -7 567 5 0 19 -20 30 -45 11 -25 22 -45 25 -45 17 0 418 77 556
106 1301 279 3464 1006 5508 1851 l182 75 -1 72 c0 39 -67 2335 -148 5101 -82
2767 -149 4967 -150 4890 0 -76 15 -1198 34 -2493 20 -1294 34 -2408 33 -2475
-2 -67 -30 891 -64 2128 -55 2024 -60 2267 -49 2415 31 408 46 786 43 1075
l-3 300 -13 -165z m95 -6167 c-1 -43 -3 -10 -3 72 0 83 2 118 3 78 2 -40 2
-107 0 -150z m-3090 -156 c-1 -45 -3 -5 -3 88 0 94 2 130 3 82 2 -48 2 -125 0
-170z m3153 -4209 c0 -96 -2 -108 -19 -118 -18 -9 -20 -5 -25 73 -3 45 -7 170
-10 277 l-4 195 29 -160 c19 -109 28 -194 29 -267z m-8653 -3264 c-3 -3 -12
-4 -19 -1 -8 3 -5 6 6 6 11 1 17 -2 13 -5z m-54 -11 c-7 -2 -19 -2 -25 0 -7 3
-2 5 12 5 14 0 19 -2 13 -5z m-50 -10 c-7 -2 -19 -2 -25 0 -7 3 -2 5 12 5 14
0 19 -2 13 -5z m-103 -19 c-247 -50 -1191 -205 -1238 -203 -24 1 1247 216
1278 216 14 1 -4 -5 -40 -13z m-1267 -211 c-7 -2 -21 -2 -30 0 -10 3 -4 5 12
5 17 0 24 -2 18 -5z m-80 -10 c-7 -2 -19 -2 -25 0 -7 3 -2 5 12 5 14 0 19 -2
13 -5z m-66 -9 c-3 -3 -12 -4 -19 -1 -8 3 -5 6 6 6 11 1 17 -2 13 -5z m-2984
-421 c-7 -2 -19 -2 -25 0 -7 3 -2 5 12 5 14 0 19 -2 13 -5z"/>
<path d="M31803 20423 c15 -2 37 -2 50 0 12 2 0 4 -28 4 -27 0 -38 -2 -22 -4z"/>
<path d="M31683 20413 c9 -2 23 -2 30 0 6 3 -1 5 -18 5 -16 0 -22 -2 -12 -5z"/>
</g>
</svg>
