<?xml version="1.0" standalone="no"?>
<!DOCTYPE svg PUBLIC "-//W3C//DTD SVG 20010904//EN"
 "http://www.w3.org/TR/2001/REC-SVG-20010904/DTD/svg10.dtd">
<svg version="1.0" xmlns="http://www.w3.org/2000/svg"
 width="736.000000pt" height="1288.000000pt" viewBox="0 0 736.000000 1288.000000"
 preserveAspectRatio="xMidYMid meet">

<g transform="translate(0.000000,1288.000000) scale(0.100000,-0.100000)"
fill="#000000" stroke="none">
<path d="M0 12834 c0 -44 1 -45 28 -43 38 3 141 -12 147 -21 5 -8 -66 -6 -142
3 l-33 4 0 -317 0 -317 51 11 c49 10 78 3 86 -20 7 -24 -17 -36 -76 -37 l-61
0 0 -33 c0 -25 4 -32 14 -28 19 7 73 -22 81 -43 3 -10 28 -29 54 -42 27 -13
55 -34 62 -47 9 -18 21 -24 44 -24 18 0 54 -3 81 -6 l49 -6 -30 26 c-16 15
-43 34 -60 43 -16 8 -49 33 -72 55 -40 36 -41 38 -15 32 15 -4 31 -11 36 -15
6 -5 21 -9 34 -9 17 0 26 -8 33 -30 6 -16 16 -30 23 -30 7 0 21 -8 32 -19 11
-10 30 -24 42 -30 12 -6 22 -18 22 -25 0 -17 24 -37 64 -52 176 -67 243 -97
254 -111 21 -28 14 -32 -25 -12 -21 10 -45 19 -56 19 -10 0 -35 9 -56 20 -73
37 -250 96 -326 110 -27 4 -77 25 -110 45 -33 19 -71 38 -85 42 -14 3 -40 17
-57 30 l-33 24 0 -66 c0 -36 4 -64 9 -61 23 15 29 -80 6 -110 -12 -16 -14
-182 -15 -1235 l0 -1216 54 -6 c55 -5 143 -52 176 -92 18 -22 23 -23 -114 24
-49 17 -95 31 -103 31 -11 0 -13 -766 -13 -4625 l0 -4625 60 0 c53 0 60 2 60
20 0 11 9 25 20 32 11 7 20 18 20 24 0 7 7 14 15 18 8 3 20 17 25 30 12 32 63
43 134 28 70 -14 83 -12 95 16 10 21 16 23 54 19 71 -10 157 -31 157 -39 0 -4
13 -8 30 -8 40 0 140 -27 159 -43 9 -8 38 -24 64 -36 38 -17 52 -19 63 -10 12
10 13 6 8 -20 -6 -29 -5 -31 25 -31 17 0 31 2 31 5 0 14 -68 75 -83 75 -10 0
-15 5 -12 11 4 6 -2 19 -14 30 -12 11 -21 24 -21 29 0 4 17 26 38 48 27 30 46
41 72 44 l35 3 -35 32 c-24 23 -36 29 -41 21 -6 -9 -10 -8 -15 5 -3 9 -16 17
-28 17 -33 0 -78 62 -55 76 6 3 33 7 61 9 42 2 51 0 55 -16 3 -11 17 -22 32
-25 14 -4 34 -14 44 -22 16 -14 16 -17 2 -38 -9 -14 -15 -47 -15 -82 0 -58 1
-59 37 -78 21 -10 39 -22 41 -25 2 -4 11 -5 21 -2 26 7 35 -13 32 -69 l-2 -48
3084 0 c2384 0 3086 3 3095 12 9 9 12 948 12 4166 l0 4154 -30 -7 c-23 -5 -30
-3 -30 9 0 9 -4 16 -9 16 -9 0 -23 41 -17 48 2 1 11 -4 20 -13 15 -15 17 -14
26 10 5 14 10 31 10 36 0 15 -17 10 -24 -6 -3 -8 -9 -15 -13 -14 -36 6 -43
-22 -18 -71 19 -36 4 -40 -19 -5 -18 27 -22 125 -6 125 6 0 10 -6 8 -14 -2 -8
0 -15 5 -15 21 -2 27 0 27 10 0 5 -5 7 -12 3 -7 -5 -8 -3 -3 5 4 8 18 11 33 8
56 -11 52 -84 52 1119 -1 644 -5 1116 -10 1119 -5 3 -9 13 -9 23 -4 116 -9
143 -34 181 -33 50 -33 53 -1 41 58 -22 54 -79 52 767 -3 689 -5 778 -18 781
-9 1 -48 -27 -88 -63 -59 -53 -79 -65 -105 -64 -32 1 -32 1 10 16 28 9 56 31
84 64 23 28 59 59 80 70 l39 19 0 175 0 175 -173 0 -172 0 -41 -52 c-59 -76
-125 -111 -285 -152 -74 -19 -169 -51 -209 -71 -41 -19 -86 -35 -100 -35 -30
0 -98 -31 -125 -56 -11 -11 -44 -36 -72 -57 -29 -21 -56 -45 -60 -52 -5 -7
-33 -41 -63 -76 -30 -34 -67 -81 -82 -103 -15 -23 -32 -42 -38 -42 -5 -1 -17
-2 -25 -3 -9 0 -27 -13 -40 -27 -14 -15 -25 -21 -25 -15 0 7 -4 10 -9 7 -5 -4
-15 7 -22 24 l-14 29 -20 -64 -21 -65 -21 28 c-43 59 -89 406 -49 373 8 -6 19
-25 26 -41 14 -33 40 -39 60 -15 7 8 19 15 26 15 16 0 19 -26 4 -35 -5 -3 -10
-13 -10 -22 0 -14 3 -14 20 2 11 10 20 23 20 30 0 7 9 20 20 30 11 10 20 22
20 26 0 17 35 49 53 49 10 0 33 11 51 25 18 14 45 25 59 25 30 0 33 -6 13 -29
-7 -9 -17 -26 -20 -37 -6 -18 -3 -21 18 -17 16 3 23 10 19 19 -3 8 1 14 11 14
9 0 15 4 13 8 -4 16 75 83 139 117 36 19 71 40 78 47 8 7 26 22 42 33 35 26
54 44 54 54 0 10 -97 -5 -170 -25 -47 -14 -164 -75 -180 -94 -3 -3 -23 -19
-45 -35 -22 -16 -52 -40 -67 -54 -22 -20 -28 -21 -28 -8 0 8 21 34 48 56 62
52 193 141 209 141 6 0 15 5 19 11 5 8 -1 10 -20 7 -17 -4 -25 -1 -23 6 2 6
13 10 23 9 11 -1 6 4 -11 12 -16 8 -24 14 -17 15 19 0 14 20 -5 20 -14 0 -14
3 -5 12 8 8 54 14 128 17 91 2 127 -1 174 -15 56 -18 78 -34 46 -34 -8 0 -17
-4 -21 -9 -3 -6 9 -5 27 1 18 6 62 13 98 17 42 4 78 14 103 29 20 13 37 26 37
28 0 2 -24 4 -54 4 -44 0 -55 -4 -59 -17 -4 -17 -5 -17 -6 0 -1 21 -21 23 -21
2 0 -8 -4 -15 -10 -15 -5 0 -10 7 -10 15 0 11 -11 15 -37 15 -35 0 -36 0 -18
-20 10 -11 14 -20 8 -20 -5 0 -18 9 -28 20 -18 20 -31 20 -739 20 l-721 0 -35
-61 c-19 -33 -40 -69 -46 -80 -6 -10 -19 -28 -28 -38 -18 -20 -18 -20 -50 2
-17 12 -33 23 -34 24 -2 1 5 14 16 30 16 22 19 37 14 73 l-7 45 -1033 3
c-1022 2 -1033 2 -1060 -18 -24 -18 -39 -20 -140 -17 -61 2 -112 3 -112 2 0
-2 28 -8 63 -14 93 -16 266 -113 267 -149 0 -14 -38 -9 -77 10 -36 18 -40 0
-8 -27 17 -13 34 -24 38 -25 13 0 63 -50 51 -50 -7 0 -28 7 -49 16 -20 8 -34
10 -30 5 3 -6 12 -11 18 -11 11 0 47 -34 47 -43 0 -2 -13 -2 -30 1 -40 6 -38
-10 5 -55 19 -20 35 -39 35 -43 0 -11 -23 -30 -37 -30 -20 0 -85 107 -78 129
4 14 -9 32 -51 70 -50 46 -85 67 -69 41 20 -32 -64 2 -210 85 -60 34 -126 68
-146 74 -20 7 -45 21 -54 31 -16 18 -32 20 -157 20 l-139 0 22 -31 c19 -27 20
-35 10 -51 -7 -11 -10 -22 -7 -25 3 -3 41 -9 83 -13 96 -9 108 -14 111 -44 1
-17 -7 -28 -33 -42 -33 -17 -45 -33 -27 -35 4 0 23 -2 41 -4 26 -2 31 -1 18 7
-9 5 -17 17 -17 26 1 15 2 15 13 2 7 -8 28 -26 48 -39 l36 -24 -25 -29 c-22
-24 -27 -26 -34 -13 -13 22 -28 19 -23 -5 2 -11 -1 -20 -6 -20 -13 0 -120 86
-136 110 -7 10 -35 26 -63 36 -79 28 -90 56 -29 69 16 4 28 12 26 18 -5 17
-54 18 -68 1 -6 -8 -16 -14 -21 -14 -5 0 -36 27 -70 60 l-62 60 -87 0 c-65 0
-92 -4 -103 -15 -18 -19 -35 -19 -60 0 -29 22 -60 20 -53 -4 4 -17 -4 -19 -87
-23 -62 -3 -106 -12 -139 -26 -26 -11 -47 -18 -47 -14 0 4 25 24 56 45 l57 37
-457 0 c-286 0 -456 -4 -456 -10 0 -14 35 -30 66 -30 21 0 25 -3 17 -11 -16
-16 -60 -3 -87 26 -13 14 -31 25 -41 25 -14 0 -13 -5 9 -31 27 -32 33 -49 16
-49 -5 0 -10 -7 -10 -16 0 -13 -3 -14 -27 0 -16 8 -64 27 -108 42 -43 15 -73
30 -66 32 15 5 150 -35 169 -51 21 -17 26 2 6 24 -32 36 -77 49 -174 49 l-90
0 0 -46z m638 -20 c22 -15 22 -17 6 -35 -9 -10 -22 -15 -28 -11 -6 4 -19 7
-28 7 -10 0 -17 5 -15 10 1 6 7 9 13 9 6 -1 9 7 7 17 -7 24 14 25 45 3z m1022
-15 c8 -4 33 -26 55 -48 l39 -41 -35 0 c-58 0 -152 71 -133 101 5 9 46 3 74
-12z m-265 -9 c3 -6 17 -7 31 -4 30 8 74 -19 74 -45 0 -13 -11 -23 -35 -31
-40 -13 -55 -7 -55 21 0 16 -5 19 -20 14 -11 -3 -44 -8 -73 -10 -93 -7 -144
-19 -127 -30 14 -9 144 -25 214 -25 28 -1 28 -2 22 -41 -4 -26 -2 -46 5 -55
21 -25 2 -47 -36 -42 l-35 4 40 -41 c22 -22 40 -44 40 -48 0 -16 -46 -5 -101
23 -33 16 -59 26 -59 22 0 -5 16 -24 36 -43 37 -34 84 -119 84 -151 0 -26 -36
-23 -55 5 -16 21 -93 138 -106 161 -4 6 -16 34 -28 61 -12 28 -26 58 -32 68
-24 44 -29 55 -48 98 -28 61 -27 74 4 53 23 -15 29 -15 97 10 106 37 152 44
163 26z m-875 -24 c0 -8 7 -22 16 -30 8 -9 12 -20 9 -26 -9 -15 -25 -12 -25 4
0 8 -7 22 -16 30 -8 9 -12 20 -9 26 9 15 25 12 25 -4z m-470 -16 c0 -5 -7 -10
-15 -10 -8 0 -15 5 -15 10 0 6 7 10 15 10 8 0 15 -4 15 -10z m4260 -80 c0 -5
-6 -10 -14 -10 -8 0 -18 5 -21 10 -3 6 3 10 14 10 12 0 21 -4 21 -10z m-3897
-24 c-10 -13 -26 -29 -36 -35 -17 -11 -17 -11 -1 14 14 21 40 43 52 45 2 0 -5
-11 -15 -24z m4057 9 c0 -9 -6 -12 -15 -9 -8 4 -15 10 -15 15 0 5 7 9 15 9 8
0 15 -7 15 -15z m55 5 c-3 -5 -10 -10 -16 -10 -5 0 -9 5 -9 10 0 6 7 10 16 10
8 0 12 -4 9 -10z m-2766 -13 c17 -22 -25 -52 -99 -71 -71 -19 -161 -18 -167 1
-9 26 138 80 223 82 17 1 37 -5 43 -12z m-1053 -37 c24 -12 41 -26 38 -33 -10
-23 -97 -80 -138 -90 -23 -6 -45 -16 -49 -23 -9 -16 -76 -49 -83 -41 -3 3 5
11 18 19 82 46 119 78 88 78 -19 0 -126 -43 -152 -62 -35 -24 -36 -9 -1 43 15
23 29 60 32 82 6 42 6 42 56 48 74 10 142 2 191 -21z m1221 6 c31 -8 61 -29
113 -80 39 -38 68 -71 65 -74 -3 -3 -13 2 -23 11 -10 10 -22 17 -26 17 -4 0
-20 8 -34 19 -46 32 -142 81 -142 72 0 -11 51 -75 116 -143 60 -64 68 -84 27
-62 -37 19 -41 18 -45 -8 -3 -20 -10 -13 -50 42 -89 122 -101 136 -94 113 5
-15 -1 -34 -17 -60 -14 -22 -35 -62 -47 -90 -12 -28 -31 -60 -42 -70 -19 -17
-19 -17 -12 12 4 17 18 52 32 80 29 58 62 168 62 206 0 42 6 43 117 15z m2480
-12 c-9 -9 -28 6 -21 18 4 6 10 6 17 -1 6 -6 8 -13 4 -17z m-47 -13 c0 -17
-18 -21 -24 -6 -3 9 0 15 9 15 8 0 15 -4 15 -9z m-3967 -174 l56 -49 50 17
c57 19 150 64 199 95 26 18 32 19 32 6 0 -8 -15 -26 -33 -40 -37 -28 -180 -96
-203 -96 -23 0 -16 -18 9 -22 12 -2 22 -8 22 -15 0 -7 24 -35 53 -63 40 -38
60 -50 85 -51 43 0 189 -51 195 -66 5 -16 -61 -18 -90 -2 -11 6 -22 8 -25 5
-4 -3 9 -12 28 -21 33 -14 79 -48 79 -58 0 -8 -142 63 -169 84 -13 11 -28 19
-34 19 -17 0 42 -58 114 -111 36 -27 71 -60 77 -73 12 -27 5 -66 -12 -66 -6 0
-47 39 -91 87 -44 48 -123 132 -175 188 -52 55 -106 116 -119 135 -13 19 -50
58 -83 85 -59 50 -98 100 -98 126 0 7 17 -5 38 -26 21 -22 63 -62 95 -88z
m1287 74 c0 -13 -29 -35 -37 -28 -7 8 15 37 28 37 5 0 9 -4 9 -9z m-1485 -151
c-3 -5 -13 -10 -21 -10 -8 0 -14 5 -14 10 0 6 9 10 21 10 11 0 17 -4 14 -10z
m122 -15 c40 -20 49 -69 23 -129 -20 -47 -55 -86 -77 -86 -10 0 -11 5 -4 18
11 20 4 62 -9 62 -20 0 -20 43 -1 76 12 19 21 39 21 44 0 13 -41 -1 -47 -16
-6 -15 -33 -19 -33 -5 0 8 38 29 80 44 8 3 15 6 16 6 0 1 15 -6 31 -14z m418
-30 c19 -4 75 -95 59 -95 -4 0 -22 9 -40 21 -19 11 -34 17 -34 13 0 -4 -6 -1
-12 8 -7 8 -34 21 -60 29 -46 13 -55 19 -43 31 5 5 93 0 130 -7z m200 -195 c0
-9 -7 -14 -19 -12 -11 2 -15 -1 -11 -7 3 -6 13 -11 21 -11 8 0 14 -4 14 -10 0
-16 -18 -12 -38 8 -23 23 -17 54 11 50 12 -2 22 -10 22 -18z m5 -133 c0 -20
-32 -47 -55 -47 -10 0 -4 47 7 58 21 21 48 14 48 -11z m-327 -24 c-7 -2 -19
-2 -25 0 -7 3 -2 5 12 5 14 0 19 -2 13 -5z m562 -74 c11 -4 38 -24 60 -44 l39
-36 -44 4 c-24 2 -46 9 -48 16 -2 6 -12 11 -23 11 -24 0 -73 46 -64 60 6 10
38 5 80 -11z m-1042 -26 c-7 -2 -19 -2 -25 0 -7 3 -2 5 12 5 14 0 19 -2 13 -5z
m937 -52 c0 -10 -22 -31 -32 -31 -9 0 -11 34 -2 43 7 7 34 -2 34 -12z m155
-98 c35 -17 46 -33 23 -33 -14 1 -78 50 -66 50 4 0 23 -8 43 -17z m199 -299
c9 -3 16 -12 16 -20 0 -21 -28 -17 -40 6 -11 21 -4 25 24 14z m5265 -321 c50
-33 41 -49 -27 -46 -39 1 -52 -3 -74 -24 -16 -15 -28 -30 -28 -34 0 -4 30 1
68 12 38 11 110 21 167 24 86 4 93 3 50 -6 -27 -5 -83 -16 -123 -24 -77 -16
-162 -52 -222 -94 -52 -37 -100 -83 -95 -92 5 -7 -16 -22 -164 -114 -94 -58
-103 -79 -38 -92 31 -7 41 -13 39 -25 -2 -13 8 -18 43 -23 49 -8 74 3 124 54
44 44 121 104 127 98 3 -3 -4 -15 -16 -27 -38 -38 -90 -128 -90 -156 0 -15 -7
-35 -15 -44 -9 -10 -16 -41 -18 -78 -3 -51 0 -62 12 -62 28 0 62 -62 55 -98
-4 -20 -2 -38 6 -47 7 -9 8 -15 2 -15 -16 0 -30 -124 -18 -172 16 -69 -79 -5
-171 114 -96 125 -168 335 -179 522 -6 103 -5 117 20 191 44 130 61 157 114
183 68 32 72 28 19 -20 -48 -44 -110 -132 -100 -142 4 -3 27 13 53 37 72 66
93 82 141 108 24 13 46 26 49 29 11 11 57 30 97 40 23 6 48 17 56 24 13 13 39
21 79 25 9 0 35 -11 57 -26z m92 6 c20 -20 20 -37 0 -24 -13 7 -34 45 -26 45
3 0 14 -9 26 -21z m401 -255 c14 -29 24 -61 48 -159 24 -94 24 -101 -2 -121
-13 -10 -33 -36 -46 -57 -12 -21 -47 -69 -78 -107 -56 -70 -81 -92 -50 -45 22
34 6 31 -32 -5 -18 -16 -39 -30 -47 -30 -8 0 -15 -3 -15 -7 0 -5 -14 -16 -30
-25 -38 -22 -38 -7 -1 40 37 46 62 93 55 104 -7 11 -24 10 -24 -2 0 -11 -10
-24 -42 -61 -10 -10 -18 -23 -18 -29 0 -13 -97 -110 -103 -104 -3 3 -19 -2
-37 -11 -18 -9 -35 -13 -38 -9 -4 4 -1 9 6 11 6 3 12 11 12 19 0 46 138 260
140 217 0 -8 15 -13 40 -13 32 0 40 4 40 18 0 29 10 32 33 11 11 -10 26 -19
33 -19 6 0 24 27 40 60 16 33 34 60 40 60 6 0 23 39 39 86 27 82 28 89 16 143
-7 31 -15 85 -17 121 l-4 65 14 -61 c8 -34 21 -75 28 -90z m-2129 68 c16 -14
19 -14 38 7 22 23 25 22 71 -19 9 -8 24 -21 33 -28 15 -12 14 -16 -7 -36 -32
-32 -108 -123 -108 -131 0 -3 10 -9 23 -14 22 -9 22 -9 -5 -21 -27 -13 -32
-23 -29 -65 2 -27 -59 -90 -95 -99 -38 -10 -51 6 -36 47 14 38 16 67 5 67 -5
0 -33 -7 -63 -15 -30 -8 -68 -15 -83 -15 -46 0 -26 23 24 27 56 5 71 19 35 33
-15 5 -33 10 -40 10 -6 0 -26 12 -44 28 -28 23 -33 34 -34 77 -2 52 -2 51 60
118 10 11 25 16 37 13 11 -3 45 6 75 20 60 26 111 25 143 -4z m1960 16 c-6 -7
-14 -31 -17 -53 -12 -63 -87 -269 -132 -356 -23 -47 -44 -57 -44 -23 0 18 -99
-85 -100 -103 0 -7 -4 -13 -10 -13 -5 0 -10 -7 -10 -16 0 -26 -38 -71 -66 -78
-15 -4 -28 -5 -31 -3 -6 7 58 128 79 151 22 24 24 43 3 26 -28 -23 -27 -3 5
78 21 55 46 98 76 132 50 54 45 66 -8 23 -35 -30 -173 -172 -206 -212 -29 -38
-54 -22 -47 30 6 49 8 52 65 119 48 57 199 178 270 217 25 13 72 40 105 58 63
36 84 43 68 23z m-5146 -71 c18 -10 30 -23 27 -28 -3 -5 -12 -2 -21 6 -8 9
-28 19 -44 22 -15 3 -36 14 -45 24 -17 18 -16 19 17 7 19 -6 49 -20 66 -31z
m-421 -219 c-25 -34 -46 -58 -46 -54 0 13 33 70 59 103 46 58 34 15 -13 -49z
m290 -22 c31 -23 7 -51 -44 -51 -31 0 -48 -7 -71 -29 -44 -42 -38 -17 9 43 43
54 70 63 106 37z m5604 0 c0 -3 -4 -8 -10 -11 -5 -3 -10 -1 -10 4 0 6 5 11 10
11 6 0 10 -2 10 -4z m-5340 -26 c0 -5 -12 -10 -27 -10 -22 0 -25 2 -13 10 20
13 40 13 40 0z m4921 -17 c-12 -20 -14 -14 -5 12 4 9 9 14 11 11 3 -2 0 -13
-6 -23z m-11 -48 c0 -15 -6 -25 -15 -25 -12 0 -13 4 -3 25 6 14 13 25 15 25 1
0 3 -11 3 -25z m298 -35 c-7 -10 -14 -17 -17 -15 -4 4 18 35 25 35 2 0 -1 -9
-8 -20z m-4823 -32 c35 0 65 -29 85 -84 10 -26 10 -26 -22 -21 -18 3 -60 9
-93 13 -33 3 -67 12 -75 19 -30 24 -111 32 -210 19 -52 -7 -113 -13 -134 -13
-64 -1 -29 19 71 41 80 18 317 39 336 30 5 -2 23 -4 42 -4z m165 -274 c36 -82
33 -85 -63 -63 -69 15 -120 18 -295 16 -158 -1 -214 1 -224 11 -8 8 -9 15 -1
23 28 28 235 57 420 58 l142 1 21 -46z m-1290 -194 c0 -5 -5 -10 -11 -10 -5 0
-7 5 -4 10 3 6 8 10 11 10 2 0 4 -4 4 -10z m162 -165 c-3 -159 12 -230 67
-335 67 -125 67 -129 -4 -80 -48 33 -50 37 -84 195 -18 84 -18 95 -4 165 16
73 13 120 -12 195 -3 11 4 2 16 -20 19 -33 23 -54 21 -120z m4494 140 c4 -8
15 -15 26 -15 10 0 17 -4 14 -9 -4 -5 -3 -17 0 -26 5 -13 14 -15 36 -11 21 4
27 2 21 -7 -4 -6 -6 -33 -5 -59 1 -32 -4 -53 -17 -69 -21 -26 -41 -18 -41 17
0 13 -4 24 -10 24 -5 0 -11 12 -11 28 -1 17 -3 21 -6 9 -4 -15 -7 -16 -19 -6
-21 17 -64 -7 -64 -36 0 -16 -13 -27 -52 -45 -29 -13 -65 -37 -80 -53 -16 -16
-28 -24 -28 -18 0 6 -4 11 -9 11 -6 0 -4 -12 4 -26 12 -24 12 -29 -7 -44 -19
-15 -20 -19 -7 -56 11 -32 14 -35 17 -16 2 12 10 22 19 22 8 0 17 9 20 20 3
11 11 20 18 20 7 0 15 5 17 12 2 6 12 9 21 5 16 -6 16 -9 2 -43 -21 -50 -20
-51 23 -61 27 -6 38 -14 40 -31 3 -16 -2 -22 -16 -22 -22 0 -37 -47 -21 -67 7
-8 5 -14 -4 -20 -18 -10 -37 -67 -37 -110 0 -18 -6 -35 -12 -37 -7 -2 -32 -9
-55 -16 l-42 -13 41 -37 c42 -37 42 -37 59 -16 14 17 19 18 33 7 20 -17 21
-31 1 -31 -19 0 -56 -31 -49 -42 8 -12 24 -10 24 5 0 12 44 37 67 37 7 0 13 8
13 18 0 14 2 14 9 3 6 -10 2 -22 -14 -39 -13 -14 -26 -40 -29 -57 -4 -20 -14
-35 -25 -38 -15 -3 -20 -19 -25 -77 -8 -82 4 -113 26 -64 17 40 18 40 28 24
24 -38 1 -140 -31 -140 -10 0 -20 -4 -20 -10 -1 -5 -3 -14 -4 -20 -1 -5 -3
-13 -4 -17 0 -4 -5 -3 -10 2 -6 6 -37 8 -70 7 -49 -3 -60 -7 -64 -24 -4 -14 4
-28 27 -49 19 -16 62 -65 97 -110 58 -73 64 -86 64 -128 0 -45 1 -46 33 -49
17 -2 32 -8 32 -14 0 -5 6 -8 14 -5 13 5 55 -15 151 -72 16 -9 32 -28 35 -42
4 -16 8 -20 14 -11 12 19 26 4 18 -19 -8 -21 8 -109 19 -109 4 0 5 -9 2 -19
-7 -28 34 -39 52 -14 16 20 14 39 -4 35 -13 -3 -14 10 -2 24 5 5 11 20 13 34
l4 25 6 -25 c15 -62 28 -176 28 -235 l0 -65 -25 16 c-23 15 -25 15 -25 0 0 -9
-4 -16 -10 -16 -16 0 -11 -33 10 -60 11 -14 20 -34 20 -46 0 -11 9 -29 19 -38
19 -17 20 -17 31 3 12 23 30 20 30 -5 0 -8 -7 -14 -15 -14 -11 0 -15 -10 -14
-32 1 -24 3 -27 6 -10 5 26 25 29 44 6 10 -13 10 -23 -4 -62 -10 -26 -17 -61
-17 -79 0 -17 -4 -35 -10 -38 -5 -3 -10 -32 -10 -64 0 -49 4 -61 26 -80 31
-27 25 -53 -22 -97 -32 -29 -34 -35 -31 -88 1 -31 5 -56 8 -56 4 0 23 7 43 15
24 10 62 15 109 13 40 -1 92 1 116 4 l44 7 -59 -57 c-60 -58 -103 -92 -116
-92 -24 0 10 44 72 92 22 17 29 28 19 28 -9 0 -44 -22 -78 -50 -34 -27 -64
-50 -67 -50 -13 0 0 25 32 60 l36 40 -28 0 c-16 0 -63 -12 -106 -27 -68 -24
-77 -30 -73 -48 5 -18 5 -18 -5 -2 -6 9 -17 17 -25 17 -12 0 -12 -6 1 -36 14
-33 14 -35 -3 -31 -54 15 -75 16 -94 6 -11 -6 -18 -13 -15 -17 7 -7 49 -13 94
-13 20 0 32 -5 32 -14 0 -22 13 -25 59 -14 52 12 66 3 76 -47 3 -20 9 -43 12
-51 4 -11 2 -14 -5 -9 -7 4 -12 1 -12 -9 0 -9 5 -13 10 -10 6 4 10 -8 10 -30
0 -20 5 -45 11 -56 17 -32 51 -207 56 -285 4 -59 1 -74 -13 -89 -13 -13 -18
-34 -19 -79 0 -64 10 -174 20 -222 5 -21 4 -25 -3 -15 -8 11 -14 7 -27 -19 -9
-18 -12 -29 -6 -26 6 4 11 2 11 -5 0 -7 6 -4 14 6 13 18 14 17 13 -18 -1 -24
-6 -37 -15 -37 -7 0 -12 -6 -9 -12 2 -7 10 -12 16 -11 15 4 13 -8 -4 -31 -19
-25 -19 -40 -1 -33 11 4 13 -3 9 -33 -4 -28 0 -49 15 -73 24 -41 39 -132 23
-142 -6 -3 -11 -15 -11 -27 0 -20 -60 -88 -78 -88 -14 0 -49 -112 -42 -139 9
-40 28 -36 32 6 2 31 7 39 25 41 17 3 26 -4 33 -23 6 -15 19 -29 30 -32 16 -4
17 -7 5 -19 -16 -17 -29 -19 -19 -3 4 7 -1 10 -12 7 -11 -2 -20 -13 -22 -26
-2 -12 -10 -22 -17 -22 -21 0 -28 -19 -15 -35 7 -8 9 -15 6 -15 -4 0 -4 -5 0
-11 4 -8 9 -7 16 2 6 10 7 4 3 -16 -4 -16 -12 -79 -18 -140 -10 -91 -15 -110
-29 -113 -10 -2 -18 -12 -18 -24 0 -15 -4 -18 -17 -14 -10 4 -14 4 -11 0 4 -4
2 -16 -4 -28 -7 -11 -14 -37 -17 -56 -5 -26 -12 -36 -29 -38 -12 -2 -22 2 -22
8 0 6 -4 9 -9 6 -5 -3 -7 -15 -4 -27 7 -27 -31 -100 -76 -145 -20 -19 -36 -39
-37 -42 -3 -25 -29 -67 -59 -96 -33 -32 -95 -145 -95 -173 0 -7 -11 -20 -25
-29 -14 -9 -25 -24 -25 -34 0 -10 -7 -23 -15 -30 -8 -7 -15 -18 -15 -24 0 -7
-9 -29 -20 -51 -11 -22 -20 -43 -20 -47 0 -4 -9 -17 -21 -29 -12 -12 -19 -29
-16 -39 3 -10 -2 -28 -9 -39 -11 -15 -13 -41 -8 -108 9 -146 1 -331 -16 -343
-4 -3 -10 -22 -13 -43 -4 -27 -2 -37 7 -37 8 0 16 -17 20 -39 3 -22 12 -41 18
-44 10 -3 10 -9 -1 -30 -7 -14 -11 -33 -7 -42 3 -9 -3 -34 -14 -55 -11 -22
-20 -55 -20 -75 0 -36 -7 -41 -53 -37 -10 1 -31 -5 -47 -13 -36 -19 -40 -19
-40 0 0 8 -4 15 -10 15 -5 0 -10 -11 -10 -25 0 -22 -4 -25 -40 -25 -25 0 -40
5 -41 13 0 6 -6 1 -12 -12 -9 -19 -9 -25 1 -29 6 -2 12 -9 12 -15 0 -8 -3 -8
-11 0 -6 6 -18 9 -25 6 -9 -3 -18 5 -24 23 -12 33 -58 60 -74 44 -7 -7 -7 -17
2 -30 6 -11 12 -21 12 -24 0 -4 -56 -19 -77 -20 -6 -1 -15 -5 -19 -9 -13 -12
-34 -8 -34 8 0 8 5 15 10 15 21 0 9 18 -16 24 -20 5 -32 2 -45 -13 -22 -24
-24 -32 -5 -25 10 4 15 -11 21 -60 3 -36 4 -70 0 -76 -11 -18 -42 -10 -53 15
-6 13 -25 31 -42 40 -17 9 -30 23 -29 33 1 16 2 16 6 -1 9 -35 33 -19 33 23 0
22 5 40 10 40 6 0 10 12 10 26 0 26 -1 26 -47 19 -56 -8 -63 -11 -63 -31 0 -8
-4 -14 -10 -14 -26 0 -2 -71 28 -81 10 -3 9 -9 -2 -24 -15 -20 -15 -20 -16 3
0 12 -4 22 -10 22 -5 0 -10 -7 -10 -15 0 -19 -19 -19 -44 0 -16 12 -18 19 -8
40 10 22 9 25 -7 25 -11 0 -21 -9 -25 -22 l-6 -23 -19 24 c-19 25 -41 22 -42
-7 0 -15 -1 -15 -7 1 -7 15 -10 16 -27 3 -17 -12 -22 -12 -43 2 -22 14 -23 14
-29 -6 -7 -29 -21 -28 -25 1 -5 34 -21 24 -46 -28 -17 -36 -26 -45 -32 -35 -6
10 -13 4 -26 -23 -12 -25 -23 -36 -32 -32 -8 3 -23 -2 -34 -12 -10 -9 -26 -18
-34 -19 -21 -3 -45 -25 -38 -35 3 -5 -6 -14 -20 -21 -22 -9 -29 -8 -45 6 -11
10 -43 20 -73 23 -52 5 -56 4 -86 -28 -25 -27 -29 -36 -19 -48 10 -12 7 -13
-23 -8 -19 3 -29 3 -22 0 25 -10 11 -30 -36 -46 -26 -9 -55 -17 -64 -17 -10 0
-18 -4 -18 -10 0 -5 -15 -10 -32 -10 -51 0 -75 -5 -91 -18 -8 -7 -25 -11 -38
-10 -20 3 -24 -1 -21 -23 2 -23 -1 -25 -43 -28 -28 -1 -45 2 -45 9 0 7 -8 9
-20 5 -23 -7 -27 10 -5 23 20 11 9 42 -14 42 -12 0 -17 8 -16 28 0 23 -4 27
-25 24 -13 -1 -34 -12 -47 -24 -20 -19 -26 -20 -67 -8 -39 11 -46 17 -53 48
-10 42 -21 49 -95 57 -41 5 -58 11 -58 21 0 8 -7 14 -15 14 -20 0 -65 29 -65
42 0 17 -28 38 -43 32 -8 -3 -18 0 -22 5 -3 6 -10 9 -15 6 -4 -3 -15 7 -25 21
-11 18 -23 24 -36 21 -10 -3 -19 -2 -19 2 0 4 -16 13 -35 21 -19 8 -35 17 -35
21 0 3 -17 9 -37 13 -21 3 -51 17 -66 32 -24 22 -39 27 -85 28 -32 0 -59 3
-62 6 -8 8 -79 36 -135 53 -28 9 -49 20 -47 27 4 19 -17 38 -49 45 -16 4 -27
10 -25 13 2 4 -14 15 -36 24 -33 15 -39 15 -34 3 5 -13 0 -13 -27 1 -29 16
-30 18 -12 26 17 7 16 8 -5 3 -27 -5 -71 25 -82 56 -4 11 -25 18 -70 23 -38 3
-67 12 -74 21 -13 17 -76 20 -105 5 -24 -13 -25 -39 -1 -38 9 1 35 -7 57 -16
l40 -18 -49 -18 c-53 -21 -66 -19 -66 10 0 23 -19 30 -86 30 -47 0 -54 3 -52
17 2 10 -3 17 -9 15 -17 -3 -17 15 0 22 6 3 2 3 -10 0 -15 -3 -22 0 -25 13 -4
24 -124 28 -151 5 -10 -9 -36 -15 -62 -15 -24 0 -42 -4 -40 -8 3 -4 -12 -15
-33 -24 -20 -10 -41 -20 -45 -23 -5 -2 -4 5 2 16 9 17 7 21 -19 32 -28 11 -29
14 -32 91 -2 43 1 79 6 79 14 0 -3 144 -20 156 -12 10 -12 17 2 55 8 24 13 59
10 77 -3 23 -1 32 10 32 16 0 19 26 4 35 -6 3 -10 26 -10 50 0 24 -4 46 -9 49
-4 3 -11 25 -15 48 -4 23 -12 48 -17 55 -8 9 -5 15 15 24 31 14 34 48 7 73
-16 15 -19 15 -31 1 -10 -12 -9 -15 6 -15 18 -1 18 -1 0 -15 -11 -8 -24 -15
-28 -15 -12 0 -4 60 12 89 7 15 10 40 6 67 -3 28 0 56 10 81 9 21 16 38 15 38
-1 0 1 19 5 42 4 27 18 53 40 77 27 29 34 44 34 76 0 28 4 40 14 40 10 0 12 7
8 22 -3 14 -1 19 6 14 6 -3 24 7 41 23 30 29 30 30 8 34 -19 3 -17 5 10 12 18
4 35 16 38 26 4 11 14 19 23 19 14 0 14 2 3 9 -7 5 -10 14 -7 20 4 6 12 9 17
6 5 -3 6 0 3 8 -3 9 27 44 82 93 189 172 194 177 188 202 -14 49 -62 23 -138
-75 -35 -44 -159 -153 -175 -153 -16 0 -13 11 7 27 15 12 14 13 -11 7 -17 -4
-27 -2 -27 5 0 8 -6 9 -17 3 -10 -5 -24 -7 -30 -5 -8 3 -13 -4 -13 -16 0 -18
-6 -21 -40 -21 -33 0 -40 3 -40 20 0 22 -18 25 -112 20 -30 -1 -48 2 -48 9 0
6 9 11 20 11 46 0 3 42 -56 55 -17 3 -41 15 -52 25 -12 11 -33 20 -48 20 -26
0 -27 1 -9 14 16 12 17 16 6 30 -7 9 -24 16 -38 16 -14 0 -21 4 -18 10 3 6 15
10 25 10 24 0 36 18 21 33 -16 16 -13 47 5 47 8 0 12 5 9 11 -4 6 -13 8 -20 5
-14 -5 -25 14 -25 44 0 10 -13 23 -31 30 -17 8 -36 26 -44 44 -7 17 -14 25
-14 19 -1 -18 -21 -16 -21 2 0 7 6 18 14 22 8 4 17 25 21 45 6 34 5 39 -16 47
-21 8 -22 10 -6 16 9 4 17 17 17 29 0 12 5 27 11 33 8 8 7 24 -5 59 -20 58
-20 54 3 54 11 0 22 4 26 9 3 6 -9 7 -30 4 -23 -4 -35 -2 -35 6 0 6 9 11 20
11 11 0 20 5 20 11 0 27 35 37 101 32 74 -6 85 1 67 44 -6 15 -11 31 -10 35 2
10 -21 25 -97 63 l-73 36 6 92 c11 177 12 228 4 233 -13 8 -9 42 7 58 18 18
20 60 3 78 -37 38 -40 46 -26 69 11 18 11 22 0 26 -10 4 -10 8 -1 19 12 15 49
20 49 7 0 -11 44 -30 58 -25 7 2 10 13 6 27 -5 20 -3 23 15 18 15 -4 21 -1 21
11 0 12 -10 16 -43 16 -37 0 -46 4 -55 24 -9 21 -8 27 11 41 12 9 16 13 10 10
-7 -3 -13 -1 -13 4 0 6 4 11 10 11 19 0 -6 149 -26 157 -8 3 -14 16 -14 29 0
12 -7 49 -15 81 -8 31 -15 81 -15 110 0 32 -6 63 -16 78 -12 19 -14 31 -6 57
14 47 22 118 12 118 -4 0 -10 18 -12 40 -2 22 0 40 5 40 14 0 57 52 57 69 0
12 -5 10 -19 -8 -21 -28 -41 -21 -41 16 0 21 -2 24 -15 13 -12 -10 -15 -10
-15 3 0 8 -9 17 -20 20 -12 3 -20 14 -20 27 0 16 4 20 16 16 15 -6 15 -4 -1
20 -13 20 -15 37 -10 75 4 27 11 51 16 55 5 3 9 0 9 -7 0 -9 4 -9 15 1 12 10
12 14 -4 31 -10 11 -25 17 -33 14 -9 -4 -19 -2 -23 4 -3 6 -15 11 -26 11 -10
0 -19 5 -19 10 0 9 28 15 58 11 6 -1 12 3 12 9 0 5 -11 10 -25 10 -28 0 -32
14 -11 36 8 8 20 39 27 69 7 30 16 55 21 55 4 0 9 19 9 43 1 38 2 39 8 12 l7
-30 17 26 c9 14 20 48 23 75 8 59 26 83 59 77 19 -4 24 -1 22 16 -1 23 -32 29
-40 9 -3 -7 -6 3 -6 24 -1 31 2 35 19 31 19 -5 20 -2 14 53 -6 54 -4 61 20 83
24 23 25 26 9 43 -17 19 -11 23 30 19 14 -2 17 6 17 38 0 30 4 41 15 41 11 0
15 11 15 40 0 36 3 40 24 40 20 0 25 6 31 40 4 25 12 40 21 40 10 0 14 13 15
43 1 38 2 39 8 12 l6 -30 24 24 24 24 -27 16 c-25 15 -36 55 -17 63 5 2 12 22
16 46 5 34 4 42 -9 42 -10 0 -1 14 23 38 61 58 71 64 97 59 16 -3 24 0 24 9 0
8 4 14 9 14 6 0 21 11 35 24 17 15 34 22 50 19 13 -3 27 0 30 6 4 6 18 11 31
11 13 0 33 12 47 28 18 21 33 28 68 30 24 1 47 7 50 12 7 11 34 -10 43 -32 3
-10 12 -18 19 -18 8 0 20 -9 28 -20 17 -24 48 -26 56 -5 5 12 10 13 20 4 8 -6
11 -15 8 -20 -6 -11 -1 -11 20 -3 9 3 16 17 16 30 0 18 -5 24 -22 24 -13 0
-36 7 -52 15 -15 8 -35 15 -42 15 -8 0 -14 3 -14 8 0 11 51 32 77 32 13 0 32
9 42 19 12 12 37 21 61 23 22 2 41 8 42 13 3 20 27 35 57 35 62 0 129 21 147
46 24 31 54 32 54 2 1 -23 1 -23 16 -3 8 11 35 41 59 67 24 26 47 58 50 71 7
27 67 58 119 63 46 4 81 15 69 22 -6 4 -7 15 -2 27 6 17 8 17 8 3 1 -25 9 -23
66 17 l50 34 16 -21 c16 -20 18 -21 34 -5 9 9 21 17 26 17 6 0 8 3 6 8 -3 4 6
8 19 8 33 2 32 -32 -1 -58 -14 -11 -23 -24 -20 -29 10 -15 21 -10 34 14 11 20
53 44 86 48 6 0 19 6 30 12 20 11 59 18 105 19 14 0 28 5 33 11 5 9 12 6 22
-7 13 -17 19 -18 52 -8 21 6 48 9 59 6 20 -5 21 -8 8 -34 -20 -39 -3 -83 29
-78 14 2 21 9 19 19 -1 9 5 22 13 29 8 7 15 18 15 26 0 7 6 17 14 21 7 4 23
26 34 48 11 22 28 48 38 57 21 18 88 43 146 53 20 4 54 13 75 20 27 9 43 10
60 2 16 -7 30 -7 49 2 27 12 49 6 39 -10 -4 -5 1 -9 9 -9 10 0 13 6 10 15 -5
11 1 15 18 15 13 0 29 5 36 12 7 7 15 8 24 1 22 -16 92 -33 115 -27 23 6 56
-8 90 -40 24 -22 31 -56 12 -56 -5 0 -7 -4 -4 -10 14 -22 46 -9 62 25 9 19 23
35 31 35 9 0 13 7 9 19 -4 18 0 20 62 17 36 -2 76 0 88 5 13 5 25 4 28 -1 8
-13 92 -13 100 0 6 10 184 7 264 -5 33 -5 34 -4 13 6 -12 7 -21 17 -19 23 5
13 69 8 78 -5 3 -6 18 -3 35 6 16 8 25 15 19 15 -5 0 1 7 13 15 20 14 85 19
180 14 24 -1 30 -23 10 -33 -10 -5 -10 -7 0 -12 17 -8 15 -34 -3 -34 -18 0
-18 2 -1 -46 7 -22 12 -43 10 -49 -2 -5 8 -18 22 -29 31 -22 39 -14 48 48 4
22 16 61 28 85 l21 43 48 -6 c26 -4 49 -3 51 1 8 18 76 42 117 42 27 -1 47 4
52 12 7 11 9 10 9 -3 0 -10 -6 -18 -12 -18 -9 0 -9 -3 1 -9 9 -6 32 -3 63 10
27 10 59 19 71 19 13 0 32 7 43 15 10 8 41 15 68 15 51 0 96 27 96 57 0 18 19
17 26 -2z m-4256 -15 c0 -5 -2 -10 -4 -10 -3 0 -8 5 -11 10 -3 6 -1 10 4 10 6
0 11 -4 11 -10z m350 -37 c74 -19 150 -43 170 -53 19 -10 73 -28 120 -40 47
-13 90 -26 95 -30 6 -4 31 -12 57 -18 25 -7 59 -17 74 -22 l27 -11 -24 -25
c-37 -40 -48 -43 -134 -34 -83 8 -155 34 -155 56 0 18 -51 35 -170 55 -67 11
-81 18 -131 60 -61 52 -73 58 -161 84 -32 9 -58 19 -58 22 0 14 168 -11 290
-44z m-1283 31 c-3 -3 -12 -4 -19 -1 -8 3 -5 6 6 6 11 1 17 -2 13 -5z m988
-59 c12 -14 148 -95 159 -95 5 0 29 -15 55 -33 71 -51 214 -116 304 -139 85
-21 89 -21 197 19 8 3 -3 -7 -25 -22 -22 -15 -55 -39 -73 -53 -30 -23 -37 -24
-75 -15 -49 13 -116 39 -247 99 -52 24 -108 48 -125 54 -76 28 -199 140 -210
190 -7 33 -7 34 11 20 11 -8 24 -19 29 -25z m-127 -18 c6 -12 13 -41 16 -64 6
-38 4 -43 -14 -43 -17 0 -20 -7 -20 -40 0 -52 13 -62 136 -112 54 -22 104 -43
109 -48 27 -21 175 -71 227 -77 72 -7 87 -23 21 -23 -48 0 -107 21 -258 90
-70 32 -171 70 -187 70 -4 0 -8 -24 -8 -54 0 -49 3 -57 35 -85 54 -47 92 -64
131 -56 19 3 34 2 34 -3 0 -11 -48 -22 -91 -22 -42 0 -78 26 -145 105 -80 93
-99 122 -82 127 10 4 10 15 0 57 -21 90 -15 130 16 99 9 -9 12 -2 12 32 0 70
42 100 68 47z m-503 3 c-16 -12 -55 -32 -85 -46 -30 -14 -63 -30 -73 -35 -11
-6 -21 -8 -24 -5 -8 7 17 36 30 36 6 0 18 7 28 16 20 18 106 53 134 53 17 1
15 -3 -10 -19z m-185 -10 c-19 -13 -30 -13 -30 0 0 6 10 10 23 10 18 0 19 -2
7 -10z m-360 -26 c0 -8 -4 -12 -10 -9 -5 3 -10 10 -10 16 0 5 5 9 10 9 6 0 10
-7 10 -16z m1135 -32 c-3 -3 -11 0 -18 7 -9 10 -8 11 6 5 10 -3 15 -9 12 -12z
m4252 -104 c-2 -13 -4 -3 -4 22 0 25 2 35 4 23 2 -13 2 -33 0 -45z m-34 22 c4
-15 0 -20 -13 -20 -13 0 -17 5 -13 20 3 11 9 20 13 20 4 0 10 -9 13 -20z
m-4632 -88 c9 -10 18 -37 21 -59 3 -23 16 -55 29 -72 31 -42 14 -58 -25 -25
-24 22 -29 33 -30 79 -1 54 -15 89 -17 44 -1 -13 -1 -28 0 -32 2 -11 -27 -65
-40 -72 -18 -12 -49 26 -49 59 0 40 9 52 51 76 43 24 41 24 60 2z m1763 9 c3
-5 -1 -12 -10 -15 -27 -11 -37 -7 -24 9 14 17 26 19 34 6z m2836 -95 c0 -11
-19 -15 -25 -6 -3 5 1 10 9 10 9 0 16 -2 16 -4z m-3540 -236 c0 -5 -7 -10 -16
-10 -8 0 -12 5 -9 10 3 6 10 10 16 10 5 0 9 -4 9 -10z m3684 -289 c9 -13 -4
-41 -19 -41 -8 0 -10 9 -7 25 4 25 16 32 26 16z m96 -276 c11 -13 9 -19 -10
-35 -39 -34 -50 -24 -28 25 13 29 21 31 38 10z m-96 -10 c-7 -17 -20 -20 -29
-6 -3 5 3 12 12 14 10 3 19 5 20 6 1 0 0 -6 -3 -14z m197 -62 c11 -31 8 -60
-6 -53 -5 3 -9 11 -7 18 2 6 -2 12 -8 12 -5 0 -10 11 -10 25 0 33 18 32 31 -2z
m-131 -8 c11 -13 10 -14 -4 -9 -9 3 -16 10 -16 15 0 13 6 11 20 -6z m-5564
-20 c-11 -8 -22 -12 -25 -9 -6 6 19 24 34 24 6 -1 1 -7 -9 -15z m5279 -49 c82
-66 114 -106 86 -106 -5 0 -6 -10 -3 -22 5 -20 4 -21 -9 -8 -30 30 -139 165
-154 190 -10 17 -6 15 80 -54z m1313 4 c11 0 6 -6 -12 -15 -15 -8 -34 -15 -41
-15 -7 0 -18 -6 -24 -14 -9 -11 0 -15 53 -21 54 -5 64 -9 59 -23 -4 -10 -8
-12 -11 -4 -2 7 -13 12 -23 12 -11 0 -18 -4 -15 -9 3 -5 -16 -12 -43 -16 -37
-5 -59 -2 -85 10 -20 10 -36 21 -36 26 0 5 -8 9 -17 9 -15 0 -15 2 -3 14 18
17 48 22 74 11 10 -4 21 -4 25 1 3 6 22 22 41 37 27 21 36 23 38 12 2 -8 11
-15 20 -15z m-1011 -42 c-3 -8 -6 -5 -6 6 -1 11 2 17 5 13 3 -3 4 -12 1 -19z
m1060 -340 c-8 -24 -12 -28 -15 -15 -5 23 4 47 17 47 6 0 5 -13 -2 -32z
m-1029 -18 c-7 -10 -14 -18 -15 -16 -6 6 9 36 18 36 5 0 4 -9 -3 -20z m900 0
l27 -8 -30 -1 c-71 -2 -199 12 -180 20 22 9 141 2 183 -11z m-858 -5 c0 -8 -4
-15 -10 -15 -5 0 -10 7 -10 15 0 8 5 15 10 15 6 0 10 -7 10 -15z m1147 -41
c-3 -3 -12 -4 -19 -1 -8 3 -5 6 6 6 11 1 17 -2 13 -5z m-52 -14 c-3 -5 -15
-10 -26 -10 -10 0 -19 -4 -19 -10 0 -5 7 -10 15 -10 8 0 15 -5 15 -10 0 -6
-11 -8 -25 -4 -14 3 -31 2 -38 -3 -8 -6 -20 -5 -36 3 -23 12 -23 12 -3 23 41
22 127 37 117 21z m-221 -70 c-33 -13 -37 -37 -7 -45 20 -5 23 -9 14 -18 -8
-8 -14 -8 -19 -2 -13 18 -102 18 -123 -1 -10 -9 -39 -19 -64 -21 -25 -3 -45
-10 -45 -14 0 -5 -7 -9 -16 -9 -8 0 -12 -5 -9 -11 4 -6 -1 -16 -11 -23 -16
-12 -15 -14 9 -20 15 -3 27 -11 27 -16 0 -5 6 -8 13 -6 6 1 9 1 5 -1 -5 -3 -8
-14 -8 -25 0 -17 -4 -19 -25 -14 -19 5 -41 -2 -83 -29 -32 -19 -61 -35 -65
-35 -22 0 25 145 59 181 23 24 24 26 7 41 -10 8 -25 18 -33 20 -9 3 -1 8 18
12 25 6 38 4 52 -9 19 -17 23 -17 82 0 35 9 69 22 76 28 16 13 74 25 127 25
32 1 36 -1 19 -8z m-27 -86 c-3 -3 -12 -4 -19 -1 -8 3 -5 6 6 6 11 1 17 -2 13
-5z m-43 -20 c5 -14 4 -15 -9 -4 -17 14 -19 20 -6 20 5 0 12 -7 15 -16z m-524
-18 c0 -2 -7 -7 -16 -10 -8 -3 -12 -2 -9 4 6 10 25 14 25 6z m9 -40 c-10 -10
-113 -45 -118 -40 -8 8 22 24 46 24 12 0 25 5 28 10 3 6 16 10 27 10 12 0 19
-2 17 -4z m571 -82 c0 -21 -25 -35 -38 -22 -20 20 -14 36 13 34 14 0 25 -6 25
-12z m-270 -59 c0 -8 -4 -15 -10 -15 -5 0 -10 7 -10 15 0 8 5 15 10 15 6 0 10
-7 10 -15z m127 -101 c-3 -3 -12 -4 -19 -1 -8 3 -5 6 6 6 11 1 17 -2 13 -5z
m-6030 -86 c-3 -8 -6 -5 -6 6 -1 11 2 17 5 13 3 -3 4 -12 1 -19z m23 -28 c0
-5 -2 -10 -4 -10 -3 0 -8 5 -11 10 -3 6 -1 10 4 10 6 0 11 -4 11 -10z m5761
-184 l22 -39 -26 19 c-25 17 -67 87 -67 110 0 13 44 -43 71 -90z m-6228 9 c-3
-9 -8 -14 -10 -11 -3 3 -2 9 2 15 9 16 15 13 8 -4z m6132 -99 c17 -13 27 -27
23 -31 -7 -8 -68 34 -68 47 0 14 14 9 45 -16z m-5655 -37 c0 -5 -4 -9 -10 -9
-5 0 -10 7 -10 16 0 8 5 12 10 9 6 -3 10 -10 10 -16z m-513 -58 c-10 -4 -18
-11 -18 -16 1 -11 -47 -30 -56 -22 -9 10 8 27 28 27 10 0 19 5 19 10 0 6 10
10 23 9 19 0 20 -1 4 -8z m-7 -901 c0 -5 -2 -10 -4 -10 -3 0 -8 5 -11 10 -3 6
-1 10 4 10 6 0 11 -4 11 -10z m144 -85 c3 -8 1 -15 -4 -15 -6 0 -10 7 -10 15
0 8 2 15 4 15 2 0 6 -7 10 -15z m596 -717 c0 -7 -4 -19 -9 -27 -11 -17 -25 3
-17 24 7 18 26 20 26 3z m5307 -23 c-4 -8 -12 -15 -19 -14 -10 0 -10 2 0 6 6
2 12 12 12 21 0 8 3 13 6 9 4 -3 4 -13 1 -22z m-5354 -90 c-3 -9 -8 -14 -10
-11 -3 3 -2 9 2 15 9 16 15 13 8 -4z m27 -117 c0 -5 -4 -8 -10 -8 -5 0 -10 10
-10 23 0 18 2 19 10 7 5 -8 10 -18 10 -22z m5326 -43 c-1 -33 -2 -34 -19 -16
-19 18 -14 51 7 51 8 0 12 -14 12 -35z m-5291 -3 c-3 -7 -5 -18 -5 -23 0 -16
-17 -1 -23 20 -3 15 0 19 14 18 12 -1 17 -7 14 -15z m5455 -276 c0 -2 -27 -32
-60 -66 -38 -38 -86 -74 -130 -95 -100 -51 -107 -43 -13 16 46 29 109 73 140
100 61 50 63 51 63 45z m277 -302 c-3 -3 -12 -4 -19 -1 -8 3 -5 6 6 6 11 1 17
-2 13 -5z m-134 -105 c46 -21 31 -32 -33 -26 -59 5 -90 19 -90 40 0 12 86 3
123 -14z m-297 -298 c-8 -12 -137 -34 -168 -29 -15 3 -2 9 42 20 73 18 134 23
126 9z m172 -17 c44 -12 21 -22 -65 -26 -49 -3 -90 -4 -91 -2 -2 1 9 9 25 18
29 16 91 20 131 10z m612 -112 c0 -5 -7 -17 -15 -28 -14 -18 -14 -17 -4 9 12
27 19 34 19 19z m-247 -58 c3 -4 -10 -15 -30 -25 -45 -23 -70 -9 -27 15 32 17
47 19 57 10z m-174 -99 c-39 -36 -77 -65 -85 -65 -8 0 -14 -4 -14 -8 0 -5 -18
-14 -41 -21 -22 -7 -62 -24 -87 -38 -26 -15 -63 -28 -82 -29 -19 -2 -54 -6
-77 -10 -57 -8 -55 8 5 35 26 12 70 34 98 49 126 67 315 150 342 151 6 1 -20
-28 -59 -64z m95 23 c-4 -13 -16 -35 -27 -49 -10 -15 -17 -32 -13 -37 6 -10
-33 -43 -66 -55 -24 -9 -22 5 7 50 59 91 116 142 99 91z m237 -5 c-17 -30 -51
-69 -51 -59 0 10 48 76 56 76 3 0 0 -8 -5 -17z m-786 -24 c-84 -22 -110 -24
-73 -5 32 17 60 23 108 24 27 0 19 -4 -35 -19z m955 -49 c-6 -11 -18 -60 -26
-107 -9 -50 -25 -104 -39 -127 -14 -23 -33 -59 -43 -81 -44 -96 -43 -94 -36
-50 3 21 12 52 20 67 8 15 14 45 14 68 0 29 15 70 56 150 32 61 59 108 61 106
3 -2 -1 -14 -7 -26z m-260 -51 c-54 -68 -103 -119 -113 -119 -5 0 16 27 47 61
32 34 64 72 73 85 9 14 18 22 21 20 2 -3 -10 -24 -28 -47z m20 -68 c-22 -32
-30 -38 -30 -22 0 12 41 63 47 57 3 -3 -5 -19 -17 -35z m-77 -36 c-3 -9 -8
-14 -10 -11 -3 3 -2 9 2 15 9 16 15 13 8 -4z m-73 -40 c-7 -9 -15 -13 -17 -11
-7 7 7 26 19 26 6 0 6 -6 -2 -15z m267 1 c-3 -8 -11 -34 -18 -57 -17 -57 -84
-175 -98 -172 -6 2 -11 -3 -11 -10 -1 -22 -37 -57 -54 -51 -18 7 -21 20 -6 29
5 3 17 21 26 40 8 19 27 41 40 50 13 8 24 22 24 30 0 19 81 155 93 155 5 0 7
-6 4 -14z m-542 -25 c-3 -6 -11 -11 -17 -11 -6 0 -6 6 2 15 14 17 26 13 15 -4z
m-45 -35 c0 -3 -4 -8 -10 -11 -5 -3 -10 -1 -10 4 0 6 5 11 10 11 6 0 10 -2 10
-4z m-803 -358 c-3 -7 -5 -2 -5 12 0 14 2 19 5 13 2 -7 2 -19 0 -25z m-1 -45
c-10 -10 -19 5 -10 18 6 11 8 11 12 0 2 -7 1 -15 -2 -18z m-3201 -149 c21 -9
49 -13 65 -9 20 4 29 2 33 -9 4 -9 15 -16 26 -16 11 0 32 -5 48 -11 l28 -11
-22 -18 -22 -18 37 -14 37 -15 -40 -17 c-22 -9 -60 -21 -85 -26 -25 -6 -62
-15 -83 -22 -49 -15 -57 -4 -22 32 23 24 25 30 11 30 -54 0 -103 63 -90 116 7
28 27 30 79 8z m-1575 -4 c0 -5 -15 -10 -34 -10 -19 0 -38 5 -41 10 -4 6 10
10 34 10 23 0 41 -4 41 -10z m4370 0 c0 -5 -5 -10 -11 -10 -5 0 -7 5 -4 10 3
6 8 10 11 10 2 0 4 -4 4 -10z m215 -10 c-3 -5 -13 -10 -21 -10 -8 0 -12 5 -9
10 3 6 13 10 21 10 8 0 12 -4 9 -10z m-4528 -96 c-3 -3 -12 -4 -19 -1 -8 3 -5
6 6 6 11 1 17 -2 13 -5z m190 -37 c3 -3 2 -15 -2 -26 -4 -15 -15 -21 -33 -21
-36 1 -66 24 -58 46 5 13 15 15 47 11 22 -3 43 -8 46 -10z m4233 9 c0 -2 -7
-6 -15 -10 -8 -3 -15 -1 -15 4 0 6 7 10 15 10 8 0 15 -2 15 -4z m-4460 -36 c0
-5 -2 -10 -4 -10 -3 0 -8 5 -11 10 -3 6 -1 10 4 10 6 0 11 -4 11 -10z m-132
-40 c18 -11 43 -20 56 -20 26 0 44 -29 25 -40 -17 -11 -16 -14 14 -49 15 -19
26 -35 23 -38 -2 -2 -39 14 -82 37 l-79 41 53 -5 c59 -6 67 0 21 16 -23 8 -27
13 -17 19 10 7 8 9 -7 9 -24 1 -55 23 -55 39 0 16 10 14 48 -9z m290 -101 c19
-24 43 -48 53 -53 27 -13 25 -44 -3 -41 -13 1 -29 3 -36 4 -9 1 -11 8 -7 21 4
12 1 27 -5 35 -16 20 -31 19 -24 0 8 -19 -13 -45 -35 -45 -19 0 -65 43 -56 52
4 3 -7 16 -22 28 -27 21 -27 22 -4 15 20 -6 23 -4 18 9 -6 15 -4 15 24 1 46
-24 54 -14 19 24 -16 19 -30 36 -30 38 0 14 82 -53 108 -88z m1102 -6 c-64
-101 -88 -131 -54 -68 28 51 92 145 100 145 2 0 -19 -35 -46 -77z m-410 1 c11
-12 11 -18 -2 -30 -14 -14 -16 -13 -20 15 -5 34 3 39 22 15z m-915 -61 c11 -3
34 -11 50 -18 65 -27 123 -43 147 -38 14 3 29 0 32 -6 10 -16 -26 -30 -86 -32
-47 -2 -61 2 -85 22 -17 13 -48 35 -71 49 -41 25 -58 49 -24 35 9 -4 26 -9 37
-12z m-732 -21 c3 -4 -2 -16 -12 -27 -19 -23 -46 -32 -37 -13 3 7 9 21 12 31
6 17 29 23 37 9z m2357 -15 c0 -2 -52 -55 -116 -118 -155 -152 -180 -179 -259
-279 -74 -94 -87 -108 -62 -68 9 14 39 65 67 111 56 95 163 211 255 275 33 22
71 50 85 61 26 21 30 24 30 18z m1020 -29 c0 -20 3 -28 8 -21 5 8 8 -1 9 -22
1 -19 -3 -32 -8 -29 -5 3 -7 9 -4 14 3 4 -6 21 -20 38 -18 22 -21 32 -13 40
20 20 28 14 28 -20z m65 22 c-3 -5 -15 -10 -25 -10 -10 0 -22 5 -25 10 -4 6 7
10 25 10 18 0 29 -4 25 -10z m-3258 -171 c8 -43 -14 -42 -40 2 -13 22 -28 40
-33 40 -10 0 -8 27 8 84 l10 40 25 -70 c13 -38 27 -82 30 -96z m1425 136 c0
-5 -5 -11 -11 -13 -6 -2 -11 4 -11 13 0 9 5 15 11 13 6 -2 11 -8 11 -13z m27
-129 c-24 -75 -47 -136 -51 -136 -9 0 -11 -9 43 153 23 70 44 125 47 123 2 -3
-15 -66 -39 -140z m326 114 c-9 -16 -18 -30 -21 -30 -2 0 2 14 11 30 9 17 18
30 21 30 2 0 -2 -13 -11 -30z m-1555 -5 c81 -42 290 -206 290 -227 0 -17 -45
4 -66 30 -11 14 -32 26 -47 28 -27 3 -84 47 -172 134 -52 52 -53 60 -5 35z
m600 -13 c0 -21 -26 -60 -34 -51 -3 3 -3 20 0 37 7 34 34 45 34 14z m2580 -23
c12 -6 10 -8 -8 -9 -13 0 -31 7 -40 16 -15 15 -14 16 8 9 14 -4 32 -11 40 -16z
m-1653 -6 c-52 -95 -131 -223 -134 -219 -10 10 117 226 133 226 3 0 3 -3 1 -7z
m-1067 -23 c12 -8 9 -10 -12 -10 -16 0 -28 5 -28 10 0 13 20 13 40 0z m2790
-15 c11 -13 9 -15 -13 -15 -13 0 -40 -3 -58 -7 -30 -6 -33 -5 -21 10 8 9 26
18 40 20 15 2 30 5 33 6 4 0 12 -6 19 -14z m-3426 -27 c19 -36 13 -51 -9 -22
-13 18 -21 54 -11 54 3 0 12 -14 20 -32z m2831 -63 c93 -19 177 -33 187 -30
13 5 18 -2 24 -30 7 -37 2 -49 -19 -50 -7 -1 -33 -5 -58 -9 -32 -5 -54 -4 -70
5 -13 7 -50 12 -81 11 -32 -1 -103 7 -159 18 -55 11 -111 20 -123 20 -46 0
-35 15 21 30 54 14 58 17 55 43 -2 24 1 27 25 27 15 0 104 -16 198 -35z
m-2802 -82 l16 -53 -24 0 c-13 0 -30 -3 -38 -6 -12 -4 -14 6 -10 63 6 92 11
105 28 73 7 -14 20 -49 28 -77z m483 72 c24 -18 7 -19 -26 0 -16 9 -19 14 -9
15 8 0 24 -7 35 -15z m821 9 c-3 -3 -12 -4 -19 -1 -8 3 -5 6 6 6 11 1 17 -2
13 -5z m-1529 -225 c12 -18 10 -19 -15 -13 -34 8 -58 28 -49 43 9 14 48 -4 64
-30z m166 -33 c-5 -32 -3 -44 8 -48 15 -6 26 -108 11 -108 -17 0 -42 86 -38
130 2 25 4 53 4 63 1 10 5 15 11 12 5 -3 7 -25 4 -49z m2605 38 c61 -13 18
-24 -92 -24 -101 0 -130 9 -72 23 31 7 129 8 164 1z m-49 -92 c22 -5 21 -7
-15 -13 -52 -10 -194 -10 -220 0 -19 8 -19 8 0 20 20 12 180 7 235 -7z m-390
-102 c19 -6 85 -19 145 -30 61 -11 146 -29 190 -40 44 -10 139 -33 210 -50 72
-16 168 -42 215 -58 74 -23 81 -28 55 -32 -16 -3 -41 -13 -55 -22 -23 -15 -32
-15 -145 2 -213 32 -486 99 -559 137 -34 18 -24 34 25 39 18 2 34 6 36 7 2 2
-36 12 -84 23 -91 19 -188 24 -258 12 l-40 -7 40 14 c48 16 177 19 225 5z
m-1135 -30 c8 -13 -5 -13 -25 0 -13 8 -13 10 2 10 9 0 20 -4 23 -10z m-896
-110 c0 -11 -5 -8 -18 8 -11 12 -26 20 -34 16 -8 -3 -18 -1 -22 5 -3 6 -2 11
3 11 6 0 8 10 5 23 -5 19 -1 17 30 -13 20 -19 36 -42 36 -50z m1429 58 c20
-20 14 -25 -35 -31 -27 -2 -56 -8 -66 -12 -12 -5 -17 -3 -15 6 2 11 -16 15
-79 17 -53 2 -83 7 -83 14 0 8 35 9 120 5 71 -4 122 -2 125 4 8 12 19 11 33
-3z m107 -8 c-16 -4 -43 -8 -60 -8 -29 1 -29 1 5 8 19 4 46 7 60 8 22 0 22 -1
-5 -8z m-282 -57 c-7 -2 -19 -2 -25 0 -7 3 -2 5 12 5 14 0 19 -2 13 -5z m592
-107 c44 -32 82 -61 85 -64 7 -7 -65 35 -118 70 -24 15 -46 28 -49 28 -9 0
-67 51 -76 67 -10 17 47 -19 158 -101z m-659 85 c-17 -18 -17 -24 -3 -83 9
-35 19 -85 22 -113 4 -27 18 -83 31 -124 14 -40 22 -76 18 -80 -4 -3 -9 0 -11
7 -8 20 -23 14 -23 -10 0 -13 14 -79 30 -148 40 -166 39 -233 -2 -246 -11 -3
-22 -4 -24 -1 -3 2 -16 57 -30 122 -23 110 -29 180 -24 285 1 25 -8 78 -20
117 -19 64 -20 79 -11 149 12 82 8 94 -32 94 -14 0 -16 4 -7 19 7 14 23 21 53
24 23 2 44 4 46 5 2 1 -4 -7 -13 -17z m674 -183 c19 -14 52 -31 73 -38 21 -7
41 -18 44 -26 3 -8 19 -22 36 -31 17 -9 39 -26 49 -38 10 -13 43 -39 73 -60
30 -20 55 -38 55 -40 0 -3 -14 -2 -31 2 -33 6 -89 41 -186 115 -122 94 -175
116 -201 85 -15 -18 9 -52 104 -148 104 -102 88 -80 167 -249 77 -166 79 -176
45 -251 l-23 -50 -55 6 c-45 5 -59 11 -80 36 -14 16 -36 35 -48 42 -30 15 -46
45 -71 127 l-19 65 5 -62 c3 -35 3 -63 0 -63 -4 0 -20 30 -37 68 -17 37 -36
76 -42 87 -8 14 -8 20 1 23 18 6 12 24 -6 18 -12 -3 -36 11 -71 44 -29 28 -58
50 -65 50 -13 0 -34 31 -79 113 -15 28 -36 60 -46 71 -11 12 -34 44 -52 71
-19 28 -40 54 -47 58 -7 4 -18 18 -25 30 -10 20 -10 21 5 8 15 -12 17 -11 17
13 0 42 18 30 50 -34 22 -43 61 -90 139 -166 60 -58 121 -114 137 -124 50 -30
106 -102 230 -290 20 -30 48 -73 63 -95 52 -80 77 -85 50 -12 -8 24 -16 67
-17 97 -2 36 -10 64 -22 80 -11 14 -30 45 -42 69 -30 59 -177 208 -255 260
-60 40 -86 69 -89 101 -1 8 -15 36 -33 62 -17 25 -34 61 -38 78 -6 31 -5 32
17 20 12 -7 36 -16 51 -20 26 -8 31 -5 44 20 26 50 52 43 125 -31 36 -36 81
-77 100 -91z m-830 55 c-1 -14 -24 -51 -47 -75 -88 -91 -163 -179 -163 -191 0
-17 -45 -67 -60 -67 -16 0 -12 37 9 71 21 34 241 268 254 268 4 1 7 -2 7 -6z
m1015 -93 c3 -5 2 -10 -4 -10 -5 0 -13 5 -16 10 -3 6 -2 10 4 10 5 0 13 -4 16
-10z m-705 -10 c0 -5 -4 -10 -10 -10 -5 0 -10 5 -10 10 0 6 5 10 10 10 6 0 10
-4 10 -10z m735 -20 c3 -6 -1 -7 -9 -4 -18 7 -21 14 -7 14 6 0 13 -4 16 -10z
m-684 -57 c5 -13 17 -23 28 -23 37 0 61 -52 65 -138 3 -63 9 -87 28 -118 14
-22 33 -52 44 -69 10 -16 19 -43 20 -60 2 -33 4 -35 -55 43 -13 18 -28 32 -32
32 -13 0 -11 -38 2 -45 11 -7 76 -143 99 -207 8 -21 11 -41 7 -45 -10 -9 -33
25 -48 72 -23 74 -57 130 -94 154 -42 28 -87 114 -130 251 -12 38 -13 63 -1
49 17 -20 76 -113 76 -120 0 -5 4 -9 9 -9 12 0 -5 61 -28 103 -30 51 -54 136
-46 164 6 25 6 25 27 7 11 -11 24 -29 29 -41z m-288 17 c3 -11 1 -23 -4 -26
-5 -3 -9 6 -9 20 0 31 6 34 13 6z m2669 -84 c10 -38 16 -71 15 -72 -8 -9 -47
10 -47 23 0 7 -9 31 -20 53 -28 55 -26 72 8 68 25 -3 29 -9 44 -72z m-2722
-66 c7 24 7 23 13 -10 3 -19 9 -57 12 -83 5 -41 25 -109 50 -168 9 -24 -23
-53 -41 -38 -10 9 -17 9 -28 0 -27 -22 -38 14 -43 141 -6 147 -5 171 4 223 l7
40 10 -65 c7 -51 11 -60 16 -40z m1170 -5 c0 -8 -4 -15 -10 -15 -5 0 -10 7
-10 15 0 8 5 15 10 15 6 0 10 -7 10 -15z m-864 -277 c8 -16 14 -32 11 -34 -8
-8 -56 111 -71 176 -26 107 -17 102 15 -8 16 -57 36 -117 45 -134z m-446 192
c0 -5 6 -10 13 -10 8 0 17 -25 24 -67 13 -77 13 -103 1 -103 -5 0 -12 8 -15
18 -4 9 -16 27 -27 38 -17 18 -20 32 -18 78 2 31 8 56 13 56 5 0 9 -4 9 -10z
m-245 -211 c37 -39 38 -42 20 -55 -23 -17 -47 -18 -62 -3 -6 6 -22 17 -35 23
-24 12 -26 39 -6 64 18 22 43 13 83 -29z m-227 -52 c-20 -8 -28 -18 -28 -35 0
-28 -25 -51 -57 -52 -48 0 -32 52 22 70 19 6 35 16 35 21 0 5 12 9 28 8 l27
-1 -27 -11z m772 3 c0 -5 -2 -10 -4 -10 -3 0 -8 5 -11 10 -3 6 -1 10 4 10 6 0
11 -4 11 -10z m-945 -272 c27 -12 32 -23 13 -32 -7 -3 3 -5 23 -3 27 2 35 -1
32 -10 -6 -14 -91 -18 -108 -5 -6 4 -12 19 -13 35 -4 30 10 35 53 15z m4854
-467 c-6 -2 -18 4 -27 13 -15 15 -15 15 10 4 15 -7 23 -15 17 -17z m-286 -58
c-6 -14 -8 -14 -14 3 -12 30 -10 37 5 24 8 -6 12 -19 9 -27z m830 15 c22 -11
27 -20 27 -50 0 -21 -5 -38 -10 -38 -7 0 -10 -20 -9 -50 2 -27 0 -52 -2 -55
-7 -7 -79 89 -79 106 0 19 32 99 39 99 4 0 19 -6 34 -12z m-743 -55 c0 -20 -3
-24 -11 -16 -7 7 -9 19 -6 27 10 24 17 19 17 -11z m14 -48 c3 -8 1 -15 -4 -15
-6 0 -10 7 -10 15 0 8 2 15 4 15 2 0 6 -7 10 -15z m-63 -43 c-7 -2 -19 -1 -29
3 -14 5 -14 7 -2 15 9 5 20 4 28 -3 10 -8 11 -12 3 -15z"/>
<path d="M1216 12655 c4 -8 18 -15 33 -15 25 1 25 1 7 15 -26 19 -47 19 -40 0z"/>
<path d="M1252 12599 c15 -24 58 -39 58 -21 0 13 -20 28 -50 37 -24 7 -24 7
-8 -16z"/>
<path d="M285 12210 c-3 -5 -1 -10 4 -10 6 0 11 5 11 10 0 6 -2 10 -4 10 -3 0
-8 -4 -11 -10z"/>
<path d="M6480 10939 c0 -5 5 -7 10 -4 6 3 10 8 10 11 0 2 -4 4 -10 4 -5 0
-10 -5 -10 -11z"/>
<path d="M6425 10931 c-7 -12 12 -24 25 -16 11 7 4 25 -10 25 -5 0 -11 -4 -15
-9z"/>
<path d="M7125 10469 c-4 -6 -5 -12 -2 -15 2 -3 7 2 10 11 7 17 1 20 -8 4z"/>
<path d="M7090 10415 c-7 -9 -10 -18 -7 -21 3 -3 10 4 17 15 13 25 8 27 -10 6z"/>
<path d="M5890 9910 c0 -5 4 -10 9 -10 6 0 13 5 16 10 3 6 -1 10 -9 10 -9 0
-16 -4 -16 -10z"/>
<path d="M5092 9821 c-18 -11 12 -35 34 -27 13 5 14 9 4 21 -14 17 -20 18 -38
6z"/>
<path d="M3760 9680 c0 -11 4 -20 8 -20 4 0 8 9 9 20 1 11 -2 20 -8 20 -5 0
-9 -9 -9 -20z"/>
<path d="M3667 9673 c-17 -16 -6 -43 16 -43 25 0 47 17 47 37 0 13 -51 19 -63
6z"/>
<path d="M5174 9595 c-6 -24 0 -44 10 -34 11 11 17 59 7 59 -6 0 -13 -11 -17
-25z"/>
<path d="M3288 9593 c6 -2 18 -2 25 0 6 3 1 5 -13 5 -14 0 -19 -2 -12 -5z"/>
<path d="M3032 9467 c-9 -11 -10 -17 -2 -22 15 -9 23 -1 18 21 -3 15 -4 16
-16 1z"/>
<path d="M2215 9210 c-3 -5 1 -10 9 -10 9 0 16 5 16 10 0 6 -4 10 -9 10 -6 0
-13 -4 -16 -10z"/>
<path d="M5680 9000 c0 -5 4 -10 9 -10 6 0 13 5 16 10 3 6 -1 10 -9 10 -9 0
-16 -4 -16 -10z"/>
<path d="M1360 8630 c0 -5 5 -10 10 -10 6 0 10 5 10 10 0 6 -4 10 -10 10 -5 0
-10 -4 -10 -10z"/>
<path d="M5928 8283 c7 -3 16 -2 19 1 4 3 -2 6 -13 5 -11 0 -14 -3 -6 -6z"/>
<path d="M6055 8060 c-17 -18 -17 -20 -1 -20 9 0 19 7 23 15 9 25 -2 27 -22 5z"/>
<path d="M6080 7634 c0 -8 5 -12 10 -9 6 4 8 11 5 16 -9 14 -15 11 -15 -7z"/>
<path d="M6250 7633 c0 -5 5 -15 10 -23 8 -12 10 -11 10 8 0 12 -4 22 -10 22
-5 0 -10 -3 -10 -7z"/>
<path d="M6196 7585 c-9 -24 -7 -45 3 -45 5 0 13 9 16 21 8 26 -9 48 -19 24z"/>
<path d="M1196 6655 c-3 -9 0 -15 9 -15 8 0 15 7 15 15 0 8 -4 15 -9 15 -5 0
-11 -7 -15 -15z"/>
<path d="M6327 6493 c-4 -3 -7 -11 -7 -17 0 -6 5 -5 12 2 6 6 9 14 7 17 -3 3
-9 2 -12 -2z"/>
<path d="M6160 6394 c0 -8 5 -12 10 -9 6 4 8 11 5 16 -9 14 -15 11 -15 -7z"/>
<path d="M6280 5976 c0 -8 5 -18 10 -21 6 -3 10 3 10 14 0 12 -4 21 -10 21 -5
0 -10 -6 -10 -14z"/>
<path d="M6320 5790 c0 -5 5 -10 10 -10 6 0 10 5 10 10 0 6 -4 10 -10 10 -5 0
-10 -4 -10 -10z"/>
<path d="M6320 5589 c0 -5 5 -7 10 -4 6 3 10 8 10 11 0 2 -4 4 -10 4 -5 0 -10
-5 -10 -11z"/>
<path d="M1120 5544 c0 -8 5 -12 10 -9 6 4 8 11 5 16 -9 14 -15 11 -15 -7z"/>
<path d="M1191 5314 c0 -11 3 -14 6 -6 3 7 2 16 -1 19 -3 4 -6 -2 -5 -13z"/>
<path d="M1431 5024 c0 -11 3 -14 6 -6 3 7 2 16 -1 19 -3 4 -6 -2 -5 -13z"/>
<path d="M1717 4773 c-4 -3 -7 -11 -7 -17 0 -6 5 -5 12 2 6 6 9 14 7 17 -3 3
-9 2 -12 -2z"/>
<path d="M1954 3361 c-6 -6 39 -29 49 -24 4 2 7 11 7 18 0 14 -44 18 -56 6z"/>
<path d="M5271 3214 c0 -11 3 -14 6 -6 3 7 2 16 -1 19 -3 4 -6 -2 -5 -13z"/>
<path d="M5360 3130 c0 -6 7 -10 15 -10 8 0 15 2 15 4 0 2 -7 6 -15 10 -8 3
-15 1 -15 -4z"/>
<path d="M2648 3123 c7 -3 16 -2 19 1 4 3 -2 6 -13 5 -11 0 -14 -3 -6 -6z"/>
<path d="M5138 3108 c9 -9 15 -9 24 0 9 9 7 12 -12 12 -19 0 -21 -3 -12 -12z"/>
<path d="M5267 3076 c-4 -15 -6 -31 -2 -34 10 -10 16 6 13 35 l-3 28 -8 -29z"/>
<path d="M1750 9804 c0 -10 25 -29 54 -42 44 -19 39 -10 -10 20 -24 15 -44 25
-44 22z"/>
<path d="M2860 1900 c36 -12 72 -25 81 -30 9 -4 22 -4 29 0 15 9 -63 34 -135
45 -30 4 -24 0 25 -15z"/>
<path d="M2280 1281 c0 -5 5 -13 10 -16 6 -3 10 -2 10 4 0 5 -4 13 -10 16 -5
3 -10 2 -10 -4z"/>
<path d="M2368 12873 c12 -2 30 -2 40 0 9 3 -1 5 -23 4 -22 0 -30 -2 -17 -4z"/>
<path d="M2454 12815 c11 -8 29 -15 40 -15 19 1 19 2 -4 15 -35 20 -62 19 -36
0z"/>
<path d="M2440 12780 c33 -26 52 -25 21 0 -13 11 -28 20 -35 20 -6 0 0 -9 14
-20z"/>
<path d="M2515 12736 c17 -14 37 -25 45 -25 13 -1 13 0 0 10 -8 5 -28 17 -45
25 l-30 16 30 -26z"/>
<path d="M6033 12463 c-23 -4 -73 -56 -73 -76 0 -6 10 -1 23 10 12 11 35 32
52 46 16 15 28 26 25 26 -3 -1 -15 -4 -27 -6z"/>
<path d="M6040 12420 c-9 -6 -10 -10 -3 -10 6 0 15 5 18 10 8 12 4 12 -15 0z"/>
<path d="M5781 12338 c-1 -10 -5 -18 -11 -18 -5 0 -10 -5 -10 -12 0 -8 6 -7
16 4 9 9 14 22 11 30 -4 9 -6 7 -6 -4z"/>
</g>
</svg>
