<?xml version="1.0" standalone="no"?>
<!DOCTYPE svg PUBLIC "-//W3C//DTD SVG 20010904//EN"
 "http://www.w3.org/TR/2001/REC-SVG-20010904/DTD/svg10.dtd">
<svg version="1.0" xmlns="http://www.w3.org/2000/svg"
 width="675.000000pt" height="1200.000000pt" viewBox="0 0 675.000000 1200.000000"
 preserveAspectRatio="xMidYMid meet">

<g transform="translate(0.000000,1200.000000) scale(0.100000,-0.100000)"
fill="#000000" stroke="none">
<path d="M5465 2460 c-3 -5 -1 -10 4 -10 6 0 11 5 11 10 0 6 -2 10 -4 10 -3 0
-8 -4 -11 -10z"/>
<path d="M3870 2396 c-9 -12 -4 -19 30 -36 41 -21 60 -20 60 5 0 38 -65 60
-90 31z"/>
<path d="M6190 2348 c1 -41 6 -60 25 -83 21 -25 25 -27 31 -12 15 39 -19 147
-46 147 -6 0 -10 -24 -10 -52z"/>
<path d="M6727 2222 c-10 -33 -27 -72 -38 -86 -11 -14 -18 -26 -15 -26 4 0 -4
-19 -16 -42 -12 -24 -23 -50 -24 -59 -1 -9 -10 -36 -22 -60 -11 -24 -24 -66
-28 -94 -4 -27 -9 -54 -10 -60 -1 -5 -2 -15 -3 -21 0 -6 -23 -40 -50 -75 -48
-62 -78 -119 -63 -119 4 0 22 14 40 30 50 45 50 44 43 -52 -1 -5 -33 -41 -71
-82 -67 -70 -114 -142 -103 -158 2 -5 15 -8 29 -8 28 0 28 -2 10 -55 -19 -55
-10 -63 29 -25 30 29 34 30 43 14 9 -16 11 -15 22 6 10 18 9 24 -1 30 -10 7
-9 15 2 42 17 41 60 108 70 108 4 0 4 12 0 26 -4 15 -4 52 0 83 4 31 8 80 8
109 1 29 8 66 16 81 8 16 20 62 26 103 7 40 18 76 25 81 7 4 22 37 35 75 12
37 33 84 46 105 21 33 23 48 21 114 l-3 76 -18 -61z m-251 -840 c-13 -26 -46
-61 -46 -49 0 9 39 93 47 101 15 15 14 -22 -1 -52z"/>
<path d="M5001 2234 c0 -11 3 -14 6 -6 3 7 2 16 -1 19 -3 4 -6 -2 -5 -13z"/>
<path d="M459 2211 c-28 -23 -20 -38 10 -19 22 13 36 38 22 38 -5 0 -19 -9
-32 -19z"/>
<path d="M3903 2182 c-47 -24 -40 -35 17 -30 28 3 53 1 56 -3 3 -5 10 -9 15
-9 6 0 1 14 -11 30 -24 34 -32 35 -77 12z"/>
<path d="M5030 2175 c-14 -17 -4 -55 14 -55 20 0 40 27 26 35 -6 4 -9 13 -6
21 7 18 -18 18 -34 -1z"/>
<path d="M5663 2130 c0 -30 2 -43 4 -27 2 15 2 39 0 55 -2 15 -4 2 -4 -28z"/>
<path d="M6293 2163 c-12 -31 -50 -82 -57 -76 -3 4 -6 -1 -6 -10 0 -9 -7 -17
-16 -17 -9 0 -33 -14 -55 -30 -33 -27 -41 -29 -58 -18 -17 11 -23 10 -37 -4
-16 -15 -39 -127 -29 -137 5 -4 104 71 144 109 14 14 37 40 51 59 14 18 27 36
30 40 3 3 14 11 25 17 11 6 26 23 33 37 7 15 17 27 23 27 5 0 9 5 9 10 0 18
-50 11 -57 -7z"/>
<path d="M735 2160 c-4 -7 16 -62 30 -78 1 -2 19 5 39 15 36 18 46 33 24 33
-7 0 -24 9 -38 20 -28 22 -46 25 -55 10z"/>
<path d="M870 2150 c-11 -7 -4 -10 28 -10 23 0 42 5 42 10 0 13 -50 13 -70 0z"/>
<path d="M5 2099 c-11 -17 1 -21 15 -4 8 9 8 15 2 15 -6 0 -14 -5 -17 -11z"/>
<path d="M5402 2039 c-32 -62 -40 -99 -22 -99 14 0 41 44 50 82 5 18 12 43 15
56 14 44 -12 21 -43 -39z"/>
<path d="M6400 2059 c0 -5 5 -7 10 -4 6 3 10 8 10 11 0 2 -4 4 -10 4 -5 0 -10
-5 -10 -11z"/>
<path d="M6350 2020 c-21 -19 -28 -30 -19 -30 17 0 65 47 57 55 -2 3 -20 -9
-38 -25z"/>
<path d="M214 2003 c-4 -15 -13 -38 -20 -52 -20 -38 -18 -65 4 -56 53 22 101
26 131 10 38 -19 40 -10 5 21 -28 27 -32 28 -69 14 -23 -9 -25 -8 -15 9 6 13
6 29 -1 50 -13 38 -26 40 -35 4z"/>
<path d="M750 1985 c-21 -25 -1 -31 23 -7 17 18 18 22 5 22 -8 0 -21 -7 -28
-15z"/>
<path d="M5836 1977 c3 -10 9 -15 12 -12 3 3 0 11 -7 18 -10 9 -11 8 -5 -6z"/>
<path d="M591 1923 c-1 -34 3 -65 9 -68 6 -4 4 -17 -5 -35 -16 -30 -22 -200
-7 -200 4 0 14 4 22 10 9 5 19 5 27 -2 16 -13 71 10 78 33 3 9 1 38 -5 64 -10
44 -9 54 16 143 2 9 -4 -1 -15 -23 -11 -22 -20 -48 -20 -57 -1 -10 -6 -18 -11
-18 -6 0 -15 -11 -20 -25 -12 -30 -26 -32 -40 -5 -12 23 -6 40 15 40 22 0 28
20 15 45 -10 19 -10 27 3 45 19 27 12 49 -20 61 -13 5 -28 19 -33 31 -7 18 -9
9 -9 -39z"/>
<path d="M4578 1957 c-37 -30 -38 -77 -4 -93 30 -14 40 -7 44 29 1 15 3 39 5
54 3 34 -12 37 -45 10z"/>
<path d="M4971 1963 c8 -10 24 -29 37 -43 31 -34 28 -40 -18 -40 -38 0 -40 -2
-40 -30 0 -30 1 -30 40 -24 21 4 47 3 57 -1 15 -6 14 -8 -10 -18 l-28 -12 40
-39 c36 -35 39 -41 24 -52 -16 -11 -14 -17 15 -71 l32 -60 -26 -11 c-47 -22
-71 -15 -79 21 -4 17 -8 39 -9 48 0 9 -15 28 -33 43 l-32 27 -16 -25 c-16 -24
-16 -27 4 -54 20 -29 20 -30 2 -46 -11 -10 -17 -25 -14 -37 3 -10 1 -19 -5
-19 -10 0 -36 -89 -28 -97 3 -3 15 11 27 31 11 20 25 36 29 36 5 0 10 10 12
22 4 27 28 36 28 11 0 -11 6 -28 14 -38 11 -15 17 -17 28 -7 8 7 29 9 50 6 28
-5 38 -13 49 -40 15 -40 36 -61 64 -64 36 -4 45 0 45 18 0 10 7 27 15 38 33
44 4 171 -54 231 -34 35 -24 43 25 21 45 -19 47 -20 64 -2 22 25 53 111 46
129 -3 8 -13 15 -23 15 -10 0 -31 7 -47 15 -38 20 -59 19 -98 -5 -45 -27 -88
-27 -88 1 0 12 8 23 18 26 13 3 19 15 20 38 1 32 0 33 -47 39 -27 4 -54 13
-61 21 -7 8 -19 15 -27 15 -13 0 -13 -2 -2 -17z m299 -153 c13 -24 4 -60 -13
-60 -19 1 -47 26 -47 43 0 15 25 36 42 37 4 0 12 -9 18 -20z m-93 -6 c-3 -3
-12 -4 -19 -1 -8 3 -5 6 6 6 11 1 17 -2 13 -5z m-202 -234 c3 -5 1 -10 -4 -10
-6 0 -11 5 -11 10 0 6 2 10 4 10 3 0 8 -4 11 -10z"/>
<path d="M5904 1950 c1 -30 20 -41 29 -17 4 10 6 10 6 0 1 -7 6 -13 11 -13 6
0 4 13 -5 30 -20 39 -42 39 -41 0z"/>
<path d="M6372 1972 c-14 -2 -35 -23 -57 -58 -19 -30 -39 -54 -45 -54 -6 0
-15 11 -22 25 -12 26 -34 24 -23 -2 8 -22 -4 -53 -21 -53 -8 0 -14 10 -14 25
0 14 -3 25 -7 25 -8 0 -71 -48 -104 -80 -45 -42 -92 -233 -73 -292 8 -25 21
-14 28 24 7 36 41 98 54 98 4 0 6 -35 4 -78 -1 -43 1 -89 6 -101 8 -23 9 -23
25 11 9 20 23 41 32 48 8 7 15 18 15 25 0 6 9 20 21 31 12 10 30 36 40 57 11
20 23 37 28 37 5 0 25 21 45 47 32 41 35 49 21 59 -20 15 -19 26 3 23 9 -1 20
0 25 1 12 4 26 7 37 9 6 0 10 10 10 22 0 11 4 17 10 14 5 -3 7 0 4 9 -3 8 -12
12 -20 9 -17 -6 -18 17 -3 70 13 47 10 53 -19 49z m-177 -219 c-4 -10 -9 -32
-10 -50 -3 -34 -47 -102 -53 -83 -4 11 4 33 29 82 5 10 9 26 9 36 0 20 8 32
23 32 5 0 6 -8 2 -17z m-95 -26 c0 -18 -43 -63 -48 -49 -4 13 27 62 39 62 5 0
9 -6 9 -13z"/>
<path d="M5290 1914 c-13 -34 -13 -37 8 -50 15 -10 20 -7 31 17 10 23 10 33 1
44 -18 22 -29 18 -40 -11z"/>
<path d="M4856 1906 c7 -19 48 -22 42 -3 -3 6 -14 13 -26 15 -16 3 -20 -1 -16
-12z"/>
<path d="M5821 1891 c-11 -7 -11 -20 0 -80 12 -62 16 -71 35 -71 32 0 40 18
42 90 2 62 1 64 -14 43 -22 -30 -42 -29 -46 2 -2 18 -7 22 -17 16z"/>
<path d="M4191 1864 c2 -44 9 -65 20 -59 14 10 10 61 -6 75 -13 11 -15 8 -14
-16z"/>
<path d="M5432 1847 c-16 -43 -15 -87 1 -87 6 0 21 7 31 15 41 31 49 10 12
-29 -13 -15 -34 -26 -49 -26 -31 0 -34 -7 -42 -109 -8 -87 2 -106 26 -48 8 17
14 35 14 40 0 4 3 7 8 7 4 0 18 0 32 0 42 0 39 -25 -11 -90 -43 -54 -50 -59
-60 -45 -11 15 -14 13 -19 -18 -4 -20 -4 -40 -1 -46 4 -6 0 -27 -9 -47 -15
-36 -15 -36 8 -31 12 3 37 8 55 12 l34 8 -8 -49 c-3 -27 -11 -59 -15 -72 -5
-13 -9 -39 -9 -59 l0 -36 21 27 c21 27 109 225 109 246 0 5 -9 10 -20 10 -11
0 -20 4 -20 10 0 14 -40 6 -50 -11 -7 -10 -12 -11 -21 -2 -17 17 -7 46 21 60
14 7 30 20 37 29 7 9 24 17 39 17 37 0 97 36 90 54 -3 8 1 21 9 29 8 9 15 27
15 40 0 22 -3 24 -22 18 -50 -15 -73 -55 -46 -82 9 -9 9 -12 0 -12 -16 0 -53
42 -49 55 3 5 0 18 -5 28 -10 19 2 23 19 6 12 -12 73 14 73 31 0 21 -34 42
-62 36 -19 -4 -28 -1 -28 8 0 9 18 15 54 19 52 5 96 23 96 40 0 4 -15 5 -34 2
-26 -5 -36 -3 -43 10 -9 16 -12 16 -41 1 -29 -15 -34 -15 -66 1 -23 12 -36 27
-40 46 -7 36 -19 34 -34 -6z"/>
<path d="M318 1848 c-11 -8 -19 -30 -21 -54 -4 -44 -36 -123 -50 -124 -5 0 -6
17 -2 39 5 31 3 40 -11 45 -24 9 -30 -1 -15 -25 11 -19 8 -24 -26 -54 -46 -41
-51 -42 -63 -11 -12 33 -25 39 -42 18 -20 -23 -30 -50 -33 -92 -2 -19 -6 -59
-10 -87 -7 -60 0 -93 20 -93 9 0 16 19 21 58 8 65 12 94 13 105 2 17 19 5 30
-21 14 -35 8 -65 -31 -152 -31 -68 -41 -140 -22 -147 7 -2 14 7 18 21 3 13 21
41 40 60 18 20 31 37 29 39 -2 2 4 21 13 42 10 25 13 50 9 73 -9 46 9 34 36
-26 12 -26 23 -49 26 -52 10 -11 23 29 24 75 1 61 11 97 24 93 6 -2 9 -15 7
-30 -2 -16 1 -28 6 -28 12 0 52 74 52 96 0 15 2 16 9 5 5 -7 7 -29 6 -48 -7
-72 12 -79 69 -26 37 34 38 37 20 50 -17 13 -17 15 -2 41 9 15 26 27 37 27 11
0 23 4 27 8 4 4 2 7 -6 7 -10 0 -10 3 0 14 8 10 9 33 5 71 -7 52 -25 87 -25
48 0 -12 -12 -23 -30 -30 -21 -8 -37 -25 -50 -55 -11 -24 -26 -51 -34 -61 -13
-16 -14 -16 -20 8 -4 14 -11 25 -16 25 -6 0 -10 11 -10 24 0 14 -5 28 -10 31
-8 5 -8 11 0 20 6 8 10 30 8 50 -3 32 -5 35 -20 23z"/>
<path d="M5739 1848 c-21 -17 -31 -72 -16 -87 8 -8 3 -18 -23 -40 -31 -26 -34
-32 -23 -50 13 -21 4 -63 -16 -76 -17 -10 -13 -19 16 -32 38 -18 64 6 56 51
-5 25 -3 29 8 19 7 -7 23 -13 35 -13 29 0 32 11 28 100 -6 124 -25 160 -65
128z"/>
<path d="M6478 1815 c-22 -30 -33 -58 -33 -81 0 -19 3 -34 6 -34 7 0 59 39 88
66 22 21 22 21 1 27 -12 3 -20 0 -20 -7 0 -15 -44 -58 -52 -51 -12 12 6 55 33
83 18 18 25 33 20 37 -6 3 -25 -15 -43 -40z"/>
<path d="M4053 1844 c-7 -3 -9 -12 -6 -20 3 -8 0 -20 -5 -27 -12 -14 -5 -57 8
-57 4 0 13 7 20 15 7 8 9 15 5 15 -4 0 -2 7 5 15 6 8 9 19 5 25 -3 5 1 10 11
10 13 0 14 3 4 15 -13 15 -25 17 -47 9z"/>
<path d="M4350 1820 c0 -6 4 -9 9 -5 5 3 12 1 16 -5 3 -5 -1 -10 -9 -10 -19 0
-21 -11 -5 -27 9 -9 19 -8 41 3 27 14 32 14 54 -1 13 -8 24 -11 24 -6 0 5 -9
13 -21 16 -12 4 -18 12 -15 21 3 8 1 14 -5 14 -5 0 -12 -7 -15 -15 -8 -21 -36
-19 -32 3 2 11 -4 18 -19 20 -13 2 -23 -2 -23 -8z"/>
<path d="M1013 1752 c-47 -52 -58 -69 -47 -75 19 -11 34 0 34 26 0 12 19 40
42 64 23 23 40 45 37 47 -2 3 -32 -25 -66 -62z"/>
<path d="M1890 1810 c0 -5 5 -10 10 -10 6 0 10 5 10 10 0 6 -4 10 -10 10 -5 0
-10 -4 -10 -10z"/>
<path d="M4677 1806 c-19 -20 -21 -32 -8 -41 11 -6 34 31 29 47 -2 6 -11 4
-21 -6z"/>
<path d="M4818 1813 c7 -3 16 -2 19 1 4 3 -2 6 -13 5 -11 0 -14 -3 -6 -6z"/>
<path d="M932 1793 c-20 -17 -56 -103 -47 -112 8 -7 35 21 35 36 0 7 9 32 20
53 23 45 21 48 -8 23z"/>
<path d="M4254 1795 c-7 -18 12 -45 32 -45 7 0 20 7 29 16 12 12 13 19 4 30
-15 19 -58 18 -65 -1z"/>
<path d="M4965 1801 c-7 -12 12 -24 25 -16 11 7 4 25 -10 25 -5 0 -11 -4 -15
-9z"/>
<path d="M1990 1787 c18 -19 90 -34 90 -19 0 15 -11 20 -61 28 -40 6 -42 5
-29 -9z"/>
<path d="M6702 1777 c-23 -25 -30 -67 -11 -67 8 0 10 -12 6 -36 -10 -59 11
-84 39 -46 8 10 13 46 14 95 0 85 -9 95 -48 54z"/>
<path d="M1730 1783 c0 -19 24 -32 51 -26 17 3 35 0 44 -7 16 -13 50 -6 41 9
-3 4 -25 11 -48 15 -24 4 -53 9 -65 13 -13 3 -23 1 -23 -4z"/>
<path d="M3046 1773 c-3 -10 -17 -36 -31 -58 -64 -102 -104 -213 -72 -202 6 2
11 13 9 25 -2 11 2 23 7 27 7 3 8 0 5 -9 -11 -28 2 -17 56 50 29 36 55 78 56
92 2 16 18 41 38 60 l36 32 -49 0 c-37 0 -50 -4 -55 -17z"/>
<path d="M3723 1768 c2 -7 10 -13 17 -13 7 0 15 6 18 13 2 7 -5 12 -18 12 -13
0 -20 -5 -17 -12z"/>
<path d="M4554 1765 c-11 -27 11 -40 42 -27 31 15 27 36 -9 40 -18 2 -29 -2
-33 -13z"/>
<path d="M2165 1760 c3 -5 10 -10 16 -10 5 0 9 5 9 10 0 6 -7 10 -16 10 -8 0
-12 -4 -9 -10z"/>
<path d="M2777 1762 c-9 -2 -17 -7 -17 -11 0 -8 96 2 105 10 5 6 -61 6 -88 1z"/>
<path d="M2908 1763 c7 -3 16 -2 19 1 4 3 -2 6 -13 5 -11 0 -14 -3 -6 -6z"/>
<path d="M2955 1760 c-3 -5 1 -10 9 -10 9 0 19 0 23 -1 4 0 9 4 11 10 5 14
-35 14 -43 1z"/>
<path d="M3898 1764 c-4 -3 3 -21 16 -38 13 -17 26 -40 29 -51 3 -11 5 5 4 35
-2 47 -5 55 -22 58 -12 2 -24 0 -27 -4z"/>
<path d="M4918 1753 c-10 -3 -18 -9 -18 -14 0 -12 37 -12 45 0 7 12 -5 19 -27
14z"/>
<path d="M4110 1722 c0 -10 5 -23 12 -30 7 -7 10 -12 8 -13 -3 0 -31 -2 -64
-4 -32 -2 -63 -8 -68 -13 -14 -14 18 -22 67 -16 22 3 56 5 75 5 112 -1 126 1
160 22 20 12 35 28 33 35 -3 6 -9 9 -15 6 -6 -4 -14 -1 -18 6 -6 10 -16 11
-51 1 -85 -25 -106 -25 -114 -2 -8 26 -25 28 -25 3z"/>
<path d="M4437 1733 c-12 -12 -7 -20 18 -31 34 -16 33 -16 27 13 -4 24 -30 34
-45 18z"/>
<path d="M4770 1720 c0 -11 6 -20 14 -20 20 0 28 27 10 34 -23 9 -24 8 -24
-14z"/>
<path d="M5938 1668 c-62 -70 -108 -134 -108 -151 0 -5 9 -6 19 -2 40 12 33
-18 -13 -59 -44 -40 -57 -68 -36 -81 18 -11 50 6 50 25 0 11 14 29 30 42 17
12 30 28 30 35 0 7 9 13 21 13 15 0 19 -5 15 -15 -3 -9 0 -15 8 -15 8 0 17 7
20 16 13 33 5 54 -24 69 -16 9 -30 22 -30 31 0 20 19 54 40 74 24 21 64 90 52
90 -5 0 -39 -33 -74 -72z"/>
<path d="M6624 1685 c-8 -58 -2 -64 25 -26 18 24 20 35 11 51 -17 32 -28 24
-36 -25z"/>
<path d="M20 1710 c0 -5 5 -10 10 -10 6 0 10 5 10 10 0 6 -4 10 -10 10 -5 0
-10 -4 -10 -10z"/>
<path d="M1300 1709 c0 -5 5 -7 10 -4 6 3 10 8 10 11 0 2 -4 4 -10 4 -5 0 -10
-5 -10 -11z"/>
<path d="M4570 1711 l-44 -6 24 -16 c44 -27 87 -41 121 -37 l34 3 -34 33 c-19
17 -39 31 -45 30 -6 0 -31 -4 -56 -7z"/>
<path d="M6353 1700 c-18 -11 -33 -23 -33 -28 0 -4 -29 -39 -65 -77 -36 -38
-65 -72 -65 -77 0 -19 30 -5 59 27 17 19 34 35 38 35 5 0 32 21 61 46 36 31
52 53 52 70 0 29 -6 30 -47 4z"/>
<path d="M3152 1698 c-24 -12 -25 -29 -1 -36 8 -3 11 -1 7 3 -4 4 2 16 14 26
23 21 15 24 -20 7z"/>
<path d="M3200 1700 c0 -13 11 -13 30 0 12 8 11 10 -7 10 -13 0 -23 -4 -23
-10z"/>
<path d="M6410 1668 c-12 -22 -12 -22 6 -6 10 10 15 20 12 24 -4 3 -12 -5 -18
-18z"/>
<path d="M12 1668 c-8 -8 -12 -52 -11 -142 1 -141 9 -133 28 27 11 94 5 137
-17 115z"/>
<path d="M4317 1652 c-25 -26 -26 -31 -14 -55 l14 -26 22 27 c17 21 30 27 63
27 60 0 59 21 -3 39 -29 9 -53 16 -54 16 -1 0 -13 -13 -28 -28z"/>
<path d="M4488 1629 c-62 -32 -70 -79 -13 -79 25 0 45 15 68 52 32 52 11 63
-55 27z"/>
<path d="M6386 1617 c-19 -29 -39 -107 -26 -107 3 0 17 11 29 24 17 18 22 33
19 67 l-3 44 -19 -28z"/>
<path d="M3828 1623 c6 -2 18 -2 25 0 6 3 1 5 -13 5 -14 0 -19 -2 -12 -5z"/>
<path d="M3940 1616 c0 -8 -8 -17 -17 -20 -15 -6 -15 -8 0 -23 15 -15 19 -15
52 3 44 23 52 33 34 45 -22 14 -69 11 -69 -5z"/>
<path d="M4107 1613 c-9 -8 12 -33 28 -33 6 0 20 9 30 20 18 20 17 20 -17 20
-19 0 -38 -3 -41 -7z"/>
<path d="M4206 1581 c-3 -5 3 -11 14 -14 24 -6 36 8 14 17 -20 8 -22 8 -28 -3z"/>
<path d="M6273 1452 c-23 -37 -45 -80 -48 -97 -12 -52 -34 -93 -70 -126 -38
-37 -37 -58 2 -32 l25 17 -7 -63 c-11 -94 24 -58 56 59 7 25 16 50 21 56 4 6
3 15 -3 21 -11 11 33 160 59 201 8 12 13 25 10 27 -2 2 -22 -26 -45 -63z"/>
<path d="M1156 1463 c-17 -27 -62 -117 -100 -202 -68 -148 -96 -189 -96 -140
0 12 -3 19 -6 16 -4 -4 -6 -47 -5 -96 1 -50 -2 -92 -8 -95 -6 -4 -5 -16 4 -33
17 -32 7 -54 -12 -27 -21 29 -32 1 -20 -56 5 -27 6 -62 2 -77 -5 -15 -7 -32
-7 -36 1 -4 -4 -20 -12 -35 -7 -15 -17 -51 -21 -81 -5 -39 -12 -55 -25 -58
-10 -3 -30 -23 -44 -44 -15 -21 -31 -39 -36 -39 -5 0 -17 -11 -25 -24 -17 -25
-13 -38 79 -256 40 -96 44 -125 18 -132 -13 -4 -26 5 -42 28 -12 19 -26 34
-31 34 -11 0 -69 114 -69 135 0 8 -7 15 -15 15 -17 0 -20 16 -5 25 7 4 3 19
-10 40 -11 18 -18 40 -14 48 3 8 -2 29 -11 46 -11 22 -13 36 -6 50 13 23 3 87
-15 102 -16 13 -19 45 -5 54 5 3 12 1 16 -5 13 -21 32 -8 53 36 l23 46 -25 25
c-14 13 -23 30 -21 36 2 7 6 46 9 87 l5 75 -14 -50 c-7 -27 -30 -111 -50 -185
-19 -74 -41 -148 -46 -165 -16 -43 -27 -121 -38 -278 -7 -93 -16 -145 -26
-160 -8 -12 -15 -36 -15 -54 l0 -33 560 0 c366 0 560 3 561 10 1 6 2 14 3 19
0 5 4 13 9 17 4 4 7 16 7 26 0 10 3 18 8 18 4 0 6 -20 4 -45 l-4 -45 55 0 c43
0 59 4 67 18 10 16 10 16 20 0 7 -12 23 -18 45 -18 l35 0 0 51 c0 45 2 50 15
39 13 -10 17 -7 30 23 8 20 15 41 15 46 0 6 13 8 30 4 35 -6 34 -11 35 139 0
84 -2 98 -16 98 -19 0 -49 -71 -49 -114 0 -23 -4 -27 -19 -23 -14 3 -21 -2
-25 -19 -9 -35 3 -74 20 -67 8 3 14 2 14 -1 0 -6 -25 -49 -38 -66 -8 -11 -22
29 -22 66 0 29 -5 44 -16 48 -9 3 -14 12 -11 19 2 6 -3 26 -11 42 l-16 30 -8
-64 c-4 -35 -10 -71 -13 -80 -12 -30 -25 11 -25 76 0 55 3 64 23 74 12 6 33
22 47 34 14 12 49 35 78 51 46 24 56 26 74 15 17 -11 23 -9 44 10 19 18 26 20
38 10 11 -10 16 -9 23 1 4 8 29 22 54 31 26 10 55 27 65 38 15 17 26 19 71 13
58 -7 76 9 22 20 -66 13 -119 7 -159 -19 -22 -14 -44 -25 -48 -25 -5 0 -7 23
-4 50 2 29 0 50 -5 50 -10 0 -16 -12 -48 -83 -9 -20 -20 -35 -26 -32 -5 4 -9
1 -9 -4 0 -6 -11 -11 -25 -11 -14 0 -28 -7 -31 -15 -4 -8 -15 -15 -25 -15 -11
0 -22 -7 -25 -15 -4 -8 -10 -12 -16 -9 -5 3 -7 13 -4 21 8 20 -49 8 -86 -18
-30 -21 -43 -24 -33 -8 4 6 14 38 21 72 8 34 23 81 34 104 11 24 20 48 20 55
0 20 156 118 188 118 16 0 36 16 132 101 32 28 33 30 10 24 -45 -12 -132 -59
-148 -80 -10 -12 -39 -27 -67 -35 -55 -15 -168 -72 -201 -101 -11 -11 -24 -19
-28 -19 -11 0 -90 -56 -160 -113 -45 -36 -65 -47 -82 -43 -19 5 -24 0 -34 -30
-15 -44 -80 -76 -80 -39 0 8 -5 15 -11 15 -6 0 -9 -9 -6 -20 6 -24 -46 -85
-64 -75 -7 5 -8 10 -1 14 17 10 20 111 3 111 -11 0 -35 -85 -28 -102 7 -19
-87 -112 -106 -105 -36 14 -27 111 14 158 12 13 25 34 30 47 5 13 17 22 29 22
11 0 20 6 20 13 0 15 40 94 67 134 11 15 25 47 32 71 10 36 10 48 -3 74 -9 17
-17 56 -17 87 -2 53 -2 52 -9 -21 -10 -106 -19 -148 -31 -148 -6 0 -8 -9 -4
-20 9 -28 -14 -94 -41 -122 -14 -12 -29 -27 -34 -33 -6 -5 -26 -31 -45 -56
-19 -26 -41 -49 -50 -53 -22 -8 -65 37 -65 69 0 14 -9 54 -21 88 -23 67 -22
120 4 195 8 23 11 45 6 48 -17 10 -9 26 11 21 13 -3 20 0 20 9 0 9 -8 14 -17
12 -16 -3 -18 5 -15 67 6 120 32 219 97 370 7 17 22 60 34 96 12 36 28 75 36
85 16 21 19 34 7 34 -4 0 -20 -21 -36 -47z m624 -867 c0 -24 -5 -35 -18 -38
-24 -7 -82 -129 -82 -173 0 -25 -5 -35 -20 -40 -26 -8 -34 -44 -25 -108 12
-88 11 -101 -7 -105 -15 -3 -17 5 -17 62 1 64 -20 121 -36 97 -3 -6 -4 -15 -1
-20 3 -4 -1 -16 -8 -26 -13 -18 -15 -17 -32 16 -14 26 -19 30 -22 17 -2 -10
-10 -18 -18 -18 -10 0 -14 -12 -14 -38 0 -21 -5 -43 -12 -50 -7 -7 -8 -12 -2
-12 6 0 10 -20 10 -45 -1 -45 -11 -59 -22 -30 -4 8 -10 12 -16 9 -5 -3 -2 -11
7 -18 13 -10 14 -14 2 -30 -13 -18 -15 -16 -21 25 -4 28 -3 45 4 47 14 5 13
23 -2 20 -10 -2 -14 25 -18 102 -4 93 -7 105 -22 102 -10 -2 -18 0 -18 4 0 11
44 54 56 54 6 0 32 24 58 54 33 39 55 55 80 60 21 4 37 14 41 25 3 10 30 31
61 47 31 16 58 32 60 37 3 4 16 7 30 7 21 0 24 -5 24 -34z m-832 -118 c-10 -8
-10 -11 0 -15 6 -2 12 -9 12 -14 0 -5 -6 -8 -12 -6 -17 3 -23 -60 -7 -79 17
-21 29 -1 29 49 0 47 25 61 52 28 19 -24 25 -86 9 -95 -5 -3 -16 -29 -25 -58
-21 -63 -54 -136 -67 -143 -15 -10 -22 47 -10 80 15 43 14 85 -3 85 -21 0 -27
101 -10 167 20 75 26 83 37 44 6 -25 5 -36 -5 -43z m1022 -172 c0 -14 -4 -28
-10 -31 -6 -4 -10 7 -10 24 0 17 5 31 10 31 6 0 10 -11 10 -24z m-645 5 c3 -5
0 -21 -7 -36 -9 -21 -9 -28 1 -34 8 -5 10 -18 5 -34 -8 -33 9 -36 30 -5 l16
22 0 -24 c0 -52 -13 -100 -26 -100 -10 0 -13 10 -12 31 4 41 -19 50 -28 12 -4
-15 -10 -32 -14 -38 -4 -5 -10 -17 -13 -25 -2 -8 -3 -2 -1 13 3 18 -4 38 -16
54 -25 32 -25 54 0 81 11 12 20 34 20 51 0 33 30 55 45 32z m-215 -49 c0 -11
-9 -27 -20 -37 -22 -20 -26 -9 -8 30 13 29 28 33 28 7z m115 -43 c-16 -30 -29
-36 -40 -18 -8 12 34 61 46 53 5 -3 2 -18 -6 -35z m-635 -24 c0 -25 -4 -45
-10 -45 -5 0 -10 20 -10 45 0 25 5 45 10 45 6 0 10 -20 10 -45z"/>
<path d="M1486 332 c-3 -6 -1 -14 5 -17 14 -9 20 -2 10 14 -6 8 -11 9 -15 3z"/>
<path d="M1550 330 c0 -5 5 -10 10 -10 6 0 10 5 10 10 0 6 -4 10 -10 10 -5 0
-10 -4 -10 -10z"/>
<path d="M770 1459 c0 -42 13 -69 33 -69 4 0 6 4 2 10 -3 5 0 18 6 28 10 16 8
24 -14 48 l-27 29 0 -46z"/>
<path d="M6647 1464 c-28 -28 -50 -81 -38 -89 10 -5 56 59 66 93 8 28 4 28
-28 -4z"/>
<path d="M404 1442 c-13 -8 -64 -113 -64 -133 -1 -8 -7 -31 -14 -51 -8 -21
-11 -38 -7 -38 11 0 52 80 46 91 -4 5 -2 15 3 22 10 12 54 117 49 117 -1 0 -7
-4 -13 -8z"/>
<path d="M866 1397 c-14 -23 -32 -61 -39 -82 -19 -53 -32 -169 -18 -161 10 7
71 188 71 213 0 8 7 27 15 43 24 47 -1 35 -29 -13z"/>
<path d="M5007 1413 c3 -8 12 -12 19 -9 17 7 18 -6 2 -22 -9 -9 -6 -12 16 -12
15 0 25 -4 21 -10 -3 -5 -1 -10 5 -10 7 0 10 14 8 36 -3 34 -5 37 -40 39 -27
1 -35 -2 -31 -12z"/>
<path d="M6736 1412 c-4 -13 -5 -26 -2 -29 10 -11 18 4 14 29 l-4 23 -8 -23z"/>
<path d="M5903 1403 c-27 -13 -31 -18 -22 -34 15 -29 55 -25 63 7 10 37 -3 46
-41 27z"/>
<path d="M177 1365 c-10 -24 -17 -52 -15 -62 3 -10 -6 -33 -19 -50 -22 -30
-23 -39 -17 -108 4 -42 11 -78 15 -81 5 -3 9 1 10 8 0 7 3 36 5 63 2 28 4 62
4 77 0 31 18 47 30 27 12 -18 24 32 24 99 0 71 -15 82 -37 27z"/>
<path d="M6090 1380 c0 -11 5 -20 10 -20 6 0 10 9 10 20 0 11 -4 20 -10 20 -5
0 -10 -9 -10 -20z"/>
<path d="M6721 1344 c0 -11 3 -14 6 -6 3 7 2 16 -1 19 -3 4 -6 -2 -5 -13z"/>
<path d="M5826 1288 c-22 -18 -50 -43 -63 -56 -26 -26 -42 -22 -44 11 -2 41
-30 -88 -34 -158 -2 -38 -12 -104 -21 -145 -26 -114 -24 -170 5 -199 20 -20
23 -21 16 -5 -9 20 -9 34 -2 135 14 191 41 177 172 -87 46 -94 87 -183 91
-199 4 -17 13 -39 21 -51 15 -24 17 -181 1 -190 -5 -3 -7 -12 -4 -20 3 -8 0
-11 -9 -8 -11 4 -11 -2 -4 -33 5 -21 9 -52 9 -70 0 -17 6 -38 14 -46 12 -12
11 -22 -6 -73 -11 -32 -24 -63 -29 -69 -19 -19 -8 -25 46 -25 53 0 55 1 56 28
l1 27 11 -27 c6 -16 19 -28 28 -28 19 0 23 14 34 125 5 54 16 98 74 290 l17
60 -32 2 c-34 2 -38 -4 -62 -87 -9 -31 -10 -32 -12 -10 -1 14 -3 32 -4 40 -2
8 -3 67 -5 130 -1 106 -3 113 -17 95 -9 -12 -14 -32 -11 -50 2 -16 1 -41 -2
-55 -5 -19 -11 -4 -25 62 -10 47 -15 91 -12 96 3 6 -2 50 -11 98 -9 49 -15
102 -15 118 1 16 -3 35 -9 42 -6 7 -8 22 -5 32 4 11 2 30 -3 43 -5 13 -15 57
-22 97 -7 40 -19 78 -28 85 -12 10 -14 9 -7 -8 10 -25 34 -143 34 -170 0 -11
3 -73 8 -137 5 -86 4 -118 -4 -118 -7 0 -37 35 -69 78 -65 88 -102 125 -145
143 -24 10 -28 16 -23 33 4 12 10 38 15 59 10 49 20 59 20 19 0 -24 4 -32 18
-32 24 0 72 77 72 115 0 37 16 55 47 55 27 0 31 30 7 54 -22 23 -34 20 -78
-16z"/>
<path d="M6596 1312 c-8 -14 -36 -130 -36 -153 0 -20 2 -21 14 -9 12 14 46
128 46 158 0 13 -16 16 -24 4z"/>
<path d="M6717 1272 c-28 -29 -35 -74 -17 -102 19 -27 50 24 50 81 0 27 -1 49
-3 49 -2 0 -15 -13 -30 -28z"/>
<path d="M324 1141 c-53 -53 -84 -90 -84 -99 0 -4 5 -13 11 -19 8 -8 21 0 46
28 19 21 32 43 28 49 -3 5 0 8 7 5 13 -5 48 42 48 64 0 20 -17 11 -56 -28z"/>
<path d="M1315 1116 c-22 -33 -53 -39 -104 -22 -17 6 -22 5 -19 -5 6 -19 127
-64 139 -52 6 6 9 33 7 60 l-3 50 -20 -31z"/>
<path d="M6054 1044 c10 -52 53 -114 78 -114 27 0 -3 107 -42 148 -37 40 -49
29 -36 -34z"/>
<path d="M6279 1073 c-11 -29 -5 -73 10 -73 18 0 38 45 30 67 -12 34 -28 37
-40 6z"/>
<path d="M1963 1043 c-12 -26 -21 -48 -20 -49 1 0 17 3 35 8 33 9 41 32 26 72
-10 25 -17 19 -41 -31z"/>
<path d="M3598 1038 c-33 -43 -54 -86 -61 -123 -3 -16 -9 -39 -12 -50 -5 -16
-5 -17 4 -5 11 15 10 17 24 -30 8 -26 45 71 59 158 8 45 13 82 12 82 -1 0 -13
-15 -26 -32z"/>
<path d="M3436 1038 c-9 -34 -7 -45 4 -28 8 13 10 12 10 -3 0 -10 5 -15 10
-12 14 9 12 41 -4 54 -11 9 -15 7 -20 -11z"/>
<path d="M6742 1034 c-1 -12 -10 -32 -21 -45 -17 -22 -24 -48 -37 -124 -10
-65 38 -70 57 -6 5 20 9 72 7 116 -2 44 -5 70 -6 59z"/>
<path d="M6362 983 c-2 -38 39 -153 65 -184 16 -19 17 -91 2 -106 -13 -13 -29
-156 -33 -293 -2 -58 -10 -102 -25 -138 -11 -29 -21 -64 -21 -77 0 -13 -4 -34
-9 -47 -8 -21 -17 -51 -36 -115 -5 -19 -2 -23 14 -23 11 0 22 9 26 21 4 12 19
39 34 60 24 35 29 38 61 32 46 -8 47 -9 27 -42 -19 -32 -23 -71 -7 -71 5 0 14
19 21 43 6 23 16 56 21 72 17 52 35 164 27 177 -4 6 -5 92 -2 191 4 131 2 178
-6 173 -6 -4 -11 -16 -11 -26 0 -25 -15 -33 -30 -16 -19 24 -13 65 24 180 27
81 33 112 25 122 -6 7 -8 26 -4 43 3 17 2 32 -4 36 -6 3 -11 -1 -11 -9 0 -9
-11 -41 -25 -71 -24 -56 -45 -65 -45 -22 0 12 -9 36 -21 52 -11 17 -24 40 -29
53 -14 33 -27 27 -28 -15z m128 -838 c0 -8 -4 -15 -10 -15 -5 0 -10 7 -10 15
0 8 5 15 10 15 6 0 10 -7 10 -15z"/>
<path d="M6203 973 c-42 -21 -54 -75 -24 -107 21 -22 27 -47 15 -59 -4 -3 -14
3 -24 15 -16 21 -17 21 -33 -21 -25 -60 -22 -90 8 -101 14 -5 25 -16 25 -24 0
-7 11 -21 24 -29 14 -9 29 -35 37 -61 7 -25 19 -46 26 -46 12 0 18 -37 14 -81
-1 -9 5 -22 14 -29 8 -7 15 -19 15 -27 0 -8 7 -13 18 -11 11 2 16 11 14 25 -2
12 4 33 13 47 13 19 15 36 10 68 -11 61 -8 100 7 109 20 13 24 142 4 158 -13
11 -16 9 -22 -15 -6 -25 -8 -26 -14 -9 -4 11 -4 25 0 30 8 10 -8 89 -23 113
-5 7 -16 11 -25 10 -11 -2 -18 6 -22 26 -6 36 -16 39 -57 19z m52 -135 c-6
-24 -35 -36 -35 -15 0 11 33 46 38 42 2 -2 0 -14 -3 -27z"/>
<path d="M6667 954 c-4 -4 -7 -14 -7 -23 0 -11 3 -12 11 -4 6 6 10 16 7 23 -2
6 -7 8 -11 4z"/>
<path d="M2543 884 c8 -46 14 -52 33 -32 15 14 14 18 -1 42 -25 37 -39 33 -32
-10z"/>
<path d="M6608 903 c-53 -64 -63 -115 -32 -159 39 -56 44 -70 44 -151 0 -46 4
-83 9 -83 19 0 33 99 25 173 -5 39 -9 79 -9 87 0 8 -7 33 -14 56 -10 31 -11
46 -2 62 19 36 6 46 -21 15z"/>
<path d="M161 874 c0 -11 3 -14 6 -6 3 7 2 16 -1 19 -3 4 -6 -2 -5 -13z"/>
<path d="M5050 879 c0 -5 5 -7 10 -4 6 3 10 8 10 11 0 2 -4 4 -10 4 -5 0 -10
-5 -10 -11z"/>
<path d="M6635 879 c-11 -16 -1 -19 13 -3 7 8 8 14 3 14 -5 0 -13 -5 -16 -11z"/>
<path d="M3330 848 c0 -12 75 -82 108 -102 24 -14 13 51 -14 83 -19 24 -34 31
-60 31 -21 0 -34 -5 -34 -12z"/>
<path d="M2583 843 c-15 -5 -17 -23 -4 -23 5 0 11 7 15 15 3 8 4 15 3 14 -1 0
-8 -3 -14 -6z"/>
<path d="M5100 835 c-1 -11 -3 -29 -5 -40 -2 -11 2 -42 10 -70 28 -99 19 -190
-27 -272 -16 -29 -24 -53 -19 -53 14 0 1 -32 -17 -46 -8 -6 -12 -16 -8 -22 4
-7 27 13 59 51 117 140 134 167 102 167 -8 0 -15 -5 -15 -11 0 -8 -4 -8 -15 1
-13 10 -11 16 9 44 28 36 42 91 27 101 -6 3 -11 -1 -11 -9 0 -15 -37 -56 -51
-56 -4 0 -8 8 -7 18 0 38 -15 178 -23 197 l-8 20 -1 -20z"/>
<path d="M2765 825 c-4 -11 -17 -27 -27 -36 -12 -9 -22 -33 -25 -60 -6 -50
-20 -72 -40 -65 -11 4 -11 0 0 -27 13 -35 17 -320 4 -333 -12 -12 -35 27 -42
71 -9 64 -25 78 -25 23 0 -41 -3 -48 -20 -48 -14 0 -26 12 -37 38 -22 47 -22
47 -30 38 -5 -4 -11 -40 -14 -79 -4 -40 -10 -91 -14 -115 -5 -26 -4 -42 2 -42
14 0 40 32 45 55 3 17 6 15 21 -13 15 -27 18 -82 8 -119 -1 -1 -8 0 -16 3 -12
5 -15 -5 -15 -55 l0 -61 151 0 151 0 -6 28 c-14 64 -23 168 -15 176 5 6 10 4
13 -5 2 -8 11 -36 20 -63 9 -27 16 -69 16 -93 0 -36 3 -43 20 -43 14 0 20 7
20 23 0 54 -34 256 -50 292 -117 267 -110 249 -105 311 3 33 10 86 16 118 5
33 8 69 6 80 -3 21 -4 21 -12 1z"/>
<path d="M162 810 c3 -14 16 -72 28 -130 21 -95 23 -133 24 -392 l1 -288 122
0 122 0 5 43 c2 23 10 110 16 192 11 138 22 225 35 266 4 11 -1 18 -13 21 -19
5 -32 50 -32 115 0 39 -9 65 -21 57 -5 -3 -9 -18 -9 -34 0 -16 -5 -41 -12 -57
-14 -36 -15 -38 -17 -65 -1 -17 -4 -19 -10 -10 -6 10 -10 6 -16 -15 -4 -15 -9
-36 -10 -45 -2 -25 -15 -35 -15 -12 0 10 -5 37 -12 59 l-12 40 -8 -59 c-4 -32
-10 -61 -13 -64 -14 -15 -27 23 -34 101 -6 59 -15 95 -30 120 -12 19 -19 41
-16 50 4 8 -8 36 -26 63 -43 66 -53 75 -47 44z"/>
<path d="M3500 808 c0 -9 -3 -23 -6 -32 -3 -9 -1 -16 4 -16 16 0 26 40 13 53
-8 8 -11 7 -11 -5z"/>
<path d="M3131 793 c0 -10 4 -27 9 -38 7 -16 9 -13 9 18 1 20 -3 37 -9 37 -5
0 -10 -8 -9 -17z"/>
<path d="M4590 803 c1 -20 28 -55 34 -45 4 6 1 20 -6 32 -13 20 -28 27 -28 13z"/>
<path d="M4893 791 c-10 -15 -9 -20 1 -24 9 -4 16 3 19 19 5 29 -4 31 -20 5z"/>
<path d="M740 792 c0 -5 -9 -19 -20 -32 -22 -26 -25 -36 -10 -45 5 -3 18 13
30 37 23 48 23 48 10 48 -5 0 -10 -4 -10 -8z"/>
<path d="M2606 787 c3 -10 9 -15 12 -12 3 3 0 11 -7 18 -10 9 -11 8 -5 -6z"/>
<path d="M4800 774 c-6 -14 -10 -28 -10 -32 0 -4 -9 -24 -20 -44 -12 -22 -16
-40 -10 -43 25 -16 4 -159 -34 -233 -9 -17 -16 -39 -16 -48 0 -16 1 -16 18 -1
10 10 21 14 25 11 7 -8 27 63 27 99 0 15 4 27 10 27 5 0 9 12 8 28 0 15 2 52
6 82 9 77 15 180 10 180 -3 0 -9 -12 -14 -26z"/>
<path d="M4919 758 c-1 -2 -3 -14 -4 -28 -11 -122 -48 -231 -97 -284 -10 -11
-18 -28 -18 -37 0 -10 -11 -26 -23 -36 -13 -10 -29 -28 -36 -41 -13 -24 -37
-29 -44 -9 -2 6 -2 -1 1 -17 l4 -28 -21 21 c-23 23 -28 60 -9 79 17 17 8 15
-44 -8 -34 -15 -49 -29 -62 -59 -10 -22 -16 -43 -13 -48 7 -12 -21 -123 -35
-141 -21 -24 -18 -4 6 64 26 72 27 85 1 64 -22 -18 -30 -5 -17 25 7 14 12 41
12 59 0 38 43 102 111 164 52 47 105 119 96 129 -16 15 -207 -169 -207 -199 0
-9 -12 -38 -26 -64 -40 -72 -45 -98 -23 -117 15 -13 17 -22 9 -41 -5 -13 -7
-26 -4 -29 7 -6 -18 -57 -28 -57 -4 0 -8 -11 -8 -25 0 -14 -7 -41 -14 -60
l-15 -35 191 0 191 0 23 28 c17 18 24 22 24 11 0 -8 -6 -21 -12 -27 -10 -10
23 -12 157 -10 166 3 170 3 181 26 8 15 14 20 19 12 4 -6 1 -18 -6 -26 -11
-13 -5 -15 46 -12 58 3 59 4 66 36 6 32 36 65 50 56 7 -4 -4 -64 -15 -83 -5
-8 9 -11 46 -11 l53 0 13 40 c14 47 16 93 3 71 -5 -7 -11 -9 -14 -4 -11 18 6
84 46 176 8 17 22 53 32 80 9 26 21 47 26 47 5 0 9 7 9 15 0 8 3 15 8 15 4 0
12 10 18 23 6 12 20 40 32 62 22 41 35 118 25 154 -7 26 -23 27 -23 2 0 -11
-8 -26 -19 -33 -10 -7 -33 -42 -51 -78 -17 -36 -55 -88 -82 -117 -30 -30 -47
-56 -43 -63 5 -8 12 -7 25 5 27 25 35 0 11 -34 -42 -59 -88 -175 -85 -213 3
-34 1 -38 -20 -38 l-22 0 28 88 c33 99 39 149 18 162 -20 12 -32 -1 -61 -62
-13 -29 -26 -55 -30 -58 -3 -3 -13 -25 -23 -50 -10 -25 -23 -52 -30 -60 -8 -8
-16 -27 -20 -43 -3 -15 -10 -27 -15 -27 -14 0 -10 49 5 61 8 6 11 16 8 21 -3
5 5 22 19 36 19 21 26 42 30 95 8 87 2 106 -25 72 -30 -38 -39 -30 -23 23 8
26 15 49 15 52 0 10 -52 -56 -109 -140 -84 -121 -121 -165 -137 -162 -8 2 -14
-4 -14 -13 0 -8 -5 -15 -11 -15 -6 0 -8 9 -4 20 9 28 -2 25 -30 -7 l-24 -28 0
30 c0 17 11 48 25 70 13 22 26 48 30 57 3 10 10 18 15 18 5 0 9 12 9 26 0 14
4 23 9 19 5 -3 12 -1 16 5 3 6 -4 10 -18 10 -23 0 -37 -11 -79 -60 l-20 -25 5
80 c5 81 37 194 76 270 25 47 29 148 7 171 -13 12 -34 19 -37 12z m-132 -665
c-3 -10 -5 -4 -5 12 0 17 2 24 5 18 2 -7 2 -21 0 -30z"/>
<path d="M40 739 c0 -5 5 -7 10 -4 6 3 10 8 10 11 0 2 -4 4 -10 4 -5 0 -10 -5
-10 -11z"/>
<path d="M2630 723 c0 -10 5 -25 10 -33 8 -12 10 -9 10 12 0 15 -4 30 -10 33
-5 3 -10 -2 -10 -12z"/>
<path d="M5507 720 c-7 -28 1 -46 14 -33 6 6 6 19 1 33 l-9 24 -6 -24z"/>
<path d="M3290 713 c0 -5 21 -35 46 -68 25 -33 54 -76 64 -96 14 -27 25 -36
45 -36 22 0 25 4 25 33 0 23 -4 32 -12 29 -12 -5 -48 65 -48 93 0 18 -60 52
-92 52 -16 0 -28 -3 -28 -7z m79 -22 c12 -8 12 -12 2 -25 -11 -13 -15 -12 -32
5 -10 10 -19 21 -19 24 0 8 34 5 49 -4z"/>
<path d="M5414 695 c-10 -8 -14 -15 -8 -15 5 0 19 7 30 15 10 8 14 15 8 15 -5
0 -19 -7 -30 -15z"/>
<path d="M5315 660 c-4 -11 -18 -32 -32 -46 -29 -29 -25 -41 9 -23 29 15 47
39 48 61 0 25 -18 31 -25 8z"/>
<path d="M3639 602 c-37 -38 -52 -69 -36 -75 9 -3 9 -8 -1 -23 -7 -11 -15 -27
-18 -36 -3 -9 -12 -14 -19 -12 -9 4 -15 -7 -19 -33 -15 -99 -19 -142 -17 -188
2 -40 -2 -52 -20 -66 -25 -18 -27 -50 -9 -121 11 -44 14 -48 42 -48 17 0 28 3
24 7 -4 4 -15 8 -24 8 -27 0 -18 71 13 103 21 21 25 34 25 83 0 32 5 70 11 86
6 15 10 48 10 73 0 25 9 75 21 112 11 37 18 73 15 80 -2 7 5 26 16 41 26 37
18 42 -14 9z m-9 -52 c0 -5 -4 -10 -10 -10 -5 0 -10 5 -10 10 0 6 5 10 10 10
6 0 10 -4 10 -10z m-64 -147 c-10 -10 -19 5 -10 18 6 11 8 11 12 0 2 -7 1 -15
-2 -18z"/>
<path d="M1161 604 c0 -11 3 -14 6 -6 3 7 2 16 -1 19 -3 4 -6 -2 -5 -13z"/>
<path d="M3063 578 c3 -24 13 -74 22 -113 9 -39 14 -91 11 -117 -4 -45 4 -62
19 -37 11 17 23 123 15 134 -4 6 -10 33 -13 62 -6 56 -31 113 -48 113 -7 0 -9
-16 -6 -42z"/>
<path d="M13 598 c-6 -8 -11 -126 -12 -281 -3 -319 -3 -317 83 -317 49 0 54 2
54 23 0 12 3 85 6 162 5 96 3 167 -6 225 -12 76 -15 85 -36 88 -17 3 -29 18
-47 58 -26 58 -28 60 -42 42z"/>
<path d="M3921 585 c-1 -24 14 -50 22 -38 3 4 -1 19 -9 33 -12 22 -13 23 -13
5z"/>
<path d="M4462 561 c-14 -46 -15 -74 -3 -66 11 6 26 93 19 101 -3 2 -10 -13
-16 -35z"/>
<path d="M1160 560 c0 -5 5 -10 11 -10 5 0 7 5 4 10 -3 6 -8 10 -11 10 -2 0
-4 -4 -4 -10z"/>
<path d="M4272 475 c-12 -55 -25 -110 -28 -122 -4 -13 1 -38 10 -57 9 -19 16
-46 16 -60 0 -14 4 -26 9 -26 13 0 23 127 19 255 l-3 110 -23 -100z"/>
<path d="M2361 550 c-1 -8 6 -60 14 -114 18 -118 18 -116 5 -116 -5 0 -19 18
-30 40 -19 36 -40 53 -40 31 0 -4 14 -51 32 -102 24 -72 32 -117 36 -191 l4
-98 65 0 64 0 -6 63 c-8 73 -28 146 -48 179 -8 12 -18 39 -22 58 -4 19 -13 44
-19 55 -7 11 -16 48 -19 82 -6 58 -34 147 -36 113z m54 -310 c3 -5 1 -10 -4
-10 -6 0 -11 5 -11 10 0 6 2 10 4 10 3 0 8 -4 11 -10z m32 -162 c-3 -8 -6 -5
-6 6 -1 11 2 17 5 13 3 -3 4 -12 1 -19z"/>
<path d="M4130 496 c-15 -39 -12 -46 6 -13 9 16 13 31 10 34 -3 3 -10 -6 -16
-21z"/>
<path d="M5886 487 c-9 -29 8 -62 26 -51 5 4 5 10 -1 17 -5 7 -11 23 -13 37
l-4 25 -8 -28z"/>
<path d="M5760 473 c1 -16 9 -46 20 -68 l19 -40 1 36 c0 20 -3 51 -6 68 -8 39
-34 42 -34 4z"/>
<path d="M3286 482 c-18 -30 -46 -124 -46 -157 l1 -40 33 36 c27 29 36 49 41
92 4 31 4 60 0 66 -7 13 -22 14 -29 3z"/>
<path d="M3851 444 c0 -11 3 -14 6 -6 3 7 2 16 -1 19 -3 4 -6 -2 -5 -13z"/>
<path d="M2120 403 c-19 -25 -42 -53 -51 -62 -9 -9 -19 -27 -22 -41 -3 -14
-12 -54 -21 -90 -8 -36 -20 -91 -26 -123 -7 -32 -18 -61 -26 -64 -29 -11 -13
-23 31 -23 51 0 45 -13 70 149 9 58 21 116 27 130 5 14 11 37 13 50 1 13 8 27
15 31 7 4 10 14 8 21 -3 8 2 19 10 25 8 6 13 17 11 26 -3 11 -15 2 -39 -29z"/>
<path d="M3727 418 c3 -18 18 -64 33 -103 51 -130 54 -143 36 -170 -9 -14 -21
-25 -27 -25 -5 0 -15 -14 -21 -31 -6 -16 -13 -28 -15 -25 -3 3 -5 55 -4 116 2
103 1 111 -16 108 -16 -3 -19 -17 -23 -105 -3 -56 -9 -105 -13 -110 -5 -4 -19
4 -31 20 -12 15 -27 27 -33 27 -15 0 -27 -62 -19 -95 6 -25 7 -25 128 -25 103
0 123 3 134 18 13 16 13 16 14 0 0 -16 10 -18 76 -18 l76 0 -4 69 c-2 38 0 67
4 65 4 -3 8 -10 8 -15 0 -6 7 -17 15 -25 8 -9 15 -25 15 -37 0 -18 -2 -19 -11
-7 -7 12 -9 8 -7 -15 l3 -30 78 -3 c71 -3 77 -1 77 17 0 11 -4 23 -10 26 -5 3
-10 26 -10 51 0 28 -4 43 -10 39 -5 -3 -10 -17 -10 -30 0 -19 -4 -22 -21 -18
-11 3 -25 18 -31 32 -6 14 -24 55 -41 91 -32 69 -33 75 -22 103 4 10 3 17 -3
17 -6 0 -13 -8 -15 -17 -3 -12 -7 -7 -12 15 -4 18 -16 37 -26 42 -24 13 -26
13 -32 -9 -3 -15 -11 -18 -27 -14 -20 5 -21 4 -11 -15 17 -32 13 -82 -13 -140
-21 -50 -36 -59 -36 -21 0 27 -22 69 -35 69 -7 0 -25 35 -40 78 -15 42 -38 90
-51 105 l-24 28 7 -33z"/>
<path d="M4427 443 c-4 -3 -7 -17 -7 -30 0 -13 -7 -26 -15 -29 -10 -4 -13 -13
-10 -24 4 -12 -3 -24 -18 -36 -13 -11 -34 -44 -46 -74 -13 -30 -28 -59 -35
-65 -12 -9 -18 -37 -33 -143 l-6 -43 68 3 c67 3 69 4 77 33 4 17 9 50 12 75 2
25 7 75 11 112 5 47 4 72 -4 82 -7 9 -8 22 -3 37 10 27 24 109 19 109 -2 0 -7
-3 -10 -7z"/>
<path d="M6741 414 c0 -11 3 -14 6 -6 3 7 2 16 -1 19 -3 4 -6 -2 -5 -13z"/>
<path d="M5910 407 c0 -8 7 -18 16 -21 11 -4 14 -1 12 11 -4 21 -28 30 -28 10z"/>
<path d="M6669 363 c-7 -21 -12 -44 -10 -51 1 -8 -4 -19 -12 -25 -8 -7 -24
-46 -37 -87 -12 -41 -35 -100 -51 -130 -16 -30 -29 -58 -29 -62 0 -5 25 -8 55
-8 l56 0 21 48 c11 26 22 61 24 77 2 17 7 37 10 45 4 8 6 29 5 47 -1 17 7 52
19 77 l20 46 -29 30 -29 31 -13 -38z m26 -44 c-6 -19 -9 -20 -16 -6 -11 20 0
52 13 39 6 -6 7 -20 3 -33z"/>
<path d="M6720 385 c0 -8 7 -15 15 -15 8 0 15 4 15 9 0 5 -7 11 -15 15 -9 3
-15 0 -15 -9z"/>
<path d="M5543 383 c-7 -2 -13 -12 -13 -21 0 -9 -6 -29 -14 -43 -22 -42 -3
-58 28 -24 48 52 47 108 -1 88z"/>
<path d="M5856 278 c-3 -18 -7 -75 -10 -125 -3 -61 -10 -100 -20 -115 -24 -34
-20 -38 39 -38 l55 0 -6 33 c-3 17 -10 55 -14 82 -5 28 -12 83 -16 123 -7 76
-20 94 -28 40z"/>
<path d="M3117 253 c-20 -33 -23 -48 -19 -110 2 -40 8 -73 13 -73 21 0 59 104
59 163 0 69 -18 76 -53 20z"/>
<path d="M4077 250 c-3 -11 -1 -23 4 -26 5 -3 9 6 9 20 0 31 -6 34 -13 6z"/>
<path d="M5495 250 c-3 -5 -1 -10 4 -10 6 0 11 5 11 10 0 6 -2 10 -4 10 -3 0
-8 -4 -11 -10z"/>
<path d="M3027 196 c-9 -10 -17 -22 -17 -27 0 -5 -6 -9 -12 -9 -24 -1 -52 -53
-56 -107 l-5 -54 64 3 64 3 -4 65 c-2 36 -6 83 -10 104 -6 37 -7 38 -24 22z"/>
<path d="M5562 158 c-28 -41 -82 -141 -82 -153 0 -3 58 -5 129 -5 l128 0 5 78
c3 42 1 85 -4 95 -9 18 -12 17 -37 -10 -14 -15 -43 -49 -64 -75 -21 -27 -45
-48 -53 -48 -17 0 -15 19 8 108 6 23 8 45 5 48 -3 3 -18 -14 -35 -38z"/>
<path d="M3258 155 c-15 -15 -35 -50 -44 -78 -9 -29 -19 -58 -22 -65 -2 -7 4
-12 16 -12 11 0 22 8 25 20 7 26 23 26 37 0 9 -16 21 -20 66 -20 47 0 56 3 63
21 8 22 -7 119 -18 119 -3 0 -21 -23 -39 -51 -18 -28 -36 -49 -38 -46 -3 3 -9
35 -12 72 l-7 67 -27 -27z"/>
<path d="M2282 77 l3 -77 43 0 c23 0 42 2 42 5 0 17 -32 75 -59 109 l-31 39 2
-76z"/>
<path d="M2200 85 c-7 -9 -31 -30 -52 -47 l-39 -31 6 37 c5 23 3 36 -3 36 -12
0 -27 -39 -18 -47 3 -4 1 -12 -5 -20 -9 -11 1 -13 59 -13 64 0 70 2 76 23 15
55 0 91 -24 62z"/>
<path d="M6225 10 c-3 -5 3 -10 14 -10 12 0 21 5 21 10 0 6 -6 10 -14 10 -8 0
-18 -4 -21 -10z"/>
</g>
</svg>
