<?xml version="1.0" standalone="no"?>
<!DOCTYPE svg PUBLIC "-//W3C//DTD SVG 20010904//EN"
 "http://www.w3.org/TR/2001/REC-SVG-20010904/DTD/svg10.dtd">
<svg version="1.0" xmlns="http://www.w3.org/2000/svg"
 width="667.000000pt" height="1000.000000pt" viewBox="0 0 667.000000 1000.000000"
 preserveAspectRatio="xMidYMid meet">
<metadata>
Created by potrace 1.16, written by Peter Selinger 2001-2019
</metadata>
<g transform="translate(0.000000,1000.000000) scale(0.100000,-0.100000)"
fill="#000000" stroke="none">
<path d="M3238 9862 c-24 -38 -25 -42 -8 -47 26 -8 40 -28 56 -81 l14 -48 -48
-45 c-51 -49 -97 -112 -125 -173 -29 -65 -90 -46 -85 25 1 19 -4 42 -11 51 -9
11 -11 29 -7 55 5 31 2 42 -15 57 -11 10 -27 33 -34 52 -11 25 -28 39 -70 58
-31 15 -59 23 -63 19 -4 -4 -2 -10 5 -12 7 -2 27 -14 45 -27 44 -29 44 -58 -1
-67 -18 -4 -40 -14 -48 -22 -13 -13 -10 -14 30 -10 58 7 87 -9 87 -48 0 -16
-7 -44 -16 -60 -12 -24 -13 -37 -5 -62 14 -39 7 -45 -50 -48 -56 -3 -69 4 -69
40 0 15 -5 32 -12 39 -14 14 -64 16 -72 3 -3 -4 5 -6 17 -4 13 3 28 -1 34 -9
14 -17 20 -79 9 -97 -11 -18 -104 -58 -152 -66 -73 -12 -134 -29 -134 -37 0
-10 3 -10 37 3 15 6 55 15 88 20 33 6 87 21 121 35 75 30 109 30 150 2 47 -32
52 -63 17 -101 -23 -25 -24 -29 -8 -23 36 13 39 12 65 -39 14 -27 32 -55 40
-62 13 -11 13 -14 0 -23 -13 -9 -13 -11 0 -20 13 -8 12 -10 -2 -10 -11 0 -18
8 -18 19 0 32 -19 34 -60 7 -22 -14 -44 -26 -49 -26 -5 0 -44 28 -86 61 l-76
62 -72 -7 c-187 -17 -244 -17 -256 -2 -6 7 -11 18 -10 22 1 5 1 18 -1 29 l-1
20 -9 -20 c-23 -54 -2 -99 41 -88 11 3 19 0 19 -6 0 -6 12 -11 27 -11 40 0 24
-7 -32 -13 -34 -4 -42 -3 -25 3 18 6 20 8 7 9 -10 1 -29 -6 -42 -15 -19 -12
-25 -13 -25 -3 0 8 -6 5 -15 -7 -12 -16 -14 -17 -15 -3 0 19 26 32 43 22 7 -3
4 3 -5 14 -13 14 -18 37 -18 76 0 50 -2 57 -20 57 -10 0 -24 10 -31 23 -6 12
-25 37 -42 55 -17 17 -27 32 -22 32 4 0 0 9 -10 20 -10 11 -26 20 -35 20 -9 0
-21 5 -28 12 -8 8 -12 8 -12 1 0 -6 15 -21 33 -33 28 -18 29 -20 7 -14 -28 7
-60 32 -60 46 0 5 -12 20 -27 34 -22 20 -24 24 -8 19 11 -4 36 -9 55 -10 31
-3 28 0 -29 26 -62 29 -147 46 -136 29 3 -5 21 -14 40 -20 19 -6 35 -15 35
-19 0 -4 -17 -16 -38 -25 -21 -10 -50 -27 -64 -39 l-26 -22 19 -40 c13 -28 17
-32 13 -13 -9 42 4 67 46 88 22 11 43 20 49 20 5 0 31 -20 59 -45 27 -25 60
-45 71 -45 29 0 70 -42 78 -80 3 -17 14 -35 24 -41 16 -8 19 -22 19 -87 0 -47
5 -83 12 -90 14 -14 52 -16 43 -2 -3 6 -2 10 4 10 15 0 23 -18 10 -22 -7 -2
-1 -22 18 -51 22 -36 32 -44 41 -35 8 8 7 18 -5 38 -17 30 -12 78 10 84 7 2
74 12 149 22 151 20 180 15 198 -30 10 -28 94 -71 157 -81 55 -9 68 -26 65
-88 -3 -59 -23 -87 -64 -87 -29 0 -68 30 -68 54 0 7 -7 20 -17 27 -15 13 -15
12 -5 -8 7 -12 12 -30 12 -41 0 -12 13 -25 40 -37 22 -10 47 -26 56 -36 10
-11 26 -19 36 -19 29 0 33 -28 8 -56 l-23 -24 21 0 c19 0 20 -3 11 -27 -12
-33 -58 -83 -75 -83 -7 0 -54 14 -104 30 -63 22 -100 29 -123 25 -28 -6 -39
-1 -69 27 -20 18 -43 44 -51 58 -14 22 -14 27 -1 44 8 11 14 29 14 40 0 20 0
20 -21 -1 l-21 -21 -35 24 c-21 14 -41 20 -51 16 -15 -6 -15 -7 3 -10 34 -7
76 -54 106 -119 32 -68 35 -88 17 -99 -8 -5 -9 -2 -5 9 4 10 2 17 -4 17 -6 0
-9 6 -6 13 7 20 -53 102 -101 137 -24 17 -41 34 -38 37 9 9 -49 51 -80 58 -28
6 -28 6 -10 -9 23 -18 14 -21 -15 -5 -11 6 -34 7 -50 4 -28 -6 -29 -8 -12 -20
10 -8 30 -11 45 -8 18 3 39 -2 63 -17 31 -19 36 -27 33 -53 -3 -29 0 -31 42
-42 85 -22 100 -41 100 -138 0 -40 53 -58 172 -61 91 -1 106 -17 55 -59 -20
-18 -37 -36 -37 -41 0 -4 18 8 40 28 l41 37 26 -21 c22 -17 29 -18 43 -8 9 7
3 1 -12 -14 -16 -16 -39 -28 -53 -28 -15 0 -31 -10 -41 -25 -20 -31 -83 -68
-141 -86 -31 -9 -48 -21 -63 -46 -10 -18 -26 -33 -35 -33 -26 0 -16 38 20 74
38 38 42 46 22 46 -7 0 -29 -16 -48 -37 -18 -20 -27 -33 -19 -29 8 4 4 -1 -10
-13 -14 -11 -44 -23 -68 -27 -95 -14 -108 -72 -24 -99 l47 -15 -50 6 c-84 10
-96 36 -42 88 18 17 41 36 51 42 18 9 17 13 -20 54 -38 42 -39 44 -36 114 2
53 8 80 27 112 14 24 21 45 16 49 -5 3 -30 -9 -56 -26 -45 -31 -46 -32 -39
-74 10 -71 -29 -115 -54 -60 -16 35 -15 84 2 117 10 19 11 29 3 37 -14 14 -27
14 -27 0 0 -5 5 -7 10 -4 6 3 10 1 10 -5 0 -7 -7 -9 -16 -6 -21 8 -79 -35 -87
-64 -6 -22 8 -28 16 -7 3 6 6 2 6 -10 1 -16 -3 -21 -14 -17 -8 4 -15 1 -15 -6
0 -6 -13 -2 -31 11 -22 15 -34 18 -41 11 -8 -8 0 -23 29 -55 24 -26 43 -58 47
-80 5 -26 20 -48 55 -79 27 -24 52 -53 55 -65 4 -13 33 -40 63 -60 52 -35 62
-37 131 -38 42 0 68 -1 59 -3 -10 -2 -17 -8 -17 -13 0 -12 -54 -11 -105 1 -38
10 -41 8 -72 -27 -39 -43 -43 -40 -8 7 28 38 21 54 -17 45 -45 -11 -79 -57
-81 -108 -2 -45 21 -87 48 -87 13 0 43 -32 68 -72 13 -20 14 -28 5 -28 -7 0
-20 18 -29 39 l-17 40 -63 -2 c-44 -1 -92 8 -153 26 -49 15 -94 26 -100 24
-14 -5 77 -35 132 -43 23 -4 45 -11 48 -16 3 -5 -6 -6 -20 -2 -15 3 -48 -1
-76 -10 -27 -9 -60 -17 -74 -18 -13 -1 -22 -6 -20 -10 3 -4 -8 -14 -24 -22
-43 -22 -211 -76 -238 -76 -13 0 -48 -9 -79 -21 -30 -11 -65 -19 -77 -17 -21
3 -21 4 -3 18 14 11 17 11 11 2 -7 -11 -4 -12 12 -3 34 18 34 30 1 24 -30 -4
-30 -4 -12 15 10 10 21 17 26 15 4 -3 6 -1 5 4 -4 14 32 74 41 69 5 -3 6 -17
3 -31 -5 -26 -2 -27 53 -27 91 0 105 3 131 27 28 26 40 32 29 15 -12 -19 12
-10 55 21 31 22 50 30 72 27 20 -3 25 -1 18 6 -5 5 -36 10 -68 9 l-58 -1 -21
56 c-17 44 -21 76 -20 139 1 45 5 85 10 89 4 4 7 12 7 18 -1 6 -9 1 -19 -11
-15 -17 -18 -33 -14 -63 5 -33 2 -45 -17 -65 -16 -17 -30 -23 -43 -19 -13 4
-17 2 -13 -5 4 -6 15 -11 24 -11 25 0 78 -126 61 -146 -38 -46 -122 -57 -167
-24 -33 24 -55 19 -71 -16 -13 -29 -46 -43 -107 -46 -31 -1 -50 4 -62 16 -16
16 -15 19 13 42 26 21 28 26 18 43 -11 17 -9 23 14 40 14 12 30 21 34 21 5 0
27 16 49 36 29 26 47 35 63 32 20 -4 24 0 24 23 0 14 16 61 36 104 37 77 50
116 20 60 -8 -16 -23 -39 -32 -50 -30 -36 -73 -107 -59 -99 10 6 10 5 -1 -9
-7 -9 -23 -17 -35 -17 -11 0 -36 -9 -54 -20 -43 -26 -71 -26 -81 2 -17 45 11
95 75 135 16 10 13 11 -19 6 -32 -5 -44 -1 -77 26 -22 17 -59 40 -82 50 -52
22 -78 50 -88 93 -7 31 -8 31 -9 6 -2 -51 16 -78 72 -103 29 -14 68 -40 86
-59 l34 -35 -42 -73 c-41 -69 -43 -76 -38 -135 5 -67 0 -76 -65 -116 -15 -10
-45 -42 -65 -71 -65 -94 -143 -185 -164 -191 -35 -11 -58 30 -59 106 0 37 -3
80 -6 97 -5 27 0 37 42 82 42 45 48 56 45 88 -3 41 -3 70 1 157 2 47 -1 67
-17 90 -11 17 -18 33 -17 37 1 4 -7 30 -18 58 -26 67 -26 74 14 118 19 21 46
64 61 97 14 33 33 67 41 76 13 15 13 21 -5 60 -11 24 -28 70 -37 102 -15 53
-16 61 -2 90 9 20 12 40 7 52 -7 19 -8 19 -8 -2 -1 -12 -12 -35 -26 -50 l-25
-28 -25 30 c-38 46 -39 60 -5 106 49 68 38 87 -16 29 -30 -32 -46 -59 -46 -75
0 -30 21 -85 33 -85 23 0 79 -65 94 -109 13 -40 14 -60 5 -116 -14 -85 -32
-121 -76 -147 -39 -23 -54 -52 -54 -103 l0 -34 -57 20 c-64 22 -64 22 -61 12
3 -8 -5 -13 -20 -13 -8 0 -26 48 -36 95 -2 12 -4 6 -5 -12 0 -18 6 -51 15 -73
15 -38 18 -40 61 -40 60 0 97 -22 129 -76 25 -42 26 -50 19 -127 -9 -108 -30
-146 -100 -186 l-56 -32 30 -35 c30 -34 31 -37 27 -117 -2 -45 -11 -97 -19
-116 -8 -20 -12 -51 -9 -76 5 -44 -10 -85 -31 -85 -7 0 -13 -12 -12 -27 0 -24
-4 -28 -29 -28 -39 0 -116 90 -116 136 0 23 -7 34 -35 50 -46 27 -55 46 -55
112 0 61 -14 80 -67 92 -57 12 -83 40 -85 93 l-1 47 -4 -43 c-6 -59 15 -87 74
-104 l48 -14 5 -69 c4 -50 13 -85 33 -122 36 -69 35 -75 -10 -68 -36 6 -37 5
-19 -9 11 -9 25 -16 31 -16 20 0 44 -34 51 -71 4 -19 18 -46 32 -61 18 -20 23
-33 18 -52 -8 -32 -38 -34 -81 -6 -16 11 -41 20 -55 20 -19 0 -32 11 -54 45
-27 43 -52 65 -75 65 -19 0 -12 -18 10 -25 28 -9 60 -64 53 -92 -5 -19 -2 -23
18 -23 15 0 32 -11 46 -30 13 -16 29 -30 37 -30 22 0 44 -28 38 -49 -7 -29 30
-46 68 -30 39 15 46 6 30 -38 -13 -34 -12 -37 9 -53 34 -25 19 -54 -42 -79
-64 -27 -102 -27 -145 0 -22 14 -38 18 -44 12 -6 -6 0 -14 15 -23 48 -25 38
-64 -23 -90 -25 -10 -33 -8 -66 14 -21 14 -50 26 -64 26 -23 0 -21 -3 16 -19
25 -12 48 -32 58 -50 8 -17 20 -31 25 -31 6 0 38 23 72 50 34 28 67 50 74 50
23 0 35 -26 24 -54 -13 -35 -4 -33 38 10 20 21 40 33 49 30 8 -3 25 -6 37 -6
20 0 22 -4 18 -26 -2 -14 1 -59 8 -99 11 -62 10 -77 -1 -91 -12 -15 -15 -14
-29 4 -9 10 -29 21 -45 24 -17 3 -39 9 -50 13 -17 8 -18 7 -7 -7 7 -9 24 -19
39 -22 14 -4 40 -19 59 -34 32 -26 33 -28 31 -97 -3 -95 -34 -138 -116 -161
-31 -9 -63 -22 -71 -30 -13 -12 -8 -13 31 -8 43 6 49 4 87 -30 52 -48 71 -111
45 -159 -11 -22 -16 -53 -15 -102 1 -38 -2 -77 -7 -85 -12 -18 -15 -15 -32 39
-8 25 -19 46 -26 48 -7 3 -6 -9 4 -39 12 -35 12 -51 3 -82 l-12 -39 -44 7
c-49 6 -59 -7 -19 -26 42 -19 32 -44 -25 -58 -71 -17 -69 -27 5 -22 56 4 64 2
69 -16 4 -10 2 -31 -4 -46 -7 -19 -7 -25 0 -21 44 27 110 -131 110 -264 0 -39
-3 -71 -7 -71 -15 0 -35 55 -43 117 -5 36 -17 75 -29 92 -12 17 -28 47 -36 68
-11 30 -14 33 -14 14 -1 -13 13 -47 29 -77 30 -52 31 -61 13 -126 -2 -10 -12
-18 -21 -18 -12 0 -6 -10 19 -33 49 -46 67 -106 71 -247 l3 -115 -28 -13 c-23
-11 -28 -19 -25 -45 4 -41 30 -47 71 -17 33 25 49 21 76 -20 l16 -24 -27 18
c-16 10 -25 22 -22 27 11 18 -19 8 -47 -15 -24 -21 -26 -25 -11 -29 9 -3 -3
-5 -28 -6 -66 -1 -128 44 -154 114 -2 6 -7 7 -11 3 -19 -18 39 -102 106 -151
34 -25 40 -34 37 -61 -3 -27 -9 -33 -47 -45 -40 -12 -45 -12 -56 3 -7 9 -14
16 -17 16 -3 0 -31 25 -63 55 -56 54 -57 57 -53 100 3 25 2 42 -3 39 -5 -3 -9
-24 -9 -48 0 -36 7 -50 50 -101 38 -44 50 -67 50 -91 0 -18 5 -36 11 -39 5 -4
9 -17 8 -28 -1 -12 3 -33 8 -47 11 -27 1 -60 -19 -60 -5 0 -25 16 -42 35 -19
20 -46 38 -65 41 -22 5 -39 17 -52 38 -10 17 -19 25 -19 18 0 -13 27 -41 90
-95 25 -21 23 -55 -3 -71 -15 -9 -25 -3 -63 39 -25 28 -38 39 -30 25 32 -49
17 -80 -39 -80 -13 0 -26 -3 -29 -8 -2 -4 13 -6 34 -4 38 4 100 -20 100 -38 0
-14 -33 -29 -74 -33 -38 -4 -116 -37 -116 -48 0 -7 78 -19 126 -19 38 0 39 -2
23 -33 -10 -21 -10 -21 5 -3 9 11 16 23 16 27 0 6 78 39 93 39 18 0 4 -39 -24
-66 -17 -16 -41 -50 -54 -75 -26 -51 -43 -62 -83 -53 -23 4 -24 4 -9 -6 9 -6
32 -10 50 -8 27 3 35 10 54 50 21 44 56 77 96 91 21 8 21 1 2 -52 -17 -49 -8
-53 20 -8 14 22 28 32 45 32 22 0 25 -4 22 -35 -2 -19 -23 -77 -48 -127 -49
-102 -50 -113 -29 -193 8 -30 12 -65 9 -77 -8 -29 -35 -45 -55 -32 -30 19 -43
10 -20 -15 26 -27 21 -66 -7 -66 -10 0 -34 -9 -55 -20 -27 -15 -47 -19 -76
-14 -35 6 -43 2 -80 -31 -23 -21 -39 -40 -37 -43 3 -2 23 3 44 11 33 13 43 14
58 3 16 -12 13 -16 -29 -41 -60 -34 -77 -59 -77 -110 l0 -40 25 38 c28 40 89
77 130 77 26 0 65 -31 65 -52 0 -6 8 -20 17 -31 17 -18 17 -20 -19 -51 -24
-19 -44 -48 -54 -78 -15 -46 -15 -49 5 -74 15 -19 21 -22 21 -11 0 9 -4 19
-10 22 -33 20 18 94 82 120 36 14 38 14 49 -7 10 -19 8 -25 -15 -44 -34 -29
-35 -48 -2 -33 54 25 106 -18 92 -75 -4 -18 -13 -26 -29 -26 -21 0 -21 -1 6
-25 34 -33 35 -69 2 -91 -35 -23 -97 -13 -149 24 -42 31 -103 52 -146 52 -20
0 -22 -2 -10 -10 8 -5 29 -10 47 -10 21 0 46 -12 75 -35 24 -19 62 -44 85 -56
24 -11 43 -22 43 -24 0 -2 -12 -16 -27 -30 -20 -18 -39 -25 -68 -25 l-40 0 40
-20 c22 -10 68 -45 102 -77 75 -70 73 -89 -8 -86 -70 3 -90 -13 -48 -39 29
-18 30 -20 16 -41 -12 -20 -55 -53 -97 -77 -30 -17 -2 -19 44 -4 33 12 51 13
58 6 18 -18 1 -41 -64 -82 -54 -34 -71 -40 -120 -40 -31 0 -59 -4 -63 -9 -3
-6 17 -7 49 -4 47 5 55 3 65 -14 7 -14 7 -31 1 -54 -17 -57 -10 -57 18 0 26
53 95 121 109 108 3 -4 -4 -30 -17 -57 -33 -71 -18 -73 26 -4 20 33 46 70 58
82 22 25 95 67 102 59 2 -2 -14 -27 -37 -56 -38 -48 -66 -118 -52 -131 3 -3 8
0 10 7 8 22 48 76 59 80 6 2 10 -6 10 -18 -1 -29 20 -36 29 -9 7 23 63 56 75
43 4 -4 20 -55 34 -112 23 -88 32 -110 67 -150 64 -72 65 -77 29 -111 -26 -25
-41 -30 -79 -30 -25 1 -57 7 -71 15 -14 8 -37 14 -52 15 -23 0 -27 5 -31 38
-4 32 -4 31 -3 -8 l1 -45 38 -1 c27 -1 46 -9 67 -29 56 -54 41 -92 -48 -118
-26 -8 -76 -29 -110 -46 -34 -17 -70 -31 -81 -31 -11 0 -23 -4 -26 -10 -4 -6
8 -10 29 -10 34 0 36 -2 36 -32 0 -19 -9 -42 -22 -56 l-23 -25 33 24 c28 20
33 29 30 59 -3 34 -1 36 52 57 62 25 100 29 100 11 0 -11 -45 -78 -118 -177
-40 -53 -9 -34 69 43 43 43 88 78 105 82 16 4 43 17 59 29 54 39 53 40 66 -27
9 -45 21 -71 41 -91 62 -63 61 -95 -5 -190 -60 -85 -70 -115 -65 -192 3 -53 9
-71 34 -102 28 -35 99 -81 110 -71 2 3 -13 16 -33 29 -40 26 -54 56 -31 70 27
18 57 9 79 -23 26 -36 40 -21 15 17 -18 28 -74 42 -104 26 -16 -8 -21 -6 -29
12 -12 27 23 179 51 221 28 44 63 28 57 -26 -3 -34 38 -62 119 -80 68 -14 108
-41 126 -85 18 -42 15 -140 -4 -174 -13 -24 -13 -31 2 -70 22 -57 44 -89 58
-89 6 0 3 8 -6 19 -21 23 -31 90 -17 110 8 13 15 12 49 -3 36 -16 41 -24 56
-79 18 -65 48 -107 75 -106 12 0 10 3 -5 10 -27 14 -51 55 -59 104 -11 65 -14
70 -44 88 -39 23 -66 91 -54 138 12 46 47 58 111 39 60 -18 145 -15 182 7 27
16 32 16 85 -2 45 -16 59 -17 73 -7 88 64 109 66 146 17 15 -19 42 -41 59 -49
50 -20 97 -80 97 -122 0 -47 19 -79 79 -138 44 -43 58 -51 113 -61 l63 -11 -3
-51 c-5 -66 17 -110 66 -130 50 -21 102 -12 149 26 39 31 39 31 86 17 90 -27
167 -90 167 -137 0 -13 -47 -11 -69 3 -49 30 -76 -37 -42 -105 33 -65 -4 -77
-44 -14 -48 76 -114 26 -101 -76 9 -82 43 -137 106 -174 79 -46 104 -44 160
17 51 56 75 62 92 25 13 -28 20 -30 47 -13 19 11 36 6 100 -29 2 -1 5 -27 7
-58 4 -57 26 -115 44 -115 6 0 10 6 10 14 0 7 10 26 21 41 l22 27 23 -29 c13
-15 23 -32 24 -36 0 -16 85 -109 110 -122 23 -12 30 -11 58 7 18 11 32 23 32
28 0 4 22 29 48 56 27 27 53 57 59 68 9 16 12 15 33 -19 20 -33 24 -35 38 -21
10 10 18 42 21 88 5 66 8 73 29 76 12 2 28 12 34 21 9 15 16 17 45 8 29 -9 36
-7 58 13 25 23 26 23 60 7 20 -9 45 -33 56 -52 28 -46 65 -50 128 -11 20 12
45 26 56 32 41 22 70 173 45 239 -16 41 -36 41 -86 -4 -51 -44 -65 -49 -83
-27 -9 11 -9 20 -2 35 6 11 11 32 11 48 0 15 7 37 15 47 18 24 11 36 -24 36
-35 0 -44 -9 -29 -29 7 -9 8 -13 4 -9 -5 4 -16 2 -25 -5 -14 -11 -14 -10 -2 6
11 15 11 17 -2 17 -20 0 -26 20 -16 48 11 30 95 82 133 82 16 0 57 -13 90 -29
83 -40 106 -42 144 -13 14 11 29 40 38 76 15 57 15 60 -5 87 l-20 27 32 13
c18 7 59 38 92 69 57 53 180 130 209 130 16 0 66 -38 66 -50 0 -5 -17 -11 -37
-13 l-38 -4 43 -1 c23 -1 42 -6 42 -12 0 -24 41 -31 87 -16 26 9 48 15 50 13
1 -2 6 -17 9 -34 9 -47 -19 -69 -111 -84 -52 -8 -86 -19 -103 -34 -24 -21 -25
-25 -13 -51 11 -26 10 -30 -8 -45 -12 -10 -21 -26 -21 -38 0 -19 1 -19 25 4
30 31 36 31 86 -1 40 -25 41 -26 22 -46 -18 -21 -18 -21 5 -9 30 16 28 33 -9
55 -47 28 -69 53 -69 80 0 32 35 53 119 71 38 8 87 21 109 30 38 16 42 15 81
-4 54 -28 73 -60 77 -129 3 -44 8 -61 25 -74 12 -10 26 -18 33 -18 6 0 2 6 -9
12 -29 17 -32 23 -34 96 -3 80 -14 101 -86 148 -70 47 -80 75 -53 146 11 29
25 56 31 60 7 4 44 8 84 8 53 0 91 7 144 27 l72 26 24 -27 c12 -15 23 -36 23
-47 0 -28 -52 -118 -72 -125 -10 -3 -18 -10 -18 -15 0 -5 8 -9 18 -7 13 2 19
-7 26 -44 8 -42 7 -49 -17 -78 -41 -48 -32 -56 10 -10 25 29 39 38 47 30 24
-24 26 -7 2 21 -18 22 -26 42 -26 70 0 50 13 76 54 111 25 21 29 29 19 39 -17
17 -17 54 0 66 6 6 24 13 40 17 23 6 40 36 20 36 -5 0 -16 20 -26 44 -17 41
-17 48 -3 96 20 66 31 80 66 80 24 0 27 -3 23 -22 -5 -18 4 -12 35 22 23 25
41 48 42 53 0 4 11 7 24 7 38 0 72 39 86 95 18 77 41 106 116 144 57 29 71 33
95 24 38 -14 43 -6 19 32 -16 27 -19 42 -13 99 6 68 18 80 39 38 17 -34 20
-35 37 -8 16 23 15 27 -8 68 -39 68 -35 84 48 163 40 39 76 77 79 86 12 31 79
73 127 79 l46 6 -37 16 c-20 9 -59 39 -87 67 -59 60 -73 104 -47 157 21 46 21
49 -15 94 -23 29 -33 53 -37 90 -3 33 -1 50 7 50 7 0 11 22 11 60 0 41 7 74
20 100 26 52 39 58 62 30 15 -18 18 -32 12 -63 -4 -28 -3 -37 5 -33 6 4 11 16
11 27 0 29 24 18 28 -12 5 -42 23 -89 32 -84 11 7 -12 98 -38 155 -28 59 -27
74 6 137 26 50 29 53 67 53 48 0 103 26 124 60 l16 24 -36 -22 c-55 -34 -100
-29 -138 13 -32 37 -40 65 -18 65 7 0 18 -5 25 -12 15 -15 16 0 3 36 -8 19 -6
30 10 49 24 32 24 41 -1 34 -11 -3 -22 -2 -25 3 -8 14 36 60 58 61 17 1 18 2
5 6 -10 2 -31 -5 -47 -16 -43 -31 -64 -28 -59 9 3 17 1 30 -4 30 -16 0 -8 76
12 113 11 20 20 45 20 55 0 10 7 28 16 40 15 21 14 26 -11 68 -21 35 -29 66
-36 140 -5 59 -16 108 -29 133 -24 48 -26 84 -5 101 20 17 14 33 -15 40 -46
11 -59 45 -62 167 -2 61 1 115 5 120 11 10 94 -81 113 -126 9 -20 13 -45 9
-62 -4 -18 -3 -29 4 -29 17 0 13 106 -4 140 -14 27 -14 30 4 40 13 7 28 7 46
0 14 -5 34 -10 43 -10 25 1 -57 43 -98 50 -33 5 -35 8 -33 40 2 19 -5 59 -14
87 -16 49 -16 55 0 88 21 43 13 64 -14 39 -18 -16 -18 -15 -12 37 11 102 38
112 63 24 7 -25 17 -45 21 -45 12 0 11 12 -2 65 -6 25 -8 65 -4 90 5 40 9 46
28 43 16 -2 27 -17 40 -53 18 -48 18 -62 2 -155 -5 -27 -2 -41 12 -56 10 -10
15 -15 11 -10 -5 6 -8 20 -8 33 0 27 50 133 63 133 5 0 32 -16 58 -35 27 -19
49 -31 49 -25 0 5 -21 23 -46 41 -55 38 -74 77 -65 139 5 34 11 46 26 48 11 2
25 9 30 14 7 7 -6 9 -40 4 -58 -7 -64 -4 -99 48 -49 72 -27 158 28 107 30 -28
33 -27 28 9 -6 41 23 41 46 0 18 -32 32 -39 32 -15 0 21 10 19 37 -7 23 -21
23 -21 23 -1 0 11 -13 37 -30 58 -16 21 -30 41 -30 45 0 9 -79 40 -102 40 -17
0 -98 83 -98 100 0 5 6 10 13 10 7 0 30 9 50 19 32 16 35 20 19 25 -11 4 -26
4 -35 1 -18 -7 -60 33 -53 51 3 7 -1 20 -9 30 -11 16 -9 23 21 59 19 22 47 45
62 52 26 11 26 12 4 13 -13 0 -44 -11 -70 -25 -26 -14 -53 -25 -59 -25 -17 0
-17 17 0 23 9 3 9 8 -2 21 -11 13 -11 22 -3 41 7 15 8 25 2 25 -6 0 -10 -4
-10 -10 0 -5 -4 -10 -10 -10 -5 0 -10 7 -10 16 0 8 -7 37 -16 63 -15 47 -15
48 16 114 l32 66 -67 65 -68 64 6 61 c3 35 14 74 26 94 19 31 19 34 4 50 -16
16 -15 17 20 17 32 0 41 -6 67 -42 20 -28 30 -53 30 -78 0 -44 18 -100 32
-100 6 0 8 9 5 20 -7 25 -5 25 46 -5 23 -14 31 -18 18 -8 -52 39 -71 63 -71
88 0 22 4 25 38 26 l37 0 -42 19 c-51 23 -74 57 -49 76 16 11 16 13 -3 19 -26
8 -27 21 -4 34 32 17 7 22 -31 6 -30 -13 -45 -14 -71 -5 -45 15 -118 86 -112
108 7 22 25 73 50 142 11 30 31 68 44 83 16 21 23 41 23 73 0 25 5 54 11 65 7
14 7 30 -1 54 -7 21 -8 53 -4 81 l7 48 28 -32 c23 -26 29 -42 29 -78 0 -27 4
-43 10 -39 6 3 10 46 10 96 0 56 4 89 11 89 16 0 53 -22 65 -39 21 -28 25 -99
8 -141 -13 -33 -14 -45 -4 -70 7 -16 19 -35 28 -42 13 -11 14 -10 4 9 -18 32
-15 58 13 113 l25 49 47 -21 c27 -11 63 -34 81 -52 l34 -31 -4 25 c-2 19 -18
33 -66 58 -77 41 -90 61 -85 128 5 49 6 51 41 61 36 10 36 11 -24 12 -48 1
-65 5 -80 22 -18 20 -18 21 0 35 18 13 17 15 -13 50 -28 31 -32 42 -29 82 3
50 13 55 64 38 19 -6 21 -3 16 19 -5 30 21 35 50 8 17 -15 18 -15 18 4 0 14
10 24 30 32 36 12 39 20 6 14 -16 -3 -34 5 -60 28 -27 23 -46 32 -69 31 -51
-2 -64 6 -87 54 -25 51 -21 71 17 85 16 5 36 25 48 47 13 24 27 37 40 37 18 0
20 -7 20 -65 0 -46 5 -74 18 -93 24 -37 29 -34 12 7 -11 26 -12 47 -6 82 11
56 -3 93 -45 121 -24 16 -29 15 -79 -2 -60 -20 -79 -14 -71 21 5 17 2 24 -8
24 -8 0 -18 -4 -21 -10 -3 -5 -14 -10 -24 -10 -14 0 -21 10 -25 36 -6 30 -10
34 -28 28 -21 -6 -38 9 -38 35 0 10 9 12 38 8 34 -6 35 -5 18 8 -11 8 -17 17
-14 21 7 7 -22 44 -35 44 -5 0 -15 7 -23 15 -8 8 -21 12 -28 9 -7 -3 -16 2
-20 11 -4 11 0 18 13 22 10 2 24 16 32 29 7 13 26 34 43 45 29 19 29 20 6 15
-68 -17 -81 -18 -95 -6 -22 18 -19 37 15 86 16 24 26 44 21 44 -11 0 -65 -78
-80 -117 -15 -36 -39 -49 -57 -31 -20 20 -26 115 -10 168 12 40 12 51 -1 81
-18 43 -51 79 -73 79 -9 0 -25 9 -35 20 -18 20 -18 22 3 59 32 57 27 62 -9 8
-21 -31 -28 -53 -24 -67 7 -23 41 -44 60 -36 16 6 50 -29 64 -67 22 -57 -100
-257 -149 -244 -16 4 -20 2 -16 -9 3 -7 2 -13 -2 -12 -4 1 -17 -2 -30 -6 -14
-5 -28 -3 -37 4 -10 8 -14 8 -18 -2 -3 -7 -6 -1 -6 14 -1 30 -17 40 -43 26
-12 -5 -18 -5 -18 2 0 5 7 10 15 10 8 0 15 5 15 10 0 6 -6 10 -12 10 -15 0
-71 83 -83 120 -4 14 -14 34 -21 45 -8 11 -14 34 -14 52 0 44 57 103 103 104
l32 1 -30 7 c-28 6 -30 10 -28 46 3 34 12 47 75 108 l73 68 67 -5 c53 -5 70
-3 82 10 23 22 20 30 -4 9 -20 -18 -44 -16 -102 7 -31 12 -34 27 -17 97 7 34
7 46 -3 52 -9 6 -6 15 12 35 l25 27 -32 -17 c-41 -21 -46 -29 -32 -60 10 -21
8 -33 -15 -80 -15 -31 -38 -64 -52 -75 -13 -10 -24 -24 -24 -31 0 -9 4 -9 17
1 11 9 14 10 9 2 -4 -7 -26 -26 -50 -42 -34 -24 -53 -49 -84 -113 -23 -46 -50
-106 -61 -134 -18 -47 -18 -55 -5 -94 8 -23 12 -45 9 -48 -3 -3 -5 1 -5 9 0
12 -2 12 -10 -1 -6 -10 -9 -6 -8 16 1 16 -5 45 -12 64 -14 40 -1 107 19 102 7
-1 10 1 8 6 -3 4 10 32 29 62 37 59 42 85 19 93 -11 5 -13 0 -9 -23 5 -23 -1
-36 -35 -73 -23 -25 -43 -57 -45 -73 -6 -51 -18 -88 -38 -121 -11 -18 -17 -36
-14 -41 11 -19 14 -62 4 -62 -25 0 -98 52 -117 84 -26 42 -29 147 -5 226 11
36 14 70 9 105 -3 28 -1 63 4 79 11 28 -5 106 -23 106 -4 0 -5 -7 -2 -16 3 -8
-1 -32 -9 -52 -9 -20 -14 -41 -12 -46 2 -6 1 -20 -3 -31 -6 -16 -9 -11 -17 25
-11 50 -4 92 8 50 7 -24 7 -24 8 5 1 17 8 43 16 59 17 33 18 36 7 36 -4 0 -25
-22 -45 -49 -33 -43 -37 -54 -37 -108 0 -32 -6 -66 -12 -75 -13 -15 -62 -33
-54 -20 2 4 -3 21 -10 37 -11 26 -13 27 -14 8 0 -25 -35 -53 -64 -53 -11 0
-31 10 -44 23 l-24 22 13 -29 c12 -26 11 -30 -14 -52 -16 -13 -46 -27 -68 -30
-35 -6 -37 -8 -22 -19 15 -11 15 -17 5 -39 -12 -26 -36 -34 -47 -16 -3 5 -16
15 -28 20 -15 8 -13 3 8 -14 38 -33 58 -33 76 0 8 15 34 42 58 60 35 28 53 34
91 34 55 0 66 -9 106 -95 32 -67 32 -80 1 -112 -17 -20 -19 -27 -9 -48 7 -14
12 -34 12 -44 0 -14 10 -21 37 -26 21 -4 49 -13 64 -21 29 -14 99 -94 99 -111
0 -11 -55 -23 -111 -23 -22 0 -53 -11 -84 -31 -80 -50 -205 -74 -205 -38 0 6
-10 25 -22 42 -16 22 -18 32 -9 35 38 13 62 49 70 102 10 75 16 83 60 76 25
-4 31 -2 21 4 -8 5 -28 10 -43 10 -23 0 -31 -7 -43 -35 -7 -19 -14 -46 -14
-60 0 -32 -50 -85 -79 -85 -11 0 -41 20 -67 44 -41 40 -45 48 -40 78 l7 33
-16 -28 c-18 -32 -39 -30 -90 6 l-30 21 23 -29 23 -30 -23 -19 -23 -19 27 7
c21 5 30 2 38 -14 6 -10 28 -24 49 -30 50 -13 83 -57 110 -145 12 -38 26 -74
32 -81 15 -18 127 -6 167 18 24 15 42 18 70 14 20 -4 73 -8 118 -10 44 -2 90
-8 101 -14 24 -13 39 -54 17 -45 -8 3 -14 0 -14 -5 0 -6 12 -12 27 -14 22 -2
34 -15 62 -66 26 -46 39 -61 50 -56 30 12 86 15 100 5 7 -5 16 -31 18 -58 5
-49 4 -51 -32 -73 -35 -22 -39 -22 -65 -7 -16 10 -36 17 -45 17 -12 0 -10 -5
9 -22 21 -19 27 -37 34 -100 8 -71 7 -78 -10 -84 -30 -9 -48 14 -48 60 0 42
-22 86 -42 86 -6 0 -3 -9 6 -19 19 -21 23 -67 11 -120 -5 -25 -2 -35 21 -56
24 -22 26 -29 20 -67 -6 -36 -4 -45 15 -59 29 -22 16 -39 -30 -39 -43 0 -128
-26 -152 -46 -8 -8 -21 -14 -28 -14 -7 0 -10 -4 -7 -8 2 -4 -4 -8 -15 -8 -12
0 -15 4 -9 10 6 6 -9 23 -41 47 -31 23 -45 39 -37 42 7 3 3 6 -10 6 -13 1 -20
5 -17 11 3 6 -1 10 -9 10 -9 0 -16 4 -16 8 0 5 -16 16 -36 26 -20 9 -34 19
-31 22 14 15 207 -118 207 -142 0 -19 5 -18 48 11 20 14 45 25 55 25 13 0 2
15 -37 53 -42 41 -56 63 -61 93 -8 52 -54 150 -79 172 -20 17 -21 16 -5 -3 8
-11 25 -54 38 -95 12 -41 32 -95 44 -120 12 -25 23 -49 25 -53 2 -5 -5 -3 -16
4 -12 7 -19 16 -16 20 2 4 0 10 -6 14 -5 3 -10 15 -10 26 0 17 -11 24 -32 20
-5 0 -8 12 -8 28 0 16 -9 50 -19 74 -11 25 -18 47 -16 49 2 1 -9 21 -23 42
-27 39 -32 42 -142 74 -34 10 -33 10 10 5 57 -8 118 -29 145 -50 11 -10 -4 7
-33 37 -49 51 -54 54 -66 37 -20 -27 -60 -4 -96 54 -19 31 -44 56 -70 69 -22
11 -40 19 -40 16 0 -2 15 -19 34 -38 19 -19 39 -52 45 -75 12 -45 35 -68 93
-98 22 -11 40 -25 39 -30 0 -6 -29 -11 -64 -13 -61 -3 -65 -2 -110 38 -28 25
-66 47 -99 56 -30 9 -68 30 -87 47 l-34 32 19 -29 c11 -18 42 -39 82 -58 36
-15 62 -31 58 -35 -3 -4 22 -22 56 -42 35 -19 69 -43 76 -53 7 -10 18 -18 24
-18 6 0 5 7 -3 18 -7 9 -1 6 14 -7 15 -14 25 -27 22 -29 -7 -7 76 -62 93 -62
6 0 12 -4 12 -10 0 -17 -76 17 -131 59 -30 23 -73 48 -96 57 -24 9 -40 20 -37
25 3 5 -2 6 -10 3 -18 -7 -59 14 -51 26 4 6 -1 7 -11 3 -10 -4 -15 -2 -11 3 3
5 -9 19 -27 31 -24 15 -33 17 -33 7 0 -7 5 -10 10 -7 6 3 7 1 4 -5 -5 -6 -18
-7 -40 -2 -17 5 -52 13 -77 18 l-45 10 42 1 c23 0 54 -4 70 -9 26 -9 27 -9 9
5 -13 9 -41 15 -78 15 -32 0 -58 4 -58 10 0 6 0 13 0 18 0 4 26 9 57 12 l58 5
-56 58 c-58 60 -58 71 1 37 l35 -21 -25 22 c-14 12 -24 29 -22 38 2 13 1 14
-7 2 -14 -21 -41 3 -41 36 0 41 -29 90 -61 103 -27 12 -101 8 -147 -6 -14 -5
-15 -4 -2 5 8 6 26 11 40 12 28 1 23 3 -35 18 -22 6 -71 35 -110 67 -96 77
-114 84 -50 20 43 -42 53 -58 49 -77 -4 -17 -3 -20 4 -10 7 10 10 6 10 -13 0
-26 -1 -26 -19 -10 -11 9 -19 13 -20 8 0 -5 -4 1 -9 13 -5 13 -24 32 -42 43
-35 21 -31 28 5 8 20 -10 21 -10 9 5 -8 9 -40 24 -72 34 -32 9 -57 20 -54 24
2 4 -3 12 -12 17 -21 12 -10 32 17 32 11 0 17 5 14 10 -3 6 -15 10 -26 10 -10
0 -19 4 -19 9 0 5 16 5 38 0 20 -5 48 -9 61 -9 20 0 22 2 10 16 -18 21 -14
123 6 143 13 14 15 9 15 -45 0 -33 6 -67 13 -76 6 -8 44 -34 82 -56 91 -52
146 -109 65 -67 -47 24 -35 11 28 -30 55 -37 87 -45 137 -33 11 3 20 11 21 19
0 8 2 39 3 69 l3 55 13 -30 c8 -16 14 -25 15 -19 0 6 -9 32 -21 58 -11 25 -17
51 -13 57 5 8 2 9 -11 2 -13 -7 -23 -6 -34 3 -9 7 -32 24 -51 36 -34 23 -61
71 -47 84 3 4 22 -7 42 -25 20 -17 46 -31 58 -30 21 0 21 1 3 12 -44 28 -75
59 -70 71 3 7 -2 19 -11 26 -23 19 -18 48 13 64 15 8 43 32 62 53 19 21 24 28
10 17 -26 -21 -93 -45 -126 -43 -11 0 -14 3 -7 5 8 4 10 16 7 33 -5 22 -1 32
17 45 31 21 17 32 -28 20 -31 -7 -38 -14 -44 -41 -13 -64 -59 -89 -59 -32 0
28 -3 31 -24 25 -13 -3 -30 -8 -38 -11 -7 -3 -22 1 -33 9 -17 12 -18 16 -5 31
13 15 11 20 -13 39 -29 23 -34 45 -17 77 13 23 26 24 63 5 31 -17 35 -11 11
15 -26 29 -21 69 12 97 16 14 54 48 84 76 51 46 52 48 16 28 -34 -20 -38 -21
-32 -5 5 12 -2 9 -21 -10 -20 -18 -40 -27 -62 -27 l-34 0 7 43 6 42 -18 -23
-18 -24 -11 48 c-12 51 0 94 31 111 20 11 49 91 50 139 1 22 7 48 14 56 10 13
10 17 -4 22 -27 11 -44 -13 -44 -63 0 -40 -7 -54 -51 -111 l-51 -65 6 -86 c5
-72 4 -88 -10 -99 -28 -24 -49 0 -46 51 l3 44 -26 -37 c-30 -45 -42 -47 -51
-11 -6 24 -8 25 -20 9 -10 -14 -16 -15 -33 -7 -11 6 -25 19 -30 29 -9 14 -12
15 -20 3 -7 -11 -13 -11 -32 3 -32 22 -40 20 -33 -9 6 -24 5 -25 -45 -25 -65
0 -111 22 -110 53 0 12 -3 43 -7 69 l-7 47 52 32 c28 18 51 33 51 35 0 2 -16
-4 -36 -12 -19 -8 -45 -12 -57 -8 -20 6 -20 7 -2 20 18 13 17 14 -8 14 -15 0
-38 -7 -52 -16 -18 -12 -28 -13 -44 -4 -19 10 -20 17 -15 65 5 37 3 59 -6 69
-21 26 -1 77 50 126 33 32 52 60 60 91 9 30 26 56 54 81 22 21 36 38 30 38 -6
0 -17 -7 -24 -16 -21 -24 -82 -15 -97 16 -24 48 -42 95 -45 119 -3 22 -5 20
-30 -17z m2 -748 c0 3 11 -6 25 -19 13 -14 31 -25 40 -25 8 0 15 -4 15 -10 0
-5 13 -7 31 -3 29 5 30 4 20 -14 -10 -20 -6 -33 11 -33 5 0 7 4 4 8 -3 5 10 4
29 -2 24 -7 31 -14 24 -22 -7 -8 -6 -13 1 -16 6 -2 8 -11 4 -21 -5 -14 -9 -15
-20 -6 -8 6 -21 8 -30 5 -15 -6 -15 -8 0 -31 24 -36 19 -42 -6 -9 -13 16 -22
32 -20 36 1 5 -15 8 -35 8 -24 0 -33 3 -25 8 7 5 10 16 6 25 -3 10 -1 17 6 17
6 0 8 5 5 10 -4 6 -11 8 -16 5 -5 -4 -9 0 -9 7 0 9 -3 9 -10 -2 -5 -8 -10 -10
-10 -5 0 6 -12 11 -27 12 -27 1 -27 1 -8 -13 16 -12 17 -16 6 -23 -8 -5 -10
-14 -6 -22 5 -8 4 -11 -1 -6 -5 5 -9 19 -9 30 0 14 -6 22 -17 21 -10 -1 -14 4
-11 12 3 8 8 12 12 10 3 -2 15 0 26 5 15 6 11 8 -20 9 -37 1 -39 2 -21 15 17
13 18 15 3 15 -19 0 -20 2 -11 24 5 12 10 13 25 5 10 -5 19 -7 19 -5z m941
-739 c37 -20 69 -70 69 -110 0 -31 -33 -95 -49 -95 -5 0 -19 9 -32 19 -21 17
-24 29 -27 110 -2 50 -1 91 3 91 3 0 19 -7 36 -15z m-1325 -34 c-4 -5 4 -7 16
-4 45 9 -6 -21 -68 -41 -107 -33 -141 -46 -160 -62 -11 -9 -2 -7 23 5 23 12
55 19 72 17 19 -2 28 1 24 7 -4 6 0 8 10 4 10 -3 17 -3 17 1 0 4 14 7 31 8
l30 1 -28 -19 c-15 -11 -20 -17 -10 -14 53 19 53 18 37 7 -8 -6 -46 -23 -84
-37 -65 -25 -147 -83 -118 -84 8 0 6 -8 -8 -22 -15 -17 -17 -24 -8 -31 9 -6 8
-7 -4 -3 -10 3 -18 1 -18 -4 0 -6 -8 -10 -17 -10 -9 0 -25 -8 -37 -17 -20 -18
-20 -18 0 8 10 15 21 26 24 24 6 -4 25 17 28 30 1 6 7 10 14 10 6 0 12 7 14
15 1 8 6 24 10 34 5 14 4 17 -4 12 -8 -5 -10 -1 -5 10 4 11 8 13 11 6 2 -7 8
-12 14 -12 6 0 8 7 4 15 -3 10 5 20 24 30 17 9 30 18 30 20 0 3 -26 -8 -57
-24 -67 -33 -147 -66 -119 -48 11 7 27 20 37 29 29 28 123 88 137 88 7 0 11 4
8 9 -3 5 2 11 12 13 9 3 20 6 24 7 4 1 22 8 40 16 38 16 62 19 54 6z m301
-341 c29 0 89 -53 113 -99 23 -46 53 -148 48 -163 -2 -6 -19 25 -37 70 -45
111 -107 162 -197 162 -32 0 -104 -27 -146 -55 -60 -40 -53 -11 7 30 57 40
136 67 170 60 11 -3 30 -5 42 -5z m478 -25 c23 -13 52 -32 65 -44 25 -20 25
-20 3 -14 -13 3 -23 10 -23 15 0 5 -4 6 -10 3 -5 -3 -23 1 -39 10 -60 30 -164
15 -202 -31 -13 -16 -12 -16 18 -1 36 19 69 23 38 5 -25 -15 -54 -49 -55 -65
0 -7 -8 -17 -18 -22 -10 -5 -27 -28 -38 -50 -21 -44 -37 -48 -42 -10 -2 13
-15 57 -28 97 -30 90 -30 94 1 57 13 -16 25 -43 25 -60 l2 -30 8 28 c11 37 30
58 43 50 5 -3 7 -1 3 5 -10 16 46 50 104 64 41 9 48 14 34 20 -12 5 -1 6 26 3
25 -3 63 -17 85 -30z m-2145 15 c-8 -5 -22 -10 -31 -10 -9 0 -22 -7 -29 -15
-7 -8 -16 -12 -21 -10 -4 3 -13 -3 -18 -14 -16 -29 -13 -39 4 -17 17 23 19 9
5 -30 -9 -24 -9 -25 5 -14 25 21 17 -6 -12 -40 -16 -20 -21 -31 -12 -30 8 1
24 -1 36 -5 l22 -7 -21 -28 c-11 -15 -17 -33 -14 -39 5 -7 -5 -11 -28 -11 -19
0 -38 -5 -42 -12 -5 -8 0 -9 14 -6 20 5 21 3 17 -23 -3 -18 -1 -29 6 -29 17 0
-40 -47 -73 -61 -15 -6 -28 -17 -28 -23 0 -6 -5 -4 -10 4 -8 13 -14 10 -34
-15 -14 -16 -33 -46 -43 -65 -10 -19 -21 -37 -26 -38 -4 -2 -5 -8 -2 -13 4 -5
0 -7 -7 -4 -17 6 -40 -13 -55 -45 -11 -23 -12 -23 -8 13 3 24 17 53 41 82 44
54 33 60 -15 8 -24 -28 -30 -31 -21 -13 14 28 130 147 130 133 0 -5 -6 -15
-12 -23 -11 -12 -10 -12 3 -2 9 7 38 44 64 83 26 39 65 84 88 100 42 30 32 39
-15 15 -16 -9 -28 -10 -28 -5 0 6 -5 7 -11 3 -8 -4 -7 -9 2 -14 9 -6 1 -22
-29 -60 -25 -31 -42 -46 -42 -36 0 9 6 19 14 22 8 3 16 19 20 35 4 20 10 28
18 23 7 -5 9 -2 6 8 -4 8 8 33 27 57 19 23 36 60 40 82 4 22 18 52 31 67 19
21 23 23 17 7 -6 -19 -5 -19 13 -4 17 15 41 25 69 28 6 0 3 -4 -5 -9z m1370
-36 c-30 -8 -102 -38 -159 -67 -84 -42 -112 -62 -143 -100 -21 -27 -38 -52
-38 -56 0 -4 27 -31 59 -61 82 -75 95 -86 101 -82 2 2 6 -1 8 -6 1 -5 -3 -12
-11 -15 -8 -3 -33 17 -62 49 -27 30 -54 54 -60 54 -13 0 -95 79 -95 91 0 12
14 11 27 -2 12 -12 31 4 62 55 34 55 250 156 331 155 31 0 29 -2 -20 -15z
m-52 -128 c3 -13 0 -16 -10 -10 -7 4 -4 -3 7 -16 14 -16 16 -22 5 -18 -29 9
-52 -39 -32 -67 22 -31 64 -45 134 -45 58 -1 69 -3 54 -12 -19 -11 -147 -6
-178 7 -14 6 -18 2 -18 -17 0 -30 -37 -51 -63 -36 -10 5 -15 13 -12 19 4 5 -4
13 -17 18 -22 9 -22 10 10 16 37 9 40 17 13 44 -13 13 -17 27 -13 47 6 36 18
52 57 76 36 22 58 20 63 -6z m-579 5 c12 -8 10 -18 -9 -66 -25 -62 -116 -179
-131 -169 -15 9 -69 -16 -69 -32 0 -23 -1 -27 -16 -64 -20 -47 -51 -78 -85
-85 -16 -4 -38 -20 -50 -36 -17 -24 -24 -28 -35 -18 -11 9 -21 9 -39 1 -23
-11 -24 -10 -15 13 20 54 39 81 65 95 37 20 64 78 72 152 4 42 16 81 35 115
41 72 53 81 81 56 34 -31 54 -39 30 -11 -13 13 -23 27 -23 31 0 13 66 7 88 -9
27 -19 46 -10 33 15 -8 14 -5 17 22 19 18 1 38 -2 46 -7z m1647 0 c-3 -5 2 -8
10 -7 9 0 24 -13 33 -31 9 -18 23 -31 31 -30 10 1 16 -9 18 -31 3 -31 1 -33
-19 -27 -23 8 -21 -3 9 -37 10 -13 11 -18 3 -18 -7 0 -9 -4 -6 -10 4 -6 -8
-10 -27 -10 -19 0 -39 -5 -46 -12 -9 -9 -17 -7 -35 10 -13 12 -29 22 -35 22
-7 0 -12 5 -12 10 0 6 -10 9 -22 7 -13 -2 -17 -2 -10 0 6 3 12 8 12 13 0 5 12
20 26 34 24 21 26 29 20 65 -5 33 -3 41 9 41 8 0 15 5 15 10 0 6 7 10 16 10 8
0 13 -4 10 -9z m429 -1 c10 -16 -39 -93 -82 -130 -20 -18 -67 -46 -103 -62
-36 -17 -101 -47 -145 -68 -73 -35 -84 -38 -125 -30 -28 6 -82 5 -145 -1 -102
-11 -185 -1 -185 22 0 6 8 5 21 -2 26 -13 92 -8 139 13 31 13 43 13 113 0 l78
-15 82 33 c186 75 265 130 308 213 20 37 33 45 44 27z m-2346 -50 c-30 -37
-41 -45 -63 -41 -15 3 -56 -29 -56 -44 0 -7 -12 -23 -26 -34 l-26 -20 21 -27
c28 -36 27 -53 -10 -97 -23 -28 -36 -36 -52 -32 -37 10 -79 -43 -88 -110 -4
-31 -21 -84 -37 -119 -26 -56 -36 -67 -86 -94 -32 -17 -66 -28 -79 -26 -12 2
-16 2 -9 -2 6 -3 12 -9 12 -13 0 -11 -142 -34 -149 -24 -3 4 -15 8 -25 8 -11
0 -20 8 -22 18 -1 9 4 17 12 17 7 0 12 -6 10 -12 -1 -7 -1 -10 1 -5 3 4 12 7
21 7 14 0 14 1 -1 13 -9 6 -20 24 -26 38 -12 33 10 69 42 69 20 1 20 2 5 11
-14 8 -24 4 -45 -16 -16 -14 -34 -23 -41 -20 -7 3 -10 1 -7 -4 3 -5 1 -12 -4
-15 -14 -9 -40 4 -46 23 -4 13 -13 17 -30 13 -14 -2 -25 -9 -25 -16 -1 -17
-53 -52 -58 -38 -2 6 -11 8 -19 5 -13 -5 -15 -2 -10 11 4 10 10 30 14 44 3 15
11 30 16 34 6 3 -6 6 -26 5 -20 0 -33 -5 -30 -11 4 -5 1 -6 -6 -2 -7 5 -10 14
-7 22 3 8 -1 14 -9 14 -8 0 -12 6 -9 13 7 19 34 17 35 -2 0 -10 2 -12 6 -3 2
6 12 12 20 12 9 0 13 -6 10 -14 -4 -9 0 -12 13 -9 10 3 26 -4 36 -15 11 -11
38 -23 62 -27 23 -4 40 -11 37 -16 -4 -5 4 -5 17 0 16 6 23 17 25 40 4 42 30
91 48 91 8 0 15 5 15 10 0 6 -11 10 -25 10 -20 0 -25 5 -25 25 0 26 41 55 80
55 14 0 20 6 20 24 0 28 16 43 50 48 19 2 27 12 36 43 14 52 59 80 132 80 46
1 56 5 76 30 25 31 61 37 124 21 25 -6 32 -4 32 7 0 25 34 46 99 61 35 8 66
17 69 20 19 19 8 0 -19 -34z m3484 -62 c3 -29 9 -65 12 -79 6 -22 2 -28 -22
-38 -23 -9 -36 -9 -55 0 -44 19 -68 97 -39 123 14 13 76 43 92 45 4 1 9 -23
12 -51z m-862 -67 c110 -27 169 -52 169 -72 0 -13 50 -36 96 -43 37 -7 112
-45 89 -46 -5 -1 4 -12 20 -25 30 -24 29 -24 -42 4 -43 18 -80 27 -94 24 -15
-4 -26 0 -35 12 -8 11 -14 15 -14 11 0 -5 -6 -4 -12 2 -7 6 -44 27 -83 47 -66
36 -74 37 -140 32 -82 -6 -145 -28 -198 -69 -21 -17 -41 -27 -45 -23 -8 8 26
35 98 78 49 28 63 32 130 32 41 0 90 -3 109 -8 19 -4 31 -4 28 0 -4 4 -38 12
-75 18 -62 10 -110 9 -272 -8 -52 -6 -51 -6 14 8 38 8 72 18 75 21 7 7 -160
-4 -187 -12 -12 -4 -11 -2 3 7 29 19 121 37 190 38 35 1 108 -11 176 -28z
m-2326 -3 c-4 -13 -21 -37 -37 -54 l-30 -32 27 5 c27 6 31 -9 9 -34 -43 -46
-240 -173 -269 -173 -12 0 19 47 58 87 22 23 45 39 51 36 6 -3 8 -2 3 2 -4 5
1 17 10 27 16 17 16 20 -1 36 -15 15 -18 15 -27 2 -8 -12 -10 -11 -7 5 4 27
34 30 55 6 18 -22 39 -29 27 -9 -4 6 17 32 52 64 64 58 90 68 79 32z m1065
-103 c24 0 46 8 60 20 20 19 21 18 83 -13 95 -48 163 -66 198 -51 29 12 94 1
142 -23 18 -9 18 -11 -5 -36 -18 -21 -19 -23 -2 -9 37 30 39 18 3 -19 -38 -40
-97 -74 -128 -74 -11 0 -28 11 -37 25 -16 24 -16 27 1 45 20 22 14 26 -16 10
-26 -14 -24 -36 6 -65 41 -42 79 -34 164 35 41 33 75 60 77 60 15 0 225 -107
292 -148 278 -173 557 -457 757 -772 257 -406 413 -825 476 -1285 30 -222 45
-678 30 -914 -15 -251 -15 -248 -51 -243 -33 5 -31 28 3 35 15 3 11 5 -10 6
-22 1 -33 6 -33 16 0 18 -31 20 -49 2 -11 -9 -13 -9 -7 1 4 6 2 12 -3 12 -18
0 -12 38 7 49 16 10 16 10 0 11 -10 0 -18 -5 -18 -11 0 -6 -7 -8 -15 -5 -9 3
-18 -1 -22 -10 -4 -11 -13 -14 -29 -10 -16 4 -30 0 -42 -12 -13 -13 -25 -16
-39 -11 -11 4 -33 6 -48 5 -15 -2 -29 2 -32 10 -2 7 -11 10 -19 7 -10 -3 -11
-10 -4 -23 5 -9 7 -20 4 -22 -2 -3 4 -11 13 -19 16 -13 17 -12 4 4 -20 25 0
21 33 -8 16 -14 33 -25 38 -25 17 0 7 -28 -16 -43 -21 -14 -26 -14 -42 -1 -14
11 -15 17 -6 20 28 12 9 19 -47 16 -53 -2 -59 0 -66 20 -6 20 -8 21 -12 5 -4
-15 -7 -16 -21 -5 -9 7 -13 8 -9 2 8 -14 -10 -30 -43 -39 -33 -8 -61 21 -60
61 0 50 4 73 12 68 5 -3 11 2 14 10 3 8 14 18 24 21 10 3 24 21 30 40 6 18 20
45 31 59 11 14 15 26 9 26 -15 0 -2 41 19 58 14 11 13 12 -6 3 -12 -6 -24 -25
-28 -43 -12 -56 -41 -101 -89 -141 -53 -44 -76 -43 -99 4 -18 38 -12 63 19 88
13 10 21 21 18 24 -3 2 1 21 10 40 24 57 105 87 140 51 15 -14 16 -14 16 5 0
12 -5 21 -11 21 -8 0 -7 6 2 16 8 10 23 42 35 72 l20 55 78 25 c85 27 99 42
15 18 -97 -29 -112 -15 -62 62 20 31 34 42 53 42 23 1 24 2 7 14 -18 14 -17
16 8 56 15 24 38 46 56 52 17 6 27 13 24 16 -3 3 5 12 17 19 13 7 17 12 11 13
-7 0 -22 -9 -34 -21 -11 -11 -26 -18 -33 -16 -7 3 -21 -8 -30 -24 -22 -36 -84
-69 -132 -69 -30 0 -35 3 -29 18 4 9 10 26 13 37 2 11 9 26 15 33 6 8 6 12 -2
12 -12 0 -51 -72 -51 -95 0 -9 -4 -14 -8 -11 -5 3 -16 -13 -26 -34 -15 -35
-88 -100 -112 -100 -9 0 4 94 18 128 6 15 13 43 14 62 l3 35 -11 -30 c-6 -16
-14 -35 -19 -41 -5 -6 -11 -28 -15 -50 -7 -44 -47 -104 -71 -104 -10 0 -13 5
-9 17 10 26 46 161 46 173 0 5 -4 10 -10 10 -5 0 -7 -6 -4 -14 3 -8 -1 -25 -9
-38 -8 -13 -18 -40 -21 -61 -4 -21 -16 -53 -27 -72 -11 -19 -17 -40 -13 -46 4
-7 3 -9 -4 -5 -6 3 -20 -6 -32 -21 -17 -22 -23 -25 -30 -13 -6 8 -10 21 -10
28 0 6 -8 12 -17 12 -10 0 -14 -4 -8 -8 6 -4 12 -29 13 -55 3 -39 -1 -55 -23
-87 -38 -55 -106 -93 -121 -68 -9 14 17 170 33 196 7 12 9 22 4 22 -25 0 -41
-14 -41 -37 0 -48 -22 -114 -36 -109 -8 3 -14 1 -14 -5 0 -5 -12 4 -27 20 -42
45 -54 61 -48 61 3 0 -2 11 -11 25 -22 34 -15 142 13 182 36 51 37 56 15 42
-12 -7 -20 -18 -19 -23 3 -16 -45 -7 -65 11 -16 15 -18 15 -18 0 0 -16 15 -30
38 -33 8 -2 17 -6 20 -10 4 -4 -1 -4 -12 0 -15 5 -17 3 -10 -11 7 -18 8 -54 2
-103 -3 -25 -4 -25 -35 -11 -18 9 -33 20 -33 27 0 11 -87 30 -96 21 -3 -2 10
-14 28 -26 116 -73 173 -141 202 -238 11 -34 -13 -263 -31 -305 -13 -31 -22
-39 -52 -43 -20 -4 -43 -7 -52 -9 -19 -4 -37 9 -66 47 -22 29 -21 59 4 89 11
12 11 18 2 24 -7 4 -10 3 -6 -2 3 -6 -3 -16 -15 -23 -11 -7 -17 -8 -14 -2 4 5
-6 17 -21 26 -16 9 -37 34 -47 55 -10 22 -27 48 -37 59 -22 23 -25 35 -6 25 8
-5 9 -4 2 4 -13 14 -109 26 -100 12 4 -6 10 -8 14 -5 5 2 27 -16 50 -40 23
-25 38 -45 34 -45 -4 0 -2 -4 4 -8 8 -5 -2 -8 -25 -9 -52 -2 -111 -14 -117
-24 -3 -4 23 -6 57 -3 55 5 67 3 90 -15 16 -13 32 -40 39 -64 6 -23 14 -44 18
-47 4 -3 14 -23 23 -45 23 -58 73 -95 137 -100 59 -4 127 -50 133 -88 2 -13
11 -23 24 -25 12 -2 33 -15 46 -30 39 -42 104 -156 118 -208 12 -41 11 -53 -3
-95 -12 -32 -15 -61 -11 -87 5 -33 3 -42 -15 -54 -11 -8 -18 -18 -14 -22 4 -4
-1 -4 -11 0 -14 5 -17 3 -14 -7 3 -8 -10 -42 -28 -76 -18 -34 -29 -65 -26 -69
4 -3 -4 -1 -18 6 -21 10 -23 10 -12 -1 17 -18 15 -29 -4 -29 -14 0 -16 7 -11
37 6 35 5 36 -8 19 -8 -11 -15 -30 -15 -43 0 -13 -7 -26 -15 -29 -8 -4 -15
-15 -15 -26 0 -10 4 -17 8 -14 4 3 7 -12 6 -33 -3 -56 -43 -135 -60 -118 -3 2
1 11 9 19 8 8 18 25 22 38 8 25 8 25 -14 6 -11 -11 -21 -24 -21 -31 0 -6 -11
-17 -25 -23 -23 -11 -25 -10 -25 13 0 22 4 26 25 25 3 0 15 9 27 20 12 11 27
19 33 16 7 -2 11 10 12 30 1 40 -12 45 -21 9 -4 -14 -11 -23 -15 -20 -5 3 -11
-1 -13 -7 -3 -7 -17 -13 -31 -13 -15 -1 -26 4 -24 10 2 5 14 9 26 9 15 -1 20
3 17 12 -3 8 -2 14 3 14 4 0 14 11 21 25 7 13 18 21 23 18 6 -4 8 0 4 10 -3
10 -2 17 4 17 6 0 8 4 5 9 -4 5 -3 11 1 13 5 1 21 23 37 48 16 25 40 57 54 73
l26 27 -34 -7 c-23 -4 -48 -20 -70 -46 l-35 -39 -24 51 c-16 33 -30 50 -40 49
-17 -3 -23 23 -8 33 5 4 10 18 10 32 0 15 2 25 6 24 3 -1 18 11 34 26 15 16
32 25 37 22 6 -3 10 -1 10 5 0 7 -6 10 -12 8 -7 -3 -19 1 -26 9 -7 7 -18 13
-23 13 -6 0 -3 -7 5 -16 14 -13 14 -17 2 -30 -21 -20 -28 -17 -16 6 6 11 7 20
3 20 -8 0 -43 -71 -49 -98 -7 -33 -15 -42 -41 -43 l-28 -1 32 -10 c41 -13 68
-65 58 -114 -5 -29 -10 -34 -33 -34 -32 0 -102 31 -118 51 -6 8 -12 21 -12 29
-5 96 -16 158 -28 153 -9 -3 -13 -17 -11 -39 3 -20 0 -31 -5 -27 -6 3 -7 -3
-3 -17 4 -12 8 -36 9 -51 2 -27 -1 -29 -31 -29 -57 0 -102 25 -109 60 -4 16
-10 30 -15 30 -5 0 -9 9 -9 21 0 11 -4 17 -10 14 -6 -4 -10 10 -10 34 0 23 -4
41 -8 41 -14 0 -4 -79 23 -192 6 -21 19 -31 69 -49 33 -12 68 -28 77 -36 8 -7
24 -13 34 -13 36 0 85 -43 96 -85 l11 -40 -61 -55 c-38 -35 -61 -64 -61 -77 0
-31 -18 -73 -30 -73 -7 0 -8 6 -1 18 6 12 5 23 -6 37 -15 20 -15 19 -8 -2 4
-14 2 -23 -4 -23 -6 0 -11 4 -11 9 0 4 -12 6 -26 3 -18 -3 -22 -8 -15 -15 16
-16 14 -25 -6 -30 -14 -4 -12 -5 5 -6 31 -1 28 -16 -8 -31 -16 -7 -34 -18 -40
-25 -6 -7 11 -2 37 11 64 33 81 32 75 -6 -4 -31 -17 -39 -25 -17 -3 7 -6 6 -6
-5 -1 -9 4 -20 9 -23 6 -3 10 -20 10 -36 0 -17 -4 -28 -10 -24 -6 3 -7 -1 -4
-9 3 -9 1 -16 -6 -16 -6 0 -9 -4 -6 -9 4 -5 2 -20 -3 -33 l-10 -23 0 26 c-1
24 -30 69 -45 69 -3 0 -6 -9 -6 -20 0 -11 -5 -20 -10 -20 -6 0 -10 -6 -9 -12
1 -7 0 -22 -1 -33 -1 -16 -3 -14 -10 8 -5 15 -4 42 1 60 5 19 5 44 0 62 -8 25
-9 26 -10 8 -1 -13 -5 -23 -10 -23 -5 0 -6 -15 -2 -32 9 -41 -9 -106 -34 -124
-22 -17 -55 -18 -55 -3 0 5 -4 8 -9 4 -5 -3 -12 3 -15 12 -3 10 -4 -4 -2 -32
5 -63 -32 -149 -75 -174 -17 -9 -27 -22 -24 -30 5 -12 3 -12 -11 0 -10 8 -12
15 -5 17 6 2 11 12 11 22 0 10 8 21 18 25 11 3 24 15 30 28 6 12 21 38 33 57
l23 35 -36 -33 -36 -34 -45 34 c-35 25 -46 40 -48 63 -2 30 -2 30 -8 -5 -5
-26 -2 -37 9 -44 58 -34 77 -87 43 -119 -10 -8 -37 -34 -61 -57 -31 -30 -48
-40 -62 -35 -24 8 -27 56 -5 75 8 7 15 20 14 29 0 11 -3 10 -9 -5 -4 -12 -16
-24 -25 -27 -12 -5 -14 -15 -9 -42 3 -20 2 -35 -3 -35 -24 0 -98 48 -101 66
-9 57 -12 65 -26 52 -11 -10 -11 -15 1 -26 7 -7 13 -23 13 -35 0 -15 12 -28
37 -42 36 -20 62 -49 52 -59 -3 -3 -23 3 -44 14 -22 11 -45 20 -51 20 -7 0
-15 6 -17 13 -4 7 -8 4 -12 -10 -4 -12 -24 -33 -46 -47 -36 -24 -60 -68 -45
-83 3 -4 6 3 6 13 0 41 90 102 131 89 25 -8 41 -39 32 -62 -3 -10 -22 -35 -41
-56 -18 -22 -38 -52 -43 -67 -6 -15 -19 -30 -31 -33 -11 -3 -17 -10 -13 -16 3
-7 -3 -11 -15 -11 -12 0 -18 4 -15 10 4 7 -3 8 -21 4 -19 -5 -30 -2 -38 9 -13
17 -46 25 -63 14 -6 -4 -19 -4 -28 -1 -13 5 -14 8 -3 15 11 7 11 9 -1 9 -11 0
-11 3 -1 15 19 23 -6 19 -37 -5 -32 -25 -57 -25 -108 -1 -35 17 -37 20 -15 20
l25 2 -26 16 c-39 24 -53 51 -37 70 6 8 23 19 36 24 14 6 22 15 19 23 -3 8 5
18 19 25 28 12 32 41 7 41 -30 1 26 37 76 50 24 6 41 13 38 16 -7 8 -86 -15
-114 -33 -16 -11 -21 -21 -17 -38 4 -18 -1 -25 -29 -39 -19 -9 -49 -16 -65
-16 -17 0 -33 -4 -36 -9 -4 -5 4 -7 16 -5 l23 5 -23 -13 c-19 -9 -25 -9 -31 1
-5 8 -20 11 -41 8 -34 -6 -80 7 -91 25 -10 16 1 38 18 38 11 0 13 7 9 24 -4
18 -1 26 11 30 10 3 5 4 -10 2 -25 -3 -28 -1 -23 18 4 14 -7 7 -33 -23 -22
-25 -41 -39 -45 -33 -3 6 0 12 6 15 7 2 10 7 7 11 -3 3 -14 -4 -25 -16 -12
-13 -14 -18 -4 -13 9 5 12 5 7 -1 -5 -5 -19 -9 -30 -9 -13 0 -21 -5 -19 -13 1
-8 -3 -12 -10 -9 -7 2 -12 9 -11 15 4 16 -38 26 -47 12 -6 -9 -9 -9 -15 0 -7
11 -53 8 -91 -7 -8 -3 -14 0 -14 6 0 6 11 11 24 11 24 0 24 1 10 29 -18 36
-48 32 -63 -8 l-9 -26 -1 31 c-1 27 4 33 32 42 18 5 24 10 14 11 -14 1 -17 6
-12 21 5 14 2 20 -9 20 -19 0 -20 -5 -6 -31 9 -15 7 -19 -5 -19 -9 0 -14 4
-11 9 3 5 -1 14 -9 21 -9 8 -15 9 -15 2 0 -6 -18 -10 -40 -10 -27 0 -40 5 -40
14 0 16 -16 19 -25 4 -8 -13 -55 -13 -55 1 0 13 -25 39 -38 39 -4 0 -7 -13 -4
-30 3 -19 0 -30 -8 -30 -8 0 -10 9 -6 25 5 18 2 25 -9 25 -18 0 -20 16 -2 24
6 3 3 5 -8 3 -27 -2 -45 11 -45 33 0 13 -5 17 -15 14 -8 -4 -15 -1 -15 6 0 16
55 3 108 -26 23 -13 42 -20 42 -15 0 5 -18 18 -40 28 -37 17 -58 39 -25 27 8
-4 15 -3 15 0 0 4 -12 11 -27 17 -22 8 -24 12 -13 20 12 7 11 10 -8 15 -15 4
-19 10 -13 18 15 18 15 20 2 45 -10 18 -15 20 -21 10 -9 -13 -33 34 -75 144
-19 50 -30 62 -23 24 2 -13 -1 -29 -9 -35 -10 -10 -13 -9 -13 6 0 11 -6 25
-14 32 -8 6 -12 18 -9 26 3 8 0 14 -6 14 -5 0 -15 19 -21 43 -6 23 -19 59 -28
79 l-17 38 -1 -65 c0 -35 -3 -67 -7 -71 -13 -13 -16 1 -7 39 7 32 6 36 -6 26
-11 -9 -14 -8 -14 6 0 10 -8 27 -18 38 -16 19 -16 19 5 13 15 -5 24 -2 31 10
5 9 21 17 36 17 15 1 24 7 22 14 -3 6 9 17 25 23 44 19 35 28 -18 20 -27 -5
-49 -4 -51 1 -2 5 -8 9 -13 9 -4 0 -6 -7 -3 -15 5 -11 2 -13 -10 -9 -8 3 -14
11 -13 17 1 7 -3 11 -10 10 -6 -1 -17 4 -23 12 -7 8 -9 15 -5 15 4 0 2 7 -5
15 -18 22 5 45 45 45 38 0 112 -25 135 -45 11 -10 20 -11 30 -4 12 9 12 10 -2
5 -10 -3 -18 -2 -18 2 0 16 38 39 76 46 21 3 87 30 145 59 l106 52 -22 40
c-38 69 -39 78 -2 98 17 10 41 30 51 45 19 27 19 27 0 11 -10 -9 -33 -24 -51
-33 -34 -17 -36 -16 -68 29 l-14 20 2 -20 c1 -11 7 -23 12 -27 7 -5 6 -8 -1
-8 -13 0 -3 -85 14 -116 6 -12 8 -24 5 -28 -14 -14 -52 -5 -67 17 -9 12 -15
17 -13 11 1 -6 -13 -30 -31 -53 -33 -41 -35 -42 -88 -40 -50 2 -70 12 -43 21
8 3 10 16 4 43 -4 22 -10 34 -12 28 -3 -7 -19 -14 -36 -14 -18 -1 -24 -3 -14
-6 26 -7 20 -34 -17 -74 -25 -27 -41 -36 -64 -35 -16 0 -28 4 -26 7 2 4 -9 9
-26 11 -16 2 -27 1 -24 -4 3 -4 -4 -8 -15 -8 -12 0 -18 5 -16 13 3 6 -6 17
-20 24 -16 7 -25 7 -25 1 0 -5 8 -12 19 -15 25 -6 16 -39 -12 -47 -25 -6 -23
-9 -30 32 -5 25 -4 31 6 26 8 -5 7 -2 -2 9 -8 10 -11 20 -8 23 3 3 1 19 -3 35
-16 54 5 74 44 41 11 -9 6 0 -12 21 -39 46 -38 48 57 140 38 37 66 67 60 67
-18 0 -9 41 16 65 20 21 34 25 83 25 33 0 79 7 102 15 23 8 56 15 73 15 29 0
30 1 12 14 -13 10 -25 11 -37 5 -23 -12 -31 -11 -22 3 5 8 2 9 -12 3 -32 -13
-84 -23 -179 -35 -49 -6 -106 -12 -125 -15 -27 -3 -23 0 20 15 42 14 49 19 28
19 -16 1 -28 6 -28 11 0 6 -5 10 -12 10 -6 0 -9 -3 -5 -6 3 -3 -15 -17 -41
-31 -37 -20 -52 -23 -77 -16 -24 7 -31 15 -33 41 -4 35 -22 45 -22 12 0 -11
-4 -20 -10 -20 -5 0 -10 4 -10 9 0 5 -7 12 -16 15 -16 6 -15 3 16 -44 75 -112
70 -99 63 -188 -3 -46 -10 -85 -15 -88 -4 -3 -5 -24 -2 -47 7 -46 -11 -43 -19
3 -3 16 -5 9 -6 -18 0 -23 6 -59 14 -79 18 -43 18 -43 0 -43 -8 0 -17 14 -21
36 -4 22 -9 31 -14 24 -5 -8 -10 -2 -15 18 -5 25 -1 38 19 65 14 19 26 44 26
57 0 19 -6 15 -39 -27 -22 -27 -52 -55 -67 -63 -51 -27 -74 -52 -75 -84 0 -17
-3 -25 -6 -18 -2 6 -13 12 -24 12 -25 0 -24 5 5 37 14 15 23 30 20 35 -3 5 -2
7 3 6 12 -3 74 31 100 55 16 14 20 24 13 32 -6 7 -12 42 -14 78 -2 36 -14 113
-26 172 -20 98 -20 109 -6 123 9 9 16 12 16 7 0 -32 32 -198 45 -234 8 -24 15
-60 14 -80 l-1 -36 -14 45 c-11 36 -13 38 -9 11 3 -18 5 -47 5 -64 0 -29 1
-30 16 -15 30 30 33 88 8 138 -28 55 -45 178 -79 588 -2 31 1 42 11 42 19 0
18 13 -5 31 -16 14 -19 38 -25 180 -4 95 -3 185 3 214 5 27 7 53 5 56 -2 4 5
31 15 60 30 90 33 123 15 169 -20 49 -16 128 16 340 54 358 159 679 331 1017
210 411 517 775 835 988 177 119 372 205 591 261 74 19 147 41 161 48 25 13
29 12 50 -7 15 -14 36 -22 62 -22z m775 25 c-3 -5 -15 -10 -25 -10 -34 0 -30
-17 6 -23 19 -3 76 -25 127 -48 87 -41 99 -44 232 -54 77 -6 150 -16 162 -23
13 -7 34 -10 47 -6 14 3 40 1 59 -5 18 -6 73 -18 122 -26 76 -12 93 -18 122
-47 19 -18 47 -60 63 -94 30 -63 51 -83 110 -103 19 -6 53 -23 75 -37 l40 -25
-50 6 c-27 4 -63 14 -78 22 -43 22 -24 0 44 -51 72 -54 66 -60 -11 -11 -30 19
-60 35 -66 35 -18 0 -62 54 -82 101 -12 28 -49 75 -92 119 -60 59 -76 71 -96
66 -15 -4 -47 3 -84 19 -76 32 -101 31 -35 -1 28 -14 39 -22 25 -19 -14 3 -54
10 -90 15 -304 46 -303 46 -415 95 -60 26 -131 50 -157 53 -51 5 -132 -18
-181 -51 -16 -11 -30 -17 -33 -14 -8 8 100 66 179 98 80 31 91 34 82 19z
m-2297 -117 c-19 -27 -39 -61 -46 -76 -11 -26 -17 -107 -8 -107 2 0 33 13 68
30 34 16 71 30 80 30 10 0 41 9 70 20 67 25 67 26 33 -10 -15 -16 -32 -27 -37
-24 -4 3 -8 0 -8 -5 0 -6 8 -11 18 -11 13 0 10 -6 -13 -25 -40 -33 -95 -66
-95 -57 0 4 9 13 21 20 39 25 12 22 -47 -4 -32 -14 -76 -27 -97 -29 -21 -1
-40 -5 -43 -8 -4 -3 10 -22 29 -41 20 -20 32 -38 27 -41 -9 -5 -32 -65 -25
-65 3 0 11 12 20 28 8 15 27 41 41 57 l27 30 -17 -28 c-10 -16 -33 -64 -51
-108 -36 -82 -85 -154 -114 -163 -11 -4 -11 -2 3 9 11 8 16 15 10 15 -5 0 3
10 17 23 28 24 59 67 59 80 0 4 -12 -3 -27 -17 -16 -14 -57 -47 -93 -73 -36
-27 -65 -53 -66 -58 -3 -48 -56 -157 -67 -138 -2 4 -8 30 -12 57 -6 46 -5 50
22 72 22 18 26 25 16 35 -17 17 -16 32 1 26 8 -3 20 2 28 11 12 16 11 16 -6 2
-17 -13 -19 -13 -14 0 7 24 70 62 82 50 5 -5 14 -10 20 -10 5 0 6 3 3 7 -4 3
2 13 13 20 33 24 49 76 48 162 -1 58 3 84 15 102 10 13 17 33 17 44 0 58 33
130 78 172 26 23 49 43 50 43 2 0 -12 -21 -30 -47z m787 -1 c-337 -180 -694
-540 -920 -927 -33 -55 -60 -102 -62 -104 -2 -3 -8 0 -14 6 -8 8 4 37 44 105
145 246 394 543 597 713 119 99 311 220 375 236 54 13 51 9 -20 -29z m-285 -5
c-14 -12 -39 -33 -55 -45 l-30 -24 36 21 c29 17 39 18 47 9 5 -7 7 -21 3 -30
-7 -19 -58 -61 -77 -64 -7 -1 -25 -15 -41 -31 -42 -42 -113 -96 -114 -86 -1 4
-1 12 1 18 1 5 -8 1 -20 -10 -12 -11 -19 -27 -17 -37 3 -10 1 -16 -3 -13 -5 3
-14 -4 -20 -15 -6 -11 -7 -20 -3 -20 4 0 1 -6 -8 -13 -8 -7 -18 -20 -22 -29
-3 -10 -12 -18 -19 -18 -9 0 -9 3 2 11 13 9 13 10 0 6 -8 -2 -15 -13 -16 -24
-1 -27 -42 -66 -60 -59 -12 5 -11 10 5 28 22 23 27 38 13 38 -16 0 -53 -52
-48 -66 3 -8 -1 -14 -9 -14 -8 0 -15 -5 -15 -11 0 -7 -21 -36 -46 -65 -44 -52
-44 -73 0 -36 21 17 21 17 2 -5 -11 -13 -30 -23 -43 -23 -12 0 -23 -4 -23 -10
0 -5 4 -10 9 -10 11 0 9 -19 -2 -38 -5 -7 -13 -10 -18 -6 -10 6 -49 -23 -49
-36 0 -4 6 -7 14 -7 9 0 12 6 8 16 -5 14 -4 14 10 1 14 -14 14 -18 -4 -42 -20
-30 -33 -35 -43 -18 -3 6 1 10 9 10 8 0 17 4 20 8 3 5 -4 8 -15 7 -11 -1 -27
-14 -35 -29 -12 -25 -12 -27 1 -16 13 11 13 8 4 -19 -6 -17 -15 -28 -21 -25
-6 4 -5 10 3 16 11 8 11 9 -1 5 -8 -2 -15 -16 -16 -33 0 -16 -7 -41 -15 -54
-12 -23 -13 -23 -17 -6 -2 11 3 25 12 31 9 7 13 15 9 18 -3 4 -12 2 -20 -4
-24 -21 -15 13 20 67 66 105 91 141 144 204 69 82 74 89 95 121 31 48 110 129
121 122 6 -3 7 -1 3 5 -4 7 8 25 28 43 20 17 34 34 31 38 -4 8 109 110 238
213 71 57 106 79 57 35z m65 -76 c-6 -5 -45 -36 -88 -69 -129 -99 -220 -185
-323 -308 -142 -170 -240 -304 -318 -432 -37 -62 -70 -111 -73 -109 -14 15
207 349 299 453 35 39 92 106 127 147 63 76 232 226 327 292 49 34 66 43 49
26z m2096 -140 c109 -86 322 -310 421 -443 48 -64 93 -120 100 -124 10 -6 11
-4 1 7 -15 15 -17 33 -4 25 4 -3 7 8 5 24 -2 17 1 30 6 30 11 0 31 -35 25 -44
-3 -3 -3 -4 0 -2 3 2 21 -12 41 -32 l34 -34 108 5 c59 3 99 4 90 1 -10 -3 -18
-10 -18 -15 0 -6 -16 -7 -37 -4 -25 4 -33 3 -25 -3 23 -16 -72 -21 -130 -7
-122 30 -127 33 -223 161 -86 114 -327 368 -445 467 -81 68 -37 58 51 -12z
m547 -120 c16 -33 59 -97 94 -143 36 -45 73 -97 82 -115 11 -21 21 -30 31 -27
8 4 15 1 15 -6 0 -6 -4 -8 -10 -5 -5 3 -10 2 -10 -3 0 -14 85 -74 165 -115 51
-27 73 -33 86 -26 14 7 21 3 33 -22 9 -17 13 -35 10 -40 -3 -5 -2 -8 3 -7 12
4 146 -83 139 -89 -3 -3 -13 0 -21 7 -9 7 -28 15 -43 17 -102 12 -152 23 -175
38 -14 9 -31 14 -37 10 -6 -4 -15 7 -21 24 -8 22 -29 41 -72 67 -87 52 -89 54
-77 69 8 10 6 15 -8 19 -10 4 -25 19 -32 34 -11 22 -14 24 -18 9 -7 -34 -25
-11 -27 35 -1 39 -8 54 -40 90 -21 24 -42 45 -46 48 -3 3 -20 26 -36 52 -29
45 -31 46 -41 25 -9 -19 -4 -29 37 -72 l46 -50 -57 54 -57 54 20 38 c10 21 19
52 19 69 0 42 13 31 48 -39z m-3900 1 c12 4 20 2 16 -3 -3 -5 0 -9 6 -9 6 0
20 -9 32 -20 12 -11 19 -20 15 -20 -4 0 7 -15 24 -34 18 -20 37 -32 45 -29 8
3 14 -1 14 -11 0 -9 5 -16 10 -16 6 0 10 -4 10 -8 0 -4 -9 -8 -20 -8 -11 0
-20 5 -20 10 0 6 -6 4 -12 -3 -10 -11 -10 -14 0 -18 6 -3 12 -12 12 -21 0 -12
-6 -8 -19 11 -11 18 -21 25 -25 18 -4 -6 -2 -11 3 -11 16 0 13 -21 -6 -42 -15
-17 -15 -18 1 -18 9 0 14 -5 11 -10 -4 -6 -11 -8 -16 -5 -5 4 -9 0 -9 -7 0 -8
-5 -6 -11 5 -5 9 -7 22 -4 27 3 5 0 7 -9 4 -10 -4 -13 0 -11 13 2 10 4 22 4
27 1 5 9 2 19 -7 10 -10 22 -17 27 -17 5 0 1 6 -10 13 -11 9 -15 19 -10 27 6
9 4 11 -6 5 -12 -8 -12 -6 0 8 7 9 18 14 25 11 6 -3 2 2 -8 10 -11 9 -14 16
-8 16 7 0 12 4 12 9 0 5 -10 7 -22 3 -16 -4 -19 -2 -13 9 8 12 6 12 -8 0 -15
-12 -17 -11 -17 4 0 12 -6 16 -19 12 -13 -3 -21 1 -24 14 -7 27 -57 26 -64 -2
-4 -14 -11 -18 -22 -13 -9 3 -22 7 -30 7 -10 0 -10 3 3 12 18 13 22 35 6 35
-5 0 -7 6 -4 14 3 7 -2 20 -11 29 -14 14 -11 16 25 15 23 0 44 3 47 6 4 4 16
-6 28 -20 16 -20 28 -26 43 -22z m242 -557 c0 -5 -5 -3 -11 5 -9 13 -10 13 -6
-1 3 -9 -1 -26 -9 -38 -19 -27 -7 -27 14 0 11 13 23 18 34 14 15 -6 12 -15
-19 -73 -20 -37 -42 -74 -50 -83 -16 -19 -65 -156 -64 -182 0 -9 -4 -15 -8
-13 -5 3 -27 -11 -51 -31 l-42 -37 7 -78 c3 -43 3 -78 -2 -78 -4 0 -9 28 -10
63 -1 34 -5 72 -8 85 -6 23 13 47 72 94 13 10 31 46 43 87 11 39 26 76 33 83
19 19 30 51 15 41 -7 -4 -19 -8 -28 -9 -55 -5 -222 -63 -215 -74 3 -5 0 -12
-6 -16 -8 -4 -9 -3 -5 4 10 16 1 15 -35 -3 -16 -9 -27 -20 -24 -25 3 -6 -1 -7
-9 -4 -13 5 -11 12 10 40 15 19 30 35 35 35 28 4 79 30 103 51 11 10 24 18 28
18 13 0 130 95 161 131 23 26 30 30 38 18 5 -8 9 -18 9 -24z m4540 -28 c12
-22 12 -38 2 -108 -13 -91 -26 -116 -49 -97 -26 21 -46 69 -34 81 6 6 11 26
11 44 0 42 29 115 44 110 6 -2 18 -15 26 -30z m-4403 -248 c-61 -128 -138
-316 -151 -369 -10 -39 6 -3 59 135 42 108 153 336 176 359 5 5 12 7 16 3 3
-4 -28 -78 -70 -165 -123 -255 -203 -493 -256 -762 -24 -118 -61 -396 -61
-451 0 -24 -5 -39 -15 -43 -19 -7 -19 18 0 194 8 74 17 155 20 180 l4 45 -9
-40 c-10 -47 -36 -273 -46 -400 -4 -49 -9 -92 -12 -95 -14 -14 24 393 53 555
55 308 162 630 301 907 70 139 63 97 -9 -53z m-62 -32 c2 -10 0 -15 -7 -11 -6
4 -8 -2 -3 -17 4 -16 3 -20 -3 -11 -7 10 -15 2 -30 -29 -13 -26 -18 -47 -13
-52 13 -13 -8 -57 -26 -57 -11 0 -13 8 -8 33 4 17 10 37 14 42 11 19 29 75 21
70 -4 -2 -24 -45 -45 -95 -29 -69 -35 -93 -26 -104 9 -10 8 -16 -4 -26 -8 -7
-15 -9 -15 -4 0 5 -5 1 -11 -9 -6 -10 -8 -21 -5 -24 3 -4 6 -1 6 4 0 6 8 10
18 8 9 -2 19 -4 21 -4 2 -1 -4 -11 -15 -23 -13 -14 -14 -19 -4 -14 9 4 8 2 -2
-7 -19 -15 -25 -43 -8 -32 6 3 10 1 10 -4 0 -6 -5 -11 -11 -11 -5 0 -7 -4 -4
-10 4 -6 -1 -7 -11 -3 -11 4 -13 8 -6 11 13 4 7 22 -8 22 -12 0 -33 -68 -26
-86 3 -8 2 -13 -3 -10 -12 8 -21 -45 -14 -74 3 -13 2 -21 -3 -18 -5 4 -10 -23
-12 -59 -1 -36 -7 -74 -13 -86 -9 -16 -9 -19 4 -14 13 5 14 1 6 -26 -5 -18 -9
-33 -9 -34 0 -10 -29 -1 -33 10 -2 6 -3 4 -2 -5 2 -9 -2 -19 -9 -21 -14 -6 7
-43 23 -40 14 4 14 1 0 -34 -7 -15 -11 -43 -10 -61 1 -21 -2 -31 -9 -27 -6 4
-10 -4 -10 -19 0 -13 3 -26 8 -29 4 -2 2 -2 -5 -1 -6 2 -14 0 -16 -4 -2 -4 -3
-2 -1 4 1 6 5 49 8 95 l5 84 -13 -70 c-7 -38 -19 -131 -27 -205 -7 -74 -15
-122 -17 -107 -7 55 29 344 64 515 56 277 126 497 215 675 46 91 52 96 61 56
5 -19 10 -42 13 -52z m3807 -44 c99 -213 182 -481 229 -733 39 -214 61 -491
40 -505 -23 -13 -23 -92 -1 -174 12 -45 20 -85 16 -88 -3 -4 -6 1 -6 11 0 9
-8 33 -18 54 -13 28 -17 56 -15 112 13 294 -32 614 -128 925 -34 112 -128 354
-166 428 -22 44 -23 67 -4 67 5 0 28 -44 53 -97z m74 -116 c77 -185 157 -460
183 -627 21 -136 51 -400 50 -442 -1 -30 -4 -19 -11 37 -57 508 -123 782 -268
1117 -22 50 -40 94 -40 97 1 13 35 -59 86 -182z m163 -179 c44 -103 110 -413
135 -638 26 -226 43 -280 68 -226 8 20 8 43 0 93 -17 103 -25 261 -13 243 6
-8 11 -28 11 -44 0 -15 8 -76 17 -134 16 -100 18 -104 26 -67 17 85 28 114 57
151 17 21 37 48 45 59 8 10 15 16 15 11 0 -4 -11 -22 -24 -39 -53 -71 -85
-167 -66 -197 10 -17 9 -17 44 34 23 35 26 36 26 15 0 -29 -29 -78 -85 -144
-76 -89 -90 -150 -55 -233 11 -26 19 -54 18 -62 -3 -41 3 -93 10 -85 5 6 21
53 37 105 15 52 31 98 34 102 16 18 -7 -111 -27 -154 -12 -27 -27 -60 -33 -75
-11 -27 -12 -25 -29 42 -10 39 -28 94 -39 123 -27 68 -26 98 4 158 30 59 29
54 6 54 -32 0 -39 22 -50 160 -6 74 -18 173 -27 220 -8 47 -24 135 -34 195
-17 95 -72 305 -95 358 -4 9 -4 17 -1 17 4 0 15 -19 25 -42z m-4370 -443 c-10
-61 -26 -146 -34 -190 -32 -172 -33 -186 -9 -240 12 -27 25 -61 29 -75 5 -23
5 -23 -6 -5 -20 34 -52 65 -61 59 -5 -3 5 -21 21 -40 17 -18 35 -53 41 -76 6
-24 15 -53 20 -66 13 -30 13 -82 0 -82 -5 0 -10 7 -10 15 0 8 -6 34 -14 57 -8
24 -16 55 -20 69 -3 14 -24 46 -45 70 -44 48 -57 50 -16 3 35 -41 50 -99 36
-144 -11 -36 -51 -84 -51 -62 0 7 3 12 8 12 13 0 14 118 1 142 l-13 23 -7 -25
c-6 -22 -7 -19 -10 15 -1 22 -3 51 -4 66 -2 31 -48 78 -97 101 -20 9 -44 30
-52 47 -18 33 -22 156 -6 166 6 3 8 -15 6 -47 -4 -63 16 -116 47 -127 29 -11
32 -7 13 21 -9 12 -16 29 -16 38 0 8 9 -3 21 -25 12 -22 26 -44 31 -50 12 -11
12 -10 -26 80 -30 70 -33 117 -9 136 15 13 16 11 10 -13 -4 -14 -3 -28 2 -30
5 -2 11 -28 12 -58 3 -61 17 -87 86 -160 45 -46 56 -47 25 -2 -32 46 -36 56
-22 47 9 -5 10 -2 6 11 -3 11 -8 51 -11 89 -4 39 -10 84 -14 101 -5 17 -7 44
-4 60 3 19 1 25 -4 16 -14 -19 -7 124 7 145 9 15 10 11 6 -20 -6 -43 10 -97
27 -94 7 1 11 -4 9 -12 -2 -8 -3 -67 -3 -131 0 -84 4 -127 15 -151 l15 -34 -5
47 c-4 32 0 68 14 115 12 37 26 110 32 162 6 51 15 102 21 112 5 11 7 19 4 19
-3 0 0 6 7 14 7 8 14 13 15 12 1 0 -7 -51 -18 -111z m5076 -205 c4 -6 -5 -10
-21 -10 -32 0 -73 -42 -124 -124 -41 -68 -89 -124 -109 -128 -24 -5 -62 -55
-73 -95 -10 -35 -11 -36 -19 -15 -10 27 -33 30 -26 3 3 -14 1 -18 -9 -14 -8 3
-14 6 -14 7 2 18 44 133 55 149 14 21 15 21 21 -11 7 -37 6 -37 59 -11 39 18
39 19 8 13 -45 -8 -41 3 7 22 32 13 51 33 102 110 48 72 70 97 93 103 41 12
43 12 50 1z m-1195 -493 c0 -8 -18 -31 -40 -53 -22 -21 -40 -47 -40 -58 0 -73
-64 -156 -119 -156 -35 0 -41 12 -32 71 6 37 16 53 51 85 67 60 70 64 70 85 0
19 14 25 75 32 17 2 31 5 33 6 1 0 2 -5 2 -12z m837 -174 c-4 -27 -9 -59 -12
-73 -5 -19 -4 -22 4 -10 9 13 11 12 12 -5 1 -11 2 -27 1 -35 -2 -37 61 -110
95 -110 16 0 72 -41 115 -83 31 -31 39 -49 11 -25 -10 9 -34 23 -53 33 l-35
17 26 -24 c15 -13 31 -36 37 -53 5 -16 13 -39 17 -50 6 -16 5 -17 -4 -5 -8 12
-11 5 -12 -30 l-1 -45 -18 59 c-10 32 -24 64 -30 70 -6 6 -4 -6 4 -26 9 -21
16 -45 16 -55 -1 -10 -9 6 -19 36 -28 81 -49 103 -117 125 -53 17 -63 25 -96
76 -21 32 -38 61 -38 64 0 13 90 196 96 196 4 0 4 -21 1 -47z m-1126 15 c4
-79 -14 -176 -37 -193 -25 -19 -27 -19 -58 10 -20 18 -26 33 -25 62 2 60 11
80 54 112 48 36 65 39 66 9z m818 -131 c1 -89 -31 -419 -54 -552 -30 -172 -30
-165 -9 -161 11 3 31 9 46 15 20 7 28 7 32 -2 5 -9 7 -9 12 1 3 6 12 12 20 12
10 0 9 -5 -6 -20 -23 -23 -37 -25 -42 -8 -3 8 -14 5 -35 -10 -17 -12 -36 -22
-41 -22 -6 0 -9 -9 -7 -20 2 -11 0 -18 -5 -15 -5 3 -22 0 -37 -8 -15 -8 -33
-12 -40 -10 -6 2 -14 0 -17 -6 -4 -6 -13 -8 -21 -4 -8 3 -15 0 -15 -6 0 -12
-29 -15 -54 -5 -27 11 -18 21 27 29 23 4 47 9 52 10 6 1 22 3 36 3 22 2 28 9
37 42 8 34 7 42 -7 50 -14 8 -13 9 6 10 15 0 24 7 28 23 20 92 56 389 60 498
9 206 17 289 26 259 4 -14 7 -60 8 -103z m-935 -68 c31 -36 32 -51 7 -87 -32
-45 -18 -96 35 -133 24 -16 44 -36 44 -43 0 -8 7 -27 15 -42 8 -16 15 -53 15
-81 l0 -53 -32 0 c-18 0 -38 4 -44 8 -19 12 -85 122 -80 131 3 4 -5 7 -17 7
-12 -1 -35 5 -52 13 -16 8 -36 14 -44 12 -8 -1 -10 2 -5 10 5 8 2 11 -8 6 -27
-10 -34 11 -27 85 6 63 10 75 35 95 16 13 46 26 66 29 21 4 35 10 33 14 -7 12
13 60 24 60 5 0 21 -14 35 -31z m-3379 -259 c8 -16 15 -47 15 -69 0 -48 26
-117 46 -125 17 -6 18 -32 3 -74 -6 -18 -16 -29 -22 -25 -6 4 -7 1 -2 -6 8
-14 -43 -73 -57 -65 -4 3 -22 -5 -39 -16 -16 -12 -32 -20 -35 -17 -3 2 18 21
46 42 27 20 50 39 50 41 0 5 -76 -43 -104 -65 -18 -15 -19 -15 -13 1 5 15 1
16 -23 11 -18 -3 -30 -1 -30 5 0 5 8 8 18 5 9 -2 53 14 97 36 63 31 83 46 92
70 10 27 9 33 -6 44 -19 13 -44 76 -40 99 2 11 -5 68 -17 126 -4 21 5 13 21
-18z m3236 -43 c55 -13 119 -93 119 -147 0 -18 -4 -20 -22 -14 -20 6 -21 5 -9
-10 23 -27 6 -18 -20 11 -18 20 -19 24 -4 13 20 -14 20 -14 2 7 -11 12 -25 19
-32 17 -7 -3 -15 4 -18 17 -4 13 -11 20 -19 16 -9 -3 -22 12 -36 41 l-23 46
23 -20 22 -19 -17 25 c-20 29 -22 47 -4 33 6 -6 24 -13 38 -16z m874 -967 c-3
-6 -18 -8 -32 -6 -14 3 -23 2 -19 -1 3 -3 1 -12 -5 -19 -7 -9 2 -21 36 -45 43
-31 56 -49 35 -49 -5 0 -10 -7 -10 -15 0 -8 -5 -15 -11 -15 -6 0 -8 -9 -4 -20
4 -12 2 -20 -5 -20 -6 0 -8 -5 -5 -11 4 -6 -1 -16 -11 -24 -11 -7 -16 -17 -11
-21 4 -4 13 -2 19 4 7 7 19 12 28 12 13 0 13 -1 0 -10 -8 -5 -11 -10 -6 -10 5
0 3 -7 -4 -15 -10 -12 -10 -15 1 -16 8 -1 3 -4 -11 -8 -14 -4 -24 -13 -22 -20
1 -7 -2 -10 -7 -7 -13 9 -42 -4 -40 -18 3 -24 -1 -37 -10 -31 -16 9 -8 45 10
50 11 4 15 13 12 24 -3 10 0 22 6 25 6 4 11 12 11 17 0 6 -4 8 -9 5 -11 -7
-24 41 -16 54 4 6 0 10 -9 10 -8 0 -16 4 -18 8 -1 5 -19 -3 -38 -16 -19 -14
-26 -22 -15 -18 13 4 8 -5 -15 -24 -19 -17 -36 -27 -38 -22 -1 5 -15 7 -30 4
l-27 -5 30 35 c17 20 41 52 55 71 14 20 35 41 48 46 31 15 37 14 22 -5 -11
-12 -11 -15 0 -12 7 2 15 -3 18 -11 2 -8 0 -11 -6 -7 -6 3 -13 2 -17 -4 -3 -5
1 -10 9 -10 9 0 16 -5 16 -11 0 -25 16 3 18 32 1 18 8 39 14 46 6 7 8 17 4 21
-4 4 -13 -1 -21 -11 -8 -11 -19 -15 -30 -11 -13 5 -14 9 -3 15 11 7 10 11 -1
18 -12 8 -10 12 12 22 15 7 26 17 24 23 -2 6 12 19 32 28 31 14 37 14 44 2 4
-8 5 -19 2 -24z m315 -110 c0 -9 -14 -57 -30 -106 -17 -49 -39 -145 -51 -214
-29 -174 -67 -280 -114 -312 -5 -4 -6 -8 -1 -8 5 0 -1 -12 -15 -27 l-24 -27
30 18 c38 24 74 56 86 78 5 9 20 80 34 157 13 78 29 149 35 159 11 16 11 16 6
-1 -3 -10 -9 -68 -12 -130 -5 -92 -11 -120 -31 -158 -23 -42 -30 -66 -32 -96
-1 -7 -6 -13 -11 -13 -7 0 -7 6 0 20 6 11 9 20 7 20 -2 0 -34 -29 -70 -65 -37
-36 -73 -65 -81 -65 -10 0 -12 -7 -8 -22 3 -13 7 -17 10 -10 3 9 9 7 19 -7 8
-12 12 -25 9 -30 -4 -5 0 -12 6 -15 9 -3 8 -8 -4 -16 -10 -6 -18 -17 -18 -24
0 -19 -47 -23 -175 -14 -61 4 -141 5 -180 2 -82 -7 -216 -49 -296 -93 -31 -17
-60 -27 -64 -23 -5 4 -5 2 -2 -4 4 -6 -2 -19 -13 -29 -11 -10 -17 -22 -14 -27
8 -13 -16 -39 -29 -31 -5 3 -7 1 -4 -4 4 -6 -9 -39 -28 -73 -19 -34 -33 -65
-31 -69 3 -4 0 -13 -5 -21 -8 -11 -9 0 -4 35 4 28 9 62 10 77 6 53 96 148 184
193 29 14 69 42 91 61 29 26 45 34 60 29 12 -4 51 3 89 14 38 11 107 23 153
25 52 2 97 10 117 21 40 20 148 101 157 118 4 7 -2 4 -13 -5 -31 -28 -37 -21
-8 10 48 50 104 142 119 195 8 28 26 108 40 177 14 69 36 153 50 186 14 34 27
84 28 111 2 31 8 50 16 50 6 0 12 -8 12 -17z m-1500 -5 c0 -8 -11 -34 -25 -59
-27 -48 -31 -61 -15 -51 6 3 11 1 12 -4 3 -26 3 -31 -4 -28 -8 2 -58 -69 -58
-83 0 -6 -4 -10 -10 -10 -5 0 -7 7 -4 15 4 8 -1 17 -10 21 -24 9 -20 26 20 72
34 41 37 62 9 62 -8 0 -12 -6 -9 -13 2 -7 -4 -21 -14 -30 -18 -16 -19 -16 -30
7 -10 23 -7 29 41 70 52 45 97 60 97 31z m366 -162 c-4 -5 -22 -14 -39 -20
l-32 -13 35 6 c19 4 50 12 68 20 38 15 41 6 8 -23 -37 -33 -63 -44 -83 -36
-16 6 -16 5 -4 -10 12 -15 12 -19 -5 -32 -10 -8 -27 -15 -36 -15 -10 0 -18 -4
-18 -9 0 -5 -8 -11 -18 -13 -17 -5 -18 -2 -7 29 7 19 18 39 26 43 19 12 4 24
-18 15 -10 -5 -22 -7 -27 -6 -5 1 -6 -5 -3 -14 4 -8 3 -15 -2 -15 -4 0 -14
-11 -21 -25 -8 -14 -24 -28 -37 -31 -13 -4 -34 -19 -47 -35 -14 -16 -26 -29
-28 -29 -10 0 3 105 14 115 28 27 165 90 208 96 67 10 74 10 66 2z m1419 -153
c9 -16 31 -44 50 -62 43 -38 44 -65 8 -138 -27 -54 -93 -130 -114 -130 -6 0
-9 12 -7 28 2 20 -1 26 -12 23 -56 -14 -60 -14 -60 11 0 13 9 34 21 46 14 16
21 40 25 87 5 75 17 111 46 143 12 12 23 22 24 22 2 0 10 -13 19 -30z m-4443
-491 c29 -12 93 -28 142 -36 49 -8 101 -20 115 -27 39 -21 151 -65 151 -61 0
3 -13 11 -28 19 -16 8 -29 22 -29 30 0 18 13 21 22 5 10 -15 144 -113 182
-132 17 -9 38 -14 46 -11 16 6 55 -49 62 -87 2 -12 7 -24 11 -28 4 -3 4 2 1
12 -4 9 -2 17 3 17 24 0 55 -137 80 -354 7 -54 14 -106 17 -115 4 -9 -4 -4
-16 11 -12 15 -24 47 -27 75 -8 70 -16 84 -24 43 -5 -24 -8 -1 -9 70 -2 103
-28 238 -44 232 -5 -2 -22 14 -38 35 -18 23 -53 49 -87 65 -80 37 -83 34 -13
-17 62 -45 100 -94 135 -174 12 -26 16 -45 10 -51 -6 -6 -26 20 -53 69 -72
130 -142 179 -301 210 l-45 9 55 2 c48 1 52 3 30 12 -23 9 -142 5 -200 -7 -22
-5 -22 -4 -5 4 22 10 14 14 -25 12 l-25 -1 25 11 c14 6 52 14 85 19 58 7 98 0
240 -45 11 -3 -1 5 -26 19 -82 44 -228 75 -375 79 -138 4 -159 9 -149 35 4 11
-3 8 -20 -8 -18 -17 -28 -21 -36 -13 -11 11 8 53 24 53 4 0 5 -4 2 -10 -11
-17 1 -11 21 11 10 11 14 20 9 19 -21 -5 -29 1 -15 10 24 15 65 12 122 -11z
m4328 -4 c14 -16 9 -80 -9 -128 -6 -16 -37 -44 -78 -70 -73 -47 -92 -65 -109
-106 l-10 -26 -18 28 c-16 23 -16 30 -5 43 8 9 12 27 11 40 -5 33 40 76 71 69
19 -5 23 -2 23 17 1 101 5 129 20 135 11 4 23 -2 34 -18 l18 -23 13 27 c14 31
21 33 39 12z m-730 -161 c78 -18 147 -21 163 -5 17 17 37 14 30 -5 -3 -9 -24
-24 -45 -34 -38 -17 -41 -17 -121 6 -49 15 -107 24 -147 24 -113 0 -244 -50
-290 -111 -22 -30 -25 -44 -25 -112 0 -68 -3 -80 -20 -89 -11 -5 -35 -26 -52
-46 -18 -21 -33 -31 -33 -24 0 6 4 12 8 12 14 0 52 76 52 103 0 35 25 102 60
159 31 50 30 60 -3 31 -11 -10 -17 -13 -13 -6 3 7 21 22 39 35 21 15 27 17 18
5 -8 -10 -9 -17 -3 -17 6 0 14 5 17 10 20 32 163 78 245 79 30 0 84 -6 120
-15z m-3937 -93 c13 -16 30 -51 36 -77 7 -26 25 -62 41 -80 15 -18 33 -48 39
-67 11 -32 9 -39 -20 -81 -19 -27 -41 -46 -52 -46 -53 0 -87 52 -87 133 0 49
-5 61 -45 117 -51 68 -52 90 -7 115 41 22 68 18 95 -14z m302 -261 l10 -45 3
47 3 48 24 -16 c14 -9 34 -32 46 -51 12 -20 39 -55 60 -79 51 -59 56 -80 28
-110 -26 -28 -70 -31 -109 -9 -14 8 -42 14 -63 15 -67 0 -141 56 -116 87 6 7
9 30 7 50 -4 25 1 51 14 76 17 34 23 38 51 35 28 -3 32 -7 42 -48z m3965 43
c0 -4 -17 -24 -37 -45 l-37 -38 -1 -102 0 -103 -28 -9 c-19 -7 -37 -6 -58 1
-26 10 -35 9 -66 -13 -22 -15 -50 -24 -74 -24 -21 0 -41 -4 -44 -10 -3 -5 -14
-10 -23 -10 -14 0 -14 2 -3 9 9 6 -4 10 -40 13 -50 3 -57 1 -91 -30 l-37 -34
-32 36 c-77 89 -80 96 -48 117 11 8 33 43 47 79 15 36 35 66 43 68 27 5 69
-17 69 -36 0 -15 6 -18 29 -14 22 3 32 -1 40 -17 8 -14 26 -23 51 -27 45 -7
61 -36 40 -74 -14 -27 -6 -37 16 -19 14 11 16 26 10 86 -5 67 -4 73 16 88 13
8 30 15 39 15 16 0 27 11 72 75 16 22 25 25 82 25 36 0 65 -3 65 -7z m-1959
-147 c17 -7 63 -65 57 -71 -2 -3 -34 3 -72 12 -64 16 -70 16 -124 -3 -50 -17
-79 -20 -91 -9 -5 5 31 40 62 60 50 32 107 35 168 11z m345 -269 c-51 -37 -85
-74 -125 -136 -21 -33 -42 -57 -46 -53 -5 4 -5 -1 -2 -11 4 -10 3 -16 -2 -13
-5 3 -11 -3 -14 -14 -7 -26 -27 -26 -27 1 0 13 4 18 12 13 7 -4 8 -3 4 5 -9
14 2 53 13 47 4 -3 7 5 7 17 -1 13 4 21 12 19 8 -1 11 2 7 7 -3 6 6 33 19 60
20 38 33 52 61 61 20 7 42 9 50 6 8 -3 17 -1 20 4 4 6 14 10 23 10 12 -1 9 -7
-12 -23z m-484 -148 c18 -29 32 -71 40 -121 6 -43 16 -78 21 -78 5 0 7 -7 3
-15 -3 -8 0 -27 6 -41 l12 -27 13 29 12 29 1 -27 c0 -15 7 -34 15 -42 14 -14
12 -15 -22 -13 -36 2 -38 0 -41 -30 -2 -22 -9 -33 -19 -33 -13 0 -13 3 -3 15
17 21 5 45 -22 45 -15 0 -19 3 -11 8 9 5 12 39 10 112 -2 93 -5 112 -32 165
-16 33 -31 64 -33 69 -3 5 2 6 9 4 8 -3 26 -24 41 -49z"/>
<path d="M1918 2873 c-3 -20 0 -34 7 -37 12 -4 26 -79 29 -146 1 -24 -3 -35
-13 -35 -9 0 -15 -11 -15 -27 -1 -22 3 -28 19 -28 11 0 36 -13 55 -30 43 -36
50 -37 50 -4 0 17 6 28 19 31 16 4 18 12 13 51 -6 59 -12 67 -12 16 0 -21 -4
-45 -9 -53 -9 -14 -31 -7 -31 10 0 6 -6 17 -14 25 -13 12 -15 12 -19 -4 -4
-16 -5 -16 -12 2 -5 11 -3 26 3 37 14 23 15 32 3 24 -6 -3 -8 12 -6 35 2 22
-1 40 -6 40 -5 0 -7 12 -3 28 4 19 3 23 -4 13 -8 -11 -13 -6 -25 20 -8 19 -17
41 -20 49 -2 8 -6 1 -9 -17z"/>
</g>
</svg>
