<?xml version="1.0" standalone="no"?>
<!DOCTYPE svg PUBLIC "-//W3C//DTD SVG 20010904//EN"
 "http://www.w3.org/TR/2001/REC-SVG-20010904/DTD/svg10.dtd">
<svg version="1.0" xmlns="http://www.w3.org/2000/svg"
 width="675.000000pt" height="1200.000000pt" viewBox="0 0 675.000000 1200.000000"
 preserveAspectRatio="xMidYMid meet">
<metadata>
Created by potrace 1.16, written by Peter Selinger 2001-2019
</metadata>
<g transform="translate(0.000000,1200.000000) scale(0.100000,-0.100000)"
fill="#000000" stroke="none">
<path d="M7 9118 c-4 -1585 -7 -4285 -7 -6000 l0 -3118 3375 0 3375 0 0 6000
0 6000 -3368 0 -3369 0 -6 -2882z m3005 2067 c4 -5 8 -16 8 -24 0 -11 -5 -10
-20 4 -24 22 -36 14 -21 -13 15 -28 14 -35 -5 -28 -8 3 -12 2 -9 -4 3 -6 -3
-10 -14 -10 -14 0 -19 -5 -15 -15 4 -9 0 -15 -9 -15 -8 0 -18 6 -20 13 -3 7
-6 5 -6 -5 -1 -10 -4 -18 -8 -18 -5 0 -25 -16 -47 -35 -21 -19 -43 -35 -50
-35 -11 0 -97 -79 -126 -116 -9 -10 -16 -32 -18 -49 -3 -37 -29 -95 -43 -95
-6 0 -8 -8 -5 -18 4 -10 -3 -36 -14 -58 -10 -21 -19 -34 -20 -29 0 6 -6 -1
-13 -14 -20 -41 -35 -36 -43 15 -14 98 13 224 63 284 26 32 92 94 111 104 10
5 26 17 37 26 11 10 46 32 79 50 47 26 60 29 68 19 8 -11 9 -11 5 1 -2 9 14
28 41 47 45 31 80 38 94 18z m1070 -144 c-10 -6 -8 -10 10 -14 28 -7 74 -45
71 -58 -2 -4 3 -6 10 -3 18 6 84 -110 98 -173 9 -38 9 -71 2 -125 -6 -40 -7
-77 -3 -81 4 -5 38 1 76 12 321 95 686 -4 883 -240 87 -104 140 -233 157 -381
3 -32 9 -58 13 -58 3 0 35 9 71 21 96 30 254 43 354 30 125 -17 191 -36 296
-87 80 -39 109 -61 180 -133 71 -71 94 -102 132 -181 58 -120 83 -234 74 -346
-3 -43 -6 -86 -7 -94 0 -8 -5 -37 -10 -65 -10 -56 -17 -155 -18 -260 -1 -45
-4 -65 -10 -56 -13 20 -5 254 9 281 16 31 11 352 -7 386 -7 15 -13 32 -13 39
0 7 -8 30 -18 51 -44 97 -127 190 -206 231 l-41 21 -5 -44 c-6 -55 -20 -60
-35 -14 -8 26 -22 40 -56 57 -24 12 -51 29 -59 37 -42 40 -197 76 -330 75
-106 0 -244 -29 -272 -57 -7 -7 -17 -12 -24 -12 -6 0 -18 -7 -25 -16 -10 -12
2 -9 37 9 79 40 256 79 268 59 3 -5 -26 -13 -64 -16 -39 -4 -70 -11 -70 -17 0
-5 -7 -9 -14 -9 -8 0 -35 -11 -61 -24 -25 -14 -79 -38 -121 -55 -67 -27 -81
-30 -115 -21 -54 15 -60 32 -53 149 4 54 3 107 -1 118 -5 10 -9 36 -10 57 -1
22 -7 42 -13 44 -7 2 -12 15 -12 28 0 14 -8 37 -18 52 -24 35 -74 110 -87 131
-18 30 -79 83 -120 107 -34 19 -30 37 4 19 36 -18 181 -156 181 -172 0 -6 6
-16 13 -22 18 -14 66 -138 89 -226 l18 -70 -7 60 c-7 75 -46 184 -88 250 -29
45 -52 71 -137 149 -66 60 -216 129 -308 142 -105 14 -185 16 -243 5 -80 -15
-197 -62 -197 -79 0 -7 -4 -10 -10 -7 -5 3 -24 -2 -41 -11 -17 -8 -42 -14 -55
-11 -40 7 -27 -10 14 -19 l37 -8 -45 -6 c-68 -9 -80 6 -80 101 0 43 5 81 10
84 6 3 10 34 10 68 0 34 5 69 10 77 7 11 10 -2 10 -44 0 -90 13 -59 18 44 4
89 -1 114 -38 182 -6 10 -10 25 -10 33 0 8 -4 23 -9 33 -5 9 -12 25 -15 35 -3
10 -10 15 -16 12 -5 -3 -10 -3 -10 1 0 11 33 33 50 34 12 0 12 -2 2 -9z
m-1683 -432 c50 -11 91 -22 91 -22 0 -1 -77 0 -172 2 -207 4 -243 -5 -375 -86
-29 -18 -56 -33 -61 -33 -4 0 -17 -8 -28 -19 -11 -10 -40 -31 -64 -46 -64 -41
-135 -119 -165 -183 -15 -31 -33 -70 -41 -87 -17 -36 -26 -81 -29 -155 -3 -52
-3 -52 3 -10 11 73 22 30 23 -84 0 -81 -3 -111 -16 -130 -33 -50 -126 -45
-245 13 -46 22 -92 41 -102 41 -10 0 -18 4 -18 9 0 5 -20 12 -45 16 -40 5 -45
9 -40 26 6 17 1 19 -39 19 -25 0 -80 -5 -123 -12 -67 -10 -74 -13 -48 -20 23
-6 21 -6 -12 -3 -40 5 -81 -7 -143 -41 -14 -7 -41 -21 -60 -31 -19 -10 -39
-23 -45 -29 -17 -18 -119 -98 -140 -110 -26 -14 -35 -63 -28 -150 4 -47 1 -84
-8 -110 l-13 -39 -7 45 c-4 25 -8 89 -8 143 -1 53 -4 97 -8 97 -12 0 -73 -63
-73 -76 0 -6 -7 -17 -15 -24 -13 -11 -14 -10 -8 6 13 35 65 119 101 163 46 57
171 156 230 182 26 12 61 28 79 36 150 70 425 82 596 26 58 -19 62 -16 70 65
19 174 125 350 281 464 117 86 240 136 396 161 76 12 224 6 309 -14z m-2044
-1285 c14 -15 25 -38 25 -50 0 -13 5 -24 10 -24 6 0 10 -11 10 -25 0 -20 5
-25 28 -26 16 -1 20 -3 10 -6 -9 -2 -20 -12 -23 -22 -7 -23 11 -71 27 -71 6 0
4 -6 -6 -13 -16 -12 -17 -19 -8 -48 16 -52 25 -325 12 -384 -6 -27 -16 -75
-23 -106 -7 -30 -25 -74 -40 -98 -15 -23 -25 -47 -21 -53 5 -7 3 -8 -6 -3 -16
10 -31 -14 -24 -42 4 -13 -1 -28 -13 -40 -22 -21 -53 -29 -53 -13 0 5 6 10 14
10 8 0 18 5 22 11 4 8 -1 9 -17 4 -24 -7 -49 -31 -49 -48 0 -4 6 -5 13 -2 6 4
-3 -6 -20 -21 -34 -29 -143 -78 -143 -65 0 5 10 16 22 24 l23 16 -25 -2 c-23
-2 -25 2 -26 41 -2 40 0 44 37 62 88 45 157 150 185 278 18 89 18 272 -2 424
-20 152 -15 327 12 408 l19 55 3 -72 c2 -61 7 -77 27 -99z m5961 -451 c14 -18
31 -33 38 -33 12 0 30 -28 26 -38 -1 -2 7 -10 17 -17 18 -14 23 -76 9 -135 -3
-14 -13 -62 -22 -107 -12 -62 -20 -82 -34 -86 -11 -3 -21 -3 -23 -1 -2 2 6 40
19 83 25 86 46 215 38 236 -6 14 -78 65 -92 65 -7 0 -42 52 -42 63 0 18 45 -3
66 -30z m-5958 -928 c7 -22 26 -51 43 -65 18 -15 34 -40 38 -60 5 -25 12 -34
24 -32 21 4 23 -15 1 -20 -13 -3 -15 -29 -17 -181 -2 -165 -1 -178 16 -173 12
3 17 -2 17 -16 0 -11 -4 -16 -11 -12 -14 8 -29 -14 -29 -43 0 -12 -14 -33 -32
-48 -18 -15 -40 -46 -48 -68 -11 -29 -22 -43 -37 -45 -23 -3 -53 30 -53 59 0
10 -19 36 -42 58 -38 35 -41 43 -31 60 10 16 9 20 -9 24 -11 3 -17 10 -13 16
3 6 11 8 17 5 7 -5 9 -1 5 9 -6 16 18 32 34 21 5 -3 9 58 9 145 l0 151 -25 0
c-28 0 -31 9 -12 29 10 11 9 13 -5 8 -21 -7 -35 11 -15 19 9 3 12 14 10 28 -4
18 4 31 36 56 23 19 41 42 41 52 0 10 7 30 16 44 25 37 56 28 72 -21z m5781
-142 c6 -13 11 -31 11 -40 0 -9 18 -31 39 -50 25 -21 41 -44 43 -61 2 -15 8
-26 16 -24 17 3 15 -17 -3 -24 -13 -5 -15 -35 -15 -186 0 -156 2 -179 15 -174
9 3 15 0 15 -9 0 -8 -7 -15 -15 -15 -10 0 -15 -10 -15 -27 0 -18 -13 -38 -40
-63 -22 -20 -40 -45 -40 -56 -1 -27 -24 -54 -47 -54 -19 0 -36 23 -48 67 -3
11 -22 33 -41 48 -31 23 -35 32 -30 56 4 22 2 29 -9 29 -8 0 -15 5 -15 10 0 6
5 10 10 10 6 0 10 7 10 15 0 9 9 15 25 15 l25 0 0 150 0 150 -26 0 c-21 0 -24
4 -19 20 5 15 3 18 -9 14 -9 -3 -16 -2 -16 4 0 5 6 12 14 15 9 4 12 14 9 28
-5 16 4 31 35 60 23 21 42 45 42 53 0 57 58 86 79 39z m-5586 -884 c9 -17 17
-42 17 -55 0 -24 8 -33 68 -80 l32 -26 0 -379 c0 -376 0 -378 -21 -390 -13 -7
-72 -11 -153 -10 -128 0 -131 1 -153 26 -27 31 -30 60 -5 70 14 5 11 9 -16 21
-18 7 -31 18 -27 23 3 6 11 8 18 5 9 -3 11 50 9 237 -2 162 0 245 7 252 18 18
13 27 -14 27 -35 0 -31 19 5 26 25 6 27 8 15 21 -25 25 -17 44 45 104 40 39
60 65 60 81 0 13 6 36 13 51 10 22 19 27 47 27 29 0 38 -6 53 -31z m5785 -156
c6 -15 12 -38 12 -52 0 -16 16 -39 50 -70 l50 -46 -2 -175 c-1 -96 -4 -142 -5
-102 -3 55 -7 72 -19 72 -12 0 -14 -25 -12 -167 3 -153 5 -168 21 -167 15 2
17 -9 17 -104 0 -145 3 -142 -162 -142 -124 0 -130 1 -153 25 -14 13 -25 36
-25 50 0 21 6 27 31 32 34 7 21 22 -14 16 -12 -2 -28 1 -36 6 -16 11 -6 32 12
25 10 -4 13 10 11 53 -1 32 1 43 3 26 4 -29 8 -33 34 -33 l29 0 0 210 0 210
-30 0 c-28 0 -29 -1 -33 -57 l-3 -58 -2 67 c-1 37 3 70 8 73 17 11 11 22 -12
21 -31 -2 -33 21 -2 28 20 5 24 10 15 19 -6 6 -11 21 -11 33 0 22 14 38 78 89
17 15 32 35 32 46 0 10 8 37 17 59 16 36 21 40 53 40 28 0 37 -5 48 -27z"/>
<path d="M330 6380 l0 -210 35 0 35 0 0 210 0 210 -35 0 -35 0 0 -210z"/>
<path d="M501 6478 c-5 -13 -12 -31 -15 -40 -7 -24 -23 -23 -31 2 -14 44 -25
16 -25 -65 0 -73 3 -86 20 -95 27 -14 102 -23 117 -13 8 6 13 41 14 102 1 98
-4 112 -48 126 -18 5 -25 1 -32 -17z"/>
<path d="M6287 6323 c-2 -5 -7 -20 -11 -35 -8 -33 -26 -37 -33 -8 -11 41 -28
12 -31 -50 -4 -83 2 -104 33 -118 34 -15 98 -15 113 0 8 8 12 46 12 105 0 81
-2 94 -19 103 -23 12 -58 13 -64 3z"/>
</g>
</svg>
